<svg xmlns="http://www.w3.org/2000/svg" height="226.773" width="680.32"><path d="M680.315 226.773H0V.003h680.315v226.77" fill="#ed1c24"/><path d="M603.456 152.89h13.33v20.24H561.03v-19.01h11.216l-17.067-24.81-16.583 24.81h11.219v19.008h-47.317v-20.24h12.528l27.148-41.173-26.824-37.837h-10.28V53.645h51.9v19.006h-10.574l16.423 22.345 14.957-22.345h-10.082V53.645h49.09V73.88h-15.438l-26.172 39.064zM453.819 53.644h41.78V73.88H484.63v66.875c0 27.8-26.843 33.78-43.392 33.78-22.923 0-44.107-8.975-44.107-38.187V73.879h-13.004V53.645h51.365V73.88h-9.585v60.714c0 11.784 5.467 19.703 18.287 19.703 10.737 0 19.406-5.097 19.406-18.653V73.879h-9.782zm-327.396 0h45.813V73.88h-10.623l-31.738 99.283h-25.9L71.094 73.88H58.092V53.645h54.617V73.88h-12.682l18.37 60.513h.326l19.894-60.513h-12.194zm237.214 81.442h21.62v38.042H291.3v-20.24h15.765V73.88H291.3V53.645h60.633V73.88h-16.095v79.01h27.8zm-181.94-81.442h96.026V91.48h-20.971V73.879h-34.299v27.454h27.635v20.234h-27.635v31.322h34.299v-17.77h20.97v38.01h-97.045v-20.24h13.007V73.88h-11.987zm433.67 59.706c0-8.59 6.494-15.068 15.104-15.068 8.608 0 15.098 6.479 15.098 15.068 0 8.628-6.457 15.137-15.024 15.137-8.656 0-15.178-6.509-15.178-15.137zm-3.495.04c0 10.6 7.96 18.592 18.516 18.592 10.647 0 18.675-7.992 18.675-18.592 0-10.603-7.994-18.598-18.599-18.598-10.6 0-18.592 7.995-18.592 18.598zm18.832-7.211c2.273 0 3.528 1.028 3.528 2.894 0 2.395-1.917 2.896-3.528 2.896h-2.817v-5.79h2.817zm-6.51-3.073h-.166V123.2h4.021v-8.154h1.715c0 .135 5.04 8.075 5.04 8.075l4.133.08h.304l-5.548-8.636c2.782-.803 4.394-2.777 4.394-5.49 0-3.794-2.604-5.968-7.146-5.968h-6.746" fill="#fff"/></svg>