<svg xmlns="http://www.w3.org/2000/svg" version="1.0" width="710" height="230" viewBox="-0.446 -0.974 710 230"><path fill="#c11d06" d="M365.962 67.981l20.879-20.942v52.788l-20.879 20.942V67.981zm-86.57 20.599l20.878-20.943v32.175l-20.878 20.945V88.58zm25.437-32.028l26.042-25.822v64.212l-26.042 25.822V56.552zm30.542-30.511L361.414 0v94.719l-26.043 26.04V26.041z"/><path d="M98.268 135.422H76.969l-9.384 41.331h-.21l-9.385-41.331H40.171l-9.593 41.331h-.213l-9.172-41.331H0l18.874 75.281h21.085l8.964-39.539h.21l9.174 39.539h20.454l19.507-75.281z"/><path d="M100.381 210.703h20.876v-54.722h-20.876v54.722zm20.876-75.281h-20.876v14.656h20.876v-14.656zm25.724 41.754c.95-5.906 4.535-9.173 10.756-9.173 5.378 0 9.172 4.111 9.172 9.173h-19.928zm39.961 10.859c0-21.299-9.382-33.424-31.104-33.424-17.292 0-28.89 12.969-28.89 28.89 0 18.239 13.18 28.574 30.682 28.574 12.441 0 23.935-5.483 28.152-17.292h-19.506c-1.687 2.637-5.377 3.9-8.75 3.9-6.537 0-10.123-4.428-10.65-10.648h40.066z" fill-rule="evenodd"/><path d="M192.957 210.703h20.879v-28.889c0-8.75 4.744-10.545 8.328-10.545 6.116 0 6.854 4.429 6.854 10.754v28.68h20.878v-37.534c0-12.549-8.962-18.558-18.77-18.558-8.329 0-13.917 2.848-17.817 8.328h-.211v-6.958h-20.141v54.722z"/><path d="M275.264 177.176c.947-5.906 4.533-9.173 10.754-9.173 5.376 0 9.174 4.111 9.174 9.173h-19.928zm39.961 10.859c0-21.299-9.385-33.424-31.106-33.424-17.29 0-28.888 12.969-28.888 28.89 0 18.239 13.18 28.574 30.681 28.574 12.443 0 23.935-5.483 28.152-17.292h-19.507c-1.685 2.637-5.376 3.9-8.751 3.9-6.537 0-10.121-4.428-10.648-10.648h40.067z" fill-rule="evenodd"/><path d="M320.359 210.703h20.876V189.09c0-11.705 4.43-16.553 12.653-16.553 4.217 0 4.955.42 7.064 1.052v-18.45c-1.793-.527-2.848-.527-4.957-.527-7.591 0-12.019 3.584-15.393 10.123h-.21v-8.753h-20.034v54.721h.001z"/><path d="M404.449 183.291c0 6.535-1.688 13.602-9.173 13.602-7.487 0-9.173-7.066-9.173-13.602 0-6.434 1.686-13.496 9.173-13.496 7.485 0 9.173 7.062 9.173 13.496zm-38.487 27.412h20.141v-6.008h.211c2.637 3.479 5.798 7.38 16.025 7.38 15.5 0 22.985-15.288 22.985-28.997 0-12.863-4.956-28.467-23.301-28.467-6.221 0-11.81 2.742-14.974 7.381h-.209v-26.57h-20.879v75.281h.001zm83.45-33.527c.947-5.906 4.533-9.173 10.754-9.173 5.377 0 9.173 4.111 9.173 9.173h-19.927zm39.961 10.859c0-21.299-9.387-33.424-31.105-33.424-17.291 0-28.89 12.969-28.89 28.89 0 18.239 13.179 28.574 30.681 28.574 12.444 0 23.936-5.483 28.152-17.292h-19.507c-1.685 2.637-5.376 3.9-8.75 3.9-6.536 0-10.122-4.428-10.649-10.648h40.068z" fill-rule="evenodd"/><path d="M494.726 210.703h20.877V189.09c0-11.705 4.429-16.553 12.651-16.553 4.219 0 4.956.42 7.065 1.052v-18.45c-1.792-.527-2.847-.527-4.956-.527-7.59 0-12.02 3.584-15.393 10.123h-.213v-8.753h-20.032v54.721h.001z"/><path d="M559.202 180.654c0-5.799 2.954-10.859 8.859-10.859 6.113 0 9.068 4.744 9.068 10.754 0 6.116-.846 12.652-8.541 12.652-7.487 0-9.386-6.326-9.386-12.547zm38.276-24.673h-20.876v6.644h-.213c-2.424-5.589-8.223-8.014-14.338-8.014-15.605 0-23.724 11.914-23.724 26.148 0 14.655 7.275 25.832 23.405 25.832 6.224 0 11.282-2.742 14.656-7.59h.213v5.061c0 4.533-1.478 12.547-8.226 12.547-4.219 0-6.644-1.793-7.275-5.906h-20.664c1.897 14.764 15.603 18.242 28.571 18.242 25.623 0 28.47-15.288 28.47-26.15v-46.814h.001zm25.386 21.195c.949-5.906 4.533-9.173 10.752-9.173 5.379 0 9.175 4.111 9.175 9.173h-19.927zm39.961 10.859c0-21.299-9.385-33.424-31.104-33.424-17.295 0-28.892 12.969-28.892 28.89 0 18.239 13.179 28.574 30.684 28.574 12.438 0 23.933-5.483 28.151-17.292h-19.506c-1.688 2.637-5.379 3.9-8.75 3.9-6.539 0-10.123-4.428-10.65-10.648h40.067z" fill-rule="evenodd"/><path d="M668.064 210.703h20.876V189.09c0-11.705 4.43-16.553 12.652-16.553 4.216 0 4.955.42 7.064 1.052v-18.45c-1.794-.527-2.849-.527-4.955-.527-7.594 0-12.02 3.584-15.394 10.123h-.212v-8.753h-20.032v54.721h.001z"/></svg>