<svg xmlns="http://www.w3.org/2000/svg" width="802.667" height="237.333"><defs><clipPath id="a" clipPathUnits="userSpaceOnUse"><path d="M2078.04 528.648h1863.92v1070H2078.04z"/></clipPath></defs><path fill="#fff" d="M802.667 237.333H0V0h802.667v237.333"/><g clip-path="url(#a)" transform="matrix(.13333 0 0 -.13333 0 237.333)"><path fill="#eb1e2d" d="M2655.49 1210.18c-2.08.05-4.15.16-6.23.16-172.55.01-345.11.01-517.67.01h-6.23c-.12.21-.25.42-.38.63 1.4.75 2.76 1.57 4.19 2.26 72.05 34.89 144.12 69.75 216.18 104.64 154.9 75 309.8 150 464.67 225.07 3.16 1.53 5.85 1.76 9.2.71 262.75-81.85 525.52-163.62 788.3-245.4 91.98-28.62 183.95-57.24 275.92-85.87 1.22-.38 2.39-.91 3.52-2.04h-4.99c-308.61 0-617.23 0-925.84-.01-1.92 0-3.85-.1-5.77-.15-1.63.06-3.26.17-4.89.17-95.18.01-190.37.01-285.55 0-1.48 0-2.96-.12-4.43-.18"/><path fill="#211c1d" d="M2811.25 1034.36c-.23 0-.47 0-.71.01-8.2-48.901-16.41-97.8-24.63-146.776h48.21c-7.66 49.176-15.27 97.972-22.87 146.766m-155.76 175.82c1.47.06 2.95.18 4.43.18 95.19.01 190.37.01 285.55 0 1.63 0 3.26-.11 4.89-.17 1.99-20.8 3.99-41.6 5.96-62.41 1.91-20.06 3.78-40.14 5.69-60.2 1.94-20.36 3.92-40.71 5.86-61.07 1.92-20.06 3.79-40.135 5.7-60.197 1.94-20.36 3.91-40.715 5.85-61.075 1.92-20.066 3.81-40.133 5.72-60.199 1.96-20.508 3.95-41.012 5.91-61.516 1.9-19.921 3.77-39.843 5.66-59.761 1.95-20.5 3.94-41.012 5.89-61.524 1.91-20.058 3.79-40.129 5.69-60.187.3-3.09.62-6.18.95-9.563h-146.65c-5.95 51.481-11.89 102.91-17.84 154.391h-73.05c-4.76-51.488-9.51-102.918-14.28-154.488h-148.35c.88 12.07 1.72 23.98 2.61 35.89 1.63 21.879 3.3 43.758 4.96 65.641 1.67 22.027 3.36 44.047 5.01 66.078 1.61 21.438 3.17 42.879 4.79 64.316 1.65 22.032 3.35 44.051 5 66.082 1.62 21.438 3.18 42.879 4.79 64.317 1.65 22.027 3.35 44.051 5.01 66.075 1.6 21.3 3.17 42.59 4.77 63.88 1.66 22.17 3.36 44.35 5.02 66.52 1.31 17.45 2.59 34.9 3.89 52.35.17 2.21.38 4.42.57 6.64m-281.81-467.821h42.352v119.867h-42.352zm42.25 292.871h-42.168V915.488h42.168zm164.49-442.871h-351.65v584.291h355.51v-4.83c0-79.23-.03-158.47.08-237.707.01-3.363-1.13-5.34-3.65-7.379-16.04-12.929-31.95-26.027-48.23-39.343 10.85-9.098 21.49-18.028 32.13-26.953 4.55-3.809 9.21-7.497 13.59-11.481 1.24-1.133 2.4-3.141 2.4-4.742.11-83.395.1-166.785.09-250.176 0-.418-.14-.84-.27-1.68m696.87 586.311h142.58V964.238h42.69v211.102h142.87V591.57h-141.06v213.782h-46.2c-.57-70.981-1.13-141.813-1.7-212.891h-139.18m-39.71 446.719h-51.18V735.73h54.77V592.5h-205.04v587.07h201.45m405.44-2.79h146.53V723.129h53.54V593.488h-198.21l-1.86 583.292"/></g><g fill="#1f1c1c" font-family="SegoeUI" font-size="13.883"><text style="-inkscape-font-specification:SegoeUI" font-weight="400" transform="translate(295.46 180.059) scale(1.33333)"><tspan x="0 9.857 17.992 23.879 30.154 33.514 41.691 48.952 53.661 60.922 64.282 71.542 77.429" y="0">Hőszigetelés</tspan></text><text style="-inkscape-font-specification:SegoeUI-Semibold" font-weight="600" transform="translate(403.778 180.059) scale(1.33333)"><tspan x="0 12.297 15.924 24.024 32.39 39.765 47.865 55.152 58.779 66.88 74.255" y="0">mindenkinek</tspan></text></g></svg>