<svg xmlns="http://www.w3.org/2000/svg" fill-rule="evenodd" stroke-linejoin="round" stroke-miterlimit="2" clip-rule="evenodd" viewBox="0 0 405 128"><defs/><path fill="#231f20" fill-rule="nonzero" d="M243.7 34.5H234v88.7h89.4v-9.8h-79.7v-79zM105.2 87.5c-.2 3.5-.5 6.8-1 10-1 8.3-3.5 16.3-8 20.4-5.4 5-10.4 7-23.3 8.4-9.7 1-28.3.7-33.9.4-12-.7-20.6-1.6-26-5.7-9-6.5-11.5-16-12.8-34.2-.2-2-.2-3-.2-8.2 0-8.4 1.2-26 7.1-34.4 6-8.6 16-9.9 22.4-10.8 9-1.3 25.9-1.7 39.7-.6 5 .4 14.2 1.4 19.2 3.6 5.4 2.4 11.6 6.5 14.2 18 1.2 5 1.9 10 2.3 15.2H94.4c-.1-1.8-.3-3.4-.6-5-.9-6-2.2-13.1-6.2-16.7-4-3.4-8.1-4.5-11.4-5-3.8-.6-13.3-1.2-22.9-1.2-10.7.1-23.2.8-28.2 2.3a16 16 0 00-10.8 9.2A77.9 77.9 0 0010.4 78c.1 9 .7 16.4 1.9 21.3 1.4 6.4 3.3 11.9 10.6 15.5 4.7 2.4 20.9 2.8 31.1 2.6 17.9-.2 24-1.3 28-2.7a15 15 0 009.6-9.2c2.1-5.5 3-16.5 3-16.5v-1.6h10.6z"/><path fill="#231f20" fill-rule="nonzero" d="M78.8 69.6c-.2-2.6-.6-4.8-.9-5.9-.9-3.1-2.1-4.8-5.5-5.9-3.4-1-9.8-1.6-18.4-1.6-10.3 0-18.7.7-21.8 1.9-3 1.1-4.3 3-5.2 6.2-.9 3-1.4 9-1.5 13.3 0 5 .5 10.5 1 13.6.7 5 1.7 7.4 3.4 8.7 1.6 1.4 4 2 8 2.4 4.8.5 7.4.4 14.9.4s16.8-.4 19.8-1.3c3.6-1.1 4.9-3.6 5.6-6.5a48 48 0 001-7.4h10.6a63 63 0 01-2.8 15.6 12.4 12.4 0 01-9.7 7.8c-5.6 1.2-18 1.7-25.8 1.7-11.7 0-20.1-.6-23.7-1.6-3.8-1.1-7-3-9-7.5a64.4 64.4 0 01-3.5-23.7c0-2 0-4.3.2-8.1C15.9 66 17 59 19 55.2c2.2-4.2 5.3-6 11-7a200.8 200.8 0 0145.4-.1c3.9.5 8.8 1.6 11.4 8.5 1.3 3.4 2.2 7.6 2.7 13H78.8z"/><path fill="#231f20" d="M211.7 89s-.9 11-3 16.5c-2 5-5.5 7.9-10 9.3-4.2 1.3-10.6 2.4-29.3 2.7-10.6.1-27.5-.3-32.4-2.6-7.6-3.7-9.6-9.2-11.1-15.6-1.2-5-1.8-12.4-2-21.5 0-7.6 1.8-20.5 4-25 2.3-4.3 5-7.2 11.4-9.2a145 145 0 0129.4-2.3c10 0 20 .5 23.9 1.2a23 23 0 0111.9 5c4.1 3.6 5.5 10.8 6.5 16.8a107 107 0 01.7 24.7zm-98.6-10.6c0-8.5 1.2-26.1 7.4-34.7 6.3-8.5 16.7-9.8 23.4-10.8 9.4-1.3 27-1.7 41.4-.6 5.3.4 14.8 1.5 20 3.7A23.5 23.5 0 01220 54c3.5 14.6 3.4 30.5 1.8 43.3-1.1 8.4-3.8 16.4-8.5 20.6-5.5 5-10.8 7-24.3 8.4-10.1 1-29.5.7-35.3.4-12.6-.7-21.5-1.6-27.2-5.7-9.3-6.5-11.9-16-13.3-34.4a92 92 0 01-.2-8.2z"/><path fill="#231f20" d="M141.3 64c1-3.1 2.2-5.1 5.4-6.2a89 89 0 0122.8-2c8.9 0 15.5.7 19 1.7 3.6 1 5 2.8 5.9 5.9.7 2.4 1.5 9.8 1.5 16 0 6.1-.4 11.8-1.3 15.3-.7 3-2 5.5-5.8 6.6-3 1-12.8 1.3-20.6 1.3-7.8 0-10.5 0-15.5-.4-4.2-.5-6.7-1-8.4-2.4-1.8-1.4-2.8-3.7-3.6-8.8a88 88 0 01-1-13.6c.1-4.4.6-10.3 1.6-13.4zm-12 7.4c.3-5.7 1.6-12.8 3.7-16.6 2.4-4.1 5.5-6 11.5-7a215.8 215.8 0 0147.3-.1c4 .5 9.3 1.6 12 8.6 2 5.1 3 11.8 3.2 22.1.2 9.3-1.4 20.3-3.2 24.6-1.6 3.8-4.6 6.7-10.1 7.8-5.8 1.2-18.8 1.8-27 1.8-12 0-20.8-.7-24.6-1.7-4-1-7.4-2.9-9.4-7.5a62.6 62.6 0 01-3.7-23.8c0-2.1 0-4.3.2-8.2z"/><path fill="#231f20" fill-rule="nonzero" d="M351.8 10.3l-25 25h14l17.9-18-7-7zM253.8 108.4L304 58.2h13.6l-40.4 40.4h46.2v9.8h-69.6zM248.8 34.4h9.7v48.3L283 58.2h13.6l-47.8 47.9V34.4zM341.3 0L306 35.2h13.9L348 6.9 341.3 0z"/><path fill="#231f20" fill-rule="nonzero" d="M282.3 49.2h58.4v74H331V59h-48.7v-9.8zM355.5 59h48.7v-9.8h-58.4v74h9.7V59zM282.3 34.4h122V44h-122z"/></svg>