<svg xmlns="http://www.w3.org/2000/svg" xmlns:xlink="http://www.w3.org/1999/xlink" viewBox="0 0 709 73"><defs><path id="a" d="M7.5 66.2h101.2V7.9H7.5v58.3zm29.7-51.8H79v13H37.2v-13zm22.6 16.2h41.9v13H59.8v-13zm-45.3 0h41.8v13H14.5v-13zm22.7 16.2H79v12.9H37.2v-13z"/><path id="b" d="M136 8v58.2h11.6V42.3H167v-10h-19.4V18h20.3V8h-32z"/><path id="c" d="M203.8 66.2v-4.4h-.2c-3.1 4-7.1 5.8-11.5 5.8-11.2 0-19.9-5.5-19.9-19.5V22.5h11.3v22.6c0 8.5 3 12.9 9.8 12.9 6.6 0 9.5-5.2 9.5-12.8V22.5h11.3v43.7h-10.3z"/><path id="d" d="M253 66.2v-22c0-8.9-3-13.6-9.4-13.6-3.5 0-9.8 2.1-9.8 11.7v23.9h-11.3V22.5H233v3.8a18 18 0 0113-5.3c6.1 0 18.4 3.6 18.4 19.4v25.8h-11.2z"/><path id="e" d="M309.3 44.3c0-7.2-6-13.7-14-13.7-7.1 0-13.9 6.1-13.9 13.4a13.9 13.9 0 0027.9.3m0 21.9v-5.4h-.1c-3 4.4-8.8 6.8-15 6.8-13.2 0-24-10.2-24-23.2A23.8 23.8 0 01294.4 21c5.7 0 9.9 1.5 14 5.4V8h11.3v58.2h-10.3z"/><path id="f" d="M364.3 44.2c0-7.6-5.7-13.6-13.9-13.6-7.8 0-13.9 6.1-13.9 14 0 7.2 6 13.4 14 13.4 8.3 0 13.8-6.3 13.8-13.8m.3 22v-5.5c-3.7 4.1-10.7 6.9-16.5 6.9A22.7 22.7 0 01325.2 44 23 23 0 01348.8 21a21 21 0 0115.6 7h.2v-5.5H375v43.7h-10.4z"/><path id="g" d="M442.4 66.2V41.6c0-7-2.8-11-8.5-11-3.8 0-9.9 1.7-9.9 11.6v24h-11.3V41.6c0-6.5-3-11-9.3-11-6 0-9 3.5-9 13.3v22.3H383V22.5h10.3v3.7h.2c2.3-3.4 6.8-5.2 12.3-5.2a16 16 0 0113.6 6.9c3.8-5 8.8-6.9 15.1-6.9 10 0 19.1 5.5 19.1 18.9v26.3h-11.3z"/><path id="h" d="M497.2 40.6c-1.1-6.3-5.8-10-12.8-10a13 13 0 00-13.3 10h26zM471.5 49c.8 3.9 6 9 13 9 4.6 0 8.5-1.8 10.8-5.6h11.9a24.4 24.4 0 01-22.8 15.2c-14.1 0-24.8-10.2-24.8-23.1 0-13 10.4-23.5 24.8-23.5 13.6 0 24.3 10 24.3 22.7 0 1.7-.2 3.4-.7 5.3h-36.5z"/><path id="i" d="M545.2 66.2v-22c0-8.9-3.1-13.6-9.5-13.6-3.5 0-9.8 2.1-9.8 11.7v23.9h-11.3V22.5h10.5v3.8a18 18 0 0113-5.3c6 0 18.4 3.6 18.4 19.4v25.8h-11.3z"/><path id="j" d="M566.3 8v14.5h-5.5v9.3h5.5v34.4h11.3V31.8h6.8v-9.3h-6.8V7.9h-11.3z"/><path id="k" d="M623.9 44.8c0-7.7-5.7-13.7-13.8-13.7-8 0-14 6.2-14 14 0 7.3 6 13.4 14 13.4 8.3 0 13.8-6.3 13.8-13.8m.3 22v-5.4c-3.7 4-10.7 6.8-16.5 6.8a22.6 22.6 0 01-22.8-23.5 23 23 0 0123.6-23 21 21 0 0115.6 7h.1V23h10.4v43.7h-10.4z"/></defs><use fill="#231f20" xlink:href="#a"/><use fill-opacity="0" stroke="#000" stroke-opacity="0" xlink:href="#a"/><use fill="#231f20" xlink:href="#b"/><use fill-opacity="0" stroke="#000" stroke-opacity="0" xlink:href="#b"/><use fill="#231f20" xlink:href="#c"/><use fill-opacity="0" stroke="#000" stroke-opacity="0" xlink:href="#c"/><use fill="#231f20" xlink:href="#d"/><use fill-opacity="0" stroke="#000" stroke-opacity="0" xlink:href="#d"/><use fill="#231f20" xlink:href="#e"/><use fill-opacity="0" stroke="#000" stroke-opacity="0" xlink:href="#e"/><use fill="#231f20" xlink:href="#f"/><use fill-opacity="0" stroke="#000" stroke-opacity="0" xlink:href="#f"/><g><use fill="#231f20" xlink:href="#g"/><use fill-opacity="0" stroke="#000" stroke-opacity="0" xlink:href="#g"/></g><g><use fill="#231f20" xlink:href="#h"/><use fill-opacity="0" stroke="#000" stroke-opacity="0" xlink:href="#h"/></g><g><use fill="#231f20" xlink:href="#i"/><use fill-opacity="0" stroke="#000" stroke-opacity="0" xlink:href="#i"/></g><g><use fill="#231f20" xlink:href="#j"/><use fill-opacity="0" stroke="#000" stroke-opacity="0" xlink:href="#j"/></g><g><use fill="#231f20" xlink:href="#k"/><use fill-opacity="0" stroke="#000" stroke-opacity="0" xlink:href="#k"/></g></svg>