<?xml version="1.0" encoding="UTF-8" standalone="no"?>
<!DOCTYPE svg PUBLIC "-//W3C//DTD SVG 1.1//EN" "http://www.w3.org/Graphics/SVG/1.1/DTD/svg11.dtd">
<svg version="1.1" xmlns="http://www.w3.org/2000/svg" xmlns:xlink="http://www.w3.org/1999/xlink" preserveAspectRatio="xMidYMid meet" viewBox="0 0 709 73" width="709" height="73"><defs><path d="M7.51 66.16L108.67 66.16L108.67 7.94L7.51 7.94L7.51 66.16ZM37.16 14.41L79.02 14.41L79.02 27.35L37.16 27.35L37.16 14.41ZM59.83 30.59L101.69 30.59L101.69 43.52L59.83 43.52L59.83 30.59ZM14.48 30.59L56.34 30.59L56.34 43.52L14.48 43.52L14.48 30.59ZM37.16 46.76L79.02 46.76L79.02 59.7L37.16 59.7L37.16 46.76Z" id="dwqckgnWE"></path><path d="M135.93 7.95L135.93 66.16L147.55 66.16L147.55 42.32L166.97 42.32L166.97 32.25L147.55 32.25L147.55 18.02L167.91 18.02L167.91 7.95L135.93 7.95Z" id="aOEP1a91O"></path><path d="M203.77 66.16L203.77 61.76C203.67 61.76 203.61 61.76 203.6 61.76C200.46 65.77 196.47 67.58 192.14 67.58C180.86 67.58 172.21 62.07 172.21 48.14C172.21 46.44 172.21 37.89 172.21 22.5L183.49 22.5C183.49 36.05 183.49 43.57 183.49 45.08C183.49 53.57 186.55 57.98 193.34 57.98C199.87 57.98 202.84 52.79 202.84 45.16C202.84 43.65 202.84 36.09 202.84 22.5L214.12 22.5L214.12 66.16L203.77 66.16Z" id="bya3p9XVI"></path><path d="M253.06 66.16C253.06 52.99 253.06 45.68 253.06 44.21C253.06 35.32 249.92 30.6 243.56 30.6C240.08 30.6 233.8 32.72 233.8 42.32C233.8 43.91 233.8 51.86 233.8 66.16L222.51 66.16L222.51 22.5L232.95 22.5C232.95 24.77 232.95 26.03 232.95 26.28C236.68 22.89 240.5 21.01 245.93 21.01C252.04 21.01 264.34 24.55 264.34 40.36C264.34 42.08 264.34 50.68 264.34 66.16L253.06 66.16Z" id="b4Rx9VgqwG"></path><path d="M309.28 44.29C309.28 37.06 303.26 30.6 295.28 30.6C288.16 30.6 281.45 36.74 281.45 43.98C281.45 51.68 287.56 57.98 295.37 57.98C303.01 57.98 309.28 51.76 309.28 44.29M309.37 66.16L309.37 60.81C309.27 60.81 309.21 60.81 309.2 60.81C306.15 65.22 300.38 67.58 294.18 67.58C281.03 67.58 270.17 57.35 270.17 44.37C270.17 30.53 281.96 21 294.44 21C300.12 21 304.28 22.5 308.44 26.35C308.44 25.13 308.44 18.99 308.44 7.95L319.72 7.95L319.72 66.16L309.37 66.16Z" id="buHIfCyqB"></path><path d="M364.27 44.21C364.27 36.58 358.59 30.6 350.44 30.6C342.55 30.6 336.53 36.74 336.53 44.53C336.53 51.84 342.55 57.98 350.53 57.98C358.76 57.98 364.27 51.68 364.27 44.21M364.61 66.16C364.61 62.9 364.61 61.09 364.61 60.73C360.88 64.82 353.92 67.57 348.07 67.57C334.83 67.57 325.24 57.27 325.24 44.05C325.24 31.39 335.17 21 348.83 21C355.45 21 361.98 24.62 364.44 28.01C364.46 28.01 364.51 28.01 364.61 28.01L364.61 22.5L374.96 22.5L374.96 66.16L364.61 66.16Z" id="arqNi4eyy"></path><path d="M442.45 66.16C442.45 51.43 442.45 43.25 442.45 41.62C442.45 34.69 439.57 30.6 433.88 30.6C430.06 30.6 424.04 32.26 424.04 42.24C424.04 43.84 424.04 51.81 424.04 66.16L412.75 66.16C412.75 51.43 412.75 43.25 412.75 41.62C412.75 35.09 409.62 30.6 403.42 30.6C397.39 30.6 394.34 34.14 394.34 43.9C394.34 45.38 394.34 52.8 394.34 66.16L383.06 66.16L383.06 22.5L393.41 22.5L393.41 26.19C393.51 26.19 393.56 26.19 393.57 26.19C395.87 22.81 400.37 21.01 405.88 21.01C411.56 21.01 416.4 23.45 419.45 27.85C423.27 22.89 428.28 21.01 434.65 21.01C444.65 21.01 453.74 26.51 453.74 39.89C453.74 41.64 453.74 50.4 453.74 66.16L442.45 66.16Z" id="e1UmlP3kJl"></path><path d="M497.17 40.59C496.07 34.3 491.4 30.6 484.36 30.6C478.17 30.6 472.91 33.91 471.12 40.59C476.33 40.59 491.96 40.59 497.17 40.59ZM471.46 49.01C472.32 52.87 477.49 57.98 484.45 57.98C489.11 57.98 493.01 56.25 495.31 52.39C496.5 52.39 506 52.39 507.19 52.39C504.13 61.21 494.46 67.58 484.45 67.58C470.28 67.58 459.58 57.35 459.58 44.45C459.58 31.54 470.02 21.01 484.36 21.01C498.02 21.01 508.71 30.99 508.71 43.74C508.71 45.39 508.46 47.12 508.03 49.01C500.72 49.01 478.78 49.01 471.46 49.01Z" id="f1NonrGWdc"></path><path d="M545.2 66.16C545.2 52.99 545.2 45.68 545.2 44.21C545.2 35.32 542.06 30.6 535.7 30.6C532.22 30.6 525.94 32.72 525.94 42.32C525.94 43.91 525.94 51.86 525.94 66.16L514.65 66.16L514.65 22.5L525.09 22.5C525.09 24.77 525.09 26.03 525.09 26.28C528.82 22.89 532.64 21.01 538.07 21.01C544.18 21.01 556.48 24.55 556.48 40.36C556.48 42.08 556.48 50.68 556.48 66.16L545.2 66.16Z" id="d5ZJSD0r0F"></path><path d="M566.32 7.95L566.32 22.5L560.81 22.5L560.81 31.78L566.32 31.78L566.32 66.16L577.61 66.16L577.61 31.78L584.4 31.78L584.4 22.5L577.61 22.5L577.61 7.95L566.32 7.95Z" id="d1TC09E1Ms"></path><path d="M623.9 44.75C623.9 37.12 618.21 31.14 610.07 31.14C602.18 31.14 596.15 37.27 596.15 45.06C596.15 52.38 602.18 58.51 610.15 58.51C618.38 58.51 623.9 52.22 623.9 44.75M624.24 66.69C624.24 63.44 624.24 61.63 624.24 61.27C620.51 65.36 613.55 68.11 607.69 68.11C594.46 68.11 584.87 57.81 584.87 44.59C584.87 31.92 594.8 21.54 608.46 21.54C615.07 21.54 621.61 25.16 624.07 28.54C624.08 28.54 624.14 28.54 624.24 28.54L624.24 23.04L634.59 23.04L634.59 66.69L624.24 66.69Z" id="fedZZClWR"></path></defs><g><g><g><use xlink:href="#dwqckgnWE" opacity="1" fill="#231f20" fill-opacity="1"></use><g><use xlink:href="#dwqckgnWE" opacity="1" fill-opacity="0" stroke="#000000" stroke-width="1" stroke-opacity="0"></use></g></g><g><use xlink:href="#aOEP1a91O" opacity="1" fill="#231f20" fill-opacity="1"></use><g><use xlink:href="#aOEP1a91O" opacity="1" fill-opacity="0" stroke="#000000" stroke-width="1" stroke-opacity="0"></use></g></g><g><use xlink:href="#bya3p9XVI" opacity="1" fill="#231f20" fill-opacity="1"></use><g><use xlink:href="#bya3p9XVI" opacity="1" fill-opacity="0" stroke="#000000" stroke-width="1" stroke-opacity="0"></use></g></g><g><use xlink:href="#b4Rx9VgqwG" opacity="1" fill="#231f20" fill-opacity="1"></use><g><use xlink:href="#b4Rx9VgqwG" opacity="1" fill-opacity="0" stroke="#000000" stroke-width="1" stroke-opacity="0"></use></g></g><g><use xlink:href="#buHIfCyqB" opacity="1" fill="#231f20" fill-opacity="1"></use><g><use xlink:href="#buHIfCyqB" opacity="1" fill-opacity="0" stroke="#000000" stroke-width="1" stroke-opacity="0"></use></g></g><g><use xlink:href="#arqNi4eyy" opacity="1" fill="#231f20" fill-opacity="1"></use><g><use xlink:href="#arqNi4eyy" opacity="1" fill-opacity="0" stroke="#000000" stroke-width="1" stroke-opacity="0"></use></g></g><g><use xlink:href="#e1UmlP3kJl" opacity="1" fill="#231f20" fill-opacity="1"></use><g><use xlink:href="#e1UmlP3kJl" opacity="1" fill-opacity="0" stroke="#000000" stroke-width="1" stroke-opacity="0"></use></g></g><g><use xlink:href="#f1NonrGWdc" opacity="1" fill="#231f20" fill-opacity="1"></use><g><use xlink:href="#f1NonrGWdc" opacity="1" fill-opacity="0" stroke="#000000" stroke-width="1" stroke-opacity="0"></use></g></g><g><use xlink:href="#d5ZJSD0r0F" opacity="1" fill="#231f20" fill-opacity="1"></use><g><use xlink:href="#d5ZJSD0r0F" opacity="1" fill-opacity="0" stroke="#000000" stroke-width="1" stroke-opacity="0"></use></g></g><g><use xlink:href="#d1TC09E1Ms" opacity="1" fill="#231f20" fill-opacity="1"></use><g><use xlink:href="#d1TC09E1Ms" opacity="1" fill-opacity="0" stroke="#000000" stroke-width="1" stroke-opacity="0"></use></g></g><g><use xlink:href="#fedZZClWR" opacity="1" fill="#231f20" fill-opacity="1"></use><g><use xlink:href="#fedZZClWR" opacity="1" fill-opacity="0" stroke="#000000" stroke-width="1" stroke-opacity="0"></use></g></g></g></g></svg>