<svg xmlns="http://www.w3.org/2000/svg" height="1333.333" width="1333.333"><defs><clipPath id="a" clipPathUnits="userSpaceOnUse"><path d="M0 1000h1000V0H0z"/></clipPath><clipPath id="b" clipPathUnits="userSpaceOnUse"><path d="M2.161 461.957h714.408v432.747H2.161z"/></clipPath></defs><g clip-path="url(#a)" transform="matrix(1.33333 0 0 -1.33333 0 1333.333)"><path d="M375.35 347.45c0-12.173-3.172-23.699-21.033-23.699-10.404 0-18.032 4.84-20.163 15.345l13.294 3.243c.374-3.153 3.344-5.769 6.506-5.769 6.778 0 6.869 7.536 6.869 12.466v42.207h14.527zm44.448 45.474c20.538 0 35.519-13.477 35.519-34.59 0-21.093-14.981-34.59-35.52-34.59-20.546 0-35.518 13.497-35.518 34.59 0 21.113 14.972 34.59 35.519 34.59m0-55.773c12.365 0 20.447 8.919 20.447 21.183 0 12.284-8.082 21.204-20.447 21.204-12.365 0-20.467-8.92-20.467-21.204 0-12.264 8.102-21.183 20.467-21.183m.09 72.229h18.972l-16.082-13.385h-12.264zm77.859-34.218c-2.323 2.98-6.98 4.374-10.516 4.374-4.071 0-9.76-1.849-9.76-6.788 0-12 30.318-4.283 30.318-27.326 0-14.689-11.81-21.68-25.377-21.68-8.465 0-15.911 2.526-22.134 8.284l10.315 11.355c2.98-3.919 7.809-6.233 12.627-6.233 4.758 0 10.062 2.243 10.062 6.88 0 12.072-30.862 5.576-30.862 27.508 0 14.031 12.173 21.386 25.094 21.386 7.445 0 14.587-1.95 20.174-6.869zm17.407-36.349l33.367 39.61h-32.165v12.821H566.1v-12.82l-32.73-39.61h33.842v-13.376h-52.057zm94.006 54.111c20.558 0 35.52-13.477 35.52-34.59 0-21.093-14.962-34.59-35.52-34.59-20.538 0-35.509 13.497-35.509 34.59 0 21.113 14.971 34.59 35.51 34.59m0-55.773c12.384 0 20.476 8.919 20.476 21.183 0 12.284-8.092 21.204-20.477 21.204-12.355 0-20.437-8.92-20.437-21.204 0-12.264 8.082-21.183 20.437-21.183m45.972 54.095h14.506v-52.43h26.872v-13.385h-41.378zm108.981-61.158c-8.547-4.476-17.94-6.345-27.6-6.345-20.537 0-35.518 13.497-35.518 34.59 0 21.113 14.981 34.59 35.518 34.59 10.396 0 19.61-2.323 26.205-8.476l-10.233-11.142c-3.89 4.09-8.647 6.232-15.972 6.232-12.364 0-20.466-8.92-20.466-21.204 0-12.264 8.102-21.183 20.466-21.183 6.315 0 10.952 1.767 13.65 3.242v10.698h-11.8v13.386h25.75zm40.667 79.295l-9.385-13.395h12.264l16.072 13.395zm-6.233-18.143l-28.458-65.805h16.002l5.485 13.95h25.568l5.678-13.95h16.355l-28.619 65.805zm5.566-19.143l8.092-20.457h-16.072zm42.248 19.149h14.526v-52.43h26.863v-13.385h-41.389zm71.047 0H929.4l28.65-65.815h-16.356l-5.687 13.951h-25.558l-5.485-13.95h-16.002zm5.587-19.153l-8-20.448h16.081zm27.11 19.152v-12.83h18.77V325.44h14.497v52.976h18.79v12.83zM397.806 279.924h-13.587l1.07 3.809 29.468 1.08-21.69-96.192c-.292-1.515.769-3.506 2.608-3.506 5.182 0 12.516 12.063 14.193 16.488l2.748-1.374c-4.122-10.073-11.76-21.983-23.962-21.983-7.638 0-10.082 4.274-10.7 11.446-5.494-7.021-10.98-11.446-20.304-11.446-14.648 0-23.508 9.92-23.508 24.578 0 15.265 13.133 33.893 27.78 37.864 3.214.919 4.89 1.22 8.255 1.22 7.94 0 13.587-3.666 16.638-10.838zm-38.782-97.86c9.93 0 15.88 7.325 19.244 15.872 3.05 7.636 6.254 19.395 6.254 27.477 0 7.788-4.738 12.678-12.517 12.678-9.92 0-14.203-12.365-16.648-20.153-2.435-7.627-5.334-19.538-5.334-27.327 0-5.344 4.122-8.546 9-8.546m59.981 55.112l1.07 3.818h14.043c2.445 0 4.727.152 7.02.304 2.294.15 4.739.303 7.022.303l-10.224-43.965c-.767-3.212-2.141-7.637-2.141-9.314 0-2.293 1.222-3.364 3.354-3.364 6.566 0 11.758 12.062 14.658 16.95l3.364-1.221c-2.9-5.96-6.112-11.607-10.537-16.487-3.667-3.97-9.465-6.566-14.81-5.96-6.101.768-10.99 3.516-10.99 10.537 0 1.374.302 5.192 1.222 9.163l9 39.236zm19.073 18.932c-1.677-1.072-5.647-.153-7.78-.455l14.659 15.264c7.324 7.476 10.84 11.597 14.204 11.597 3.04 0 6.1-2.9 6.1-5.95 0-3.202.305-3.051-14.656-12.517z" fill="#242839"/><path d="M485.71 203.128c-2.605-12.063-5.04-25.498-9.768-36.943-4.121-10.386-13.284-21.376-25.346-21.376-7.182 0-14.507 2.293-14.507 10.687 0 3.667 3.668 7.022 7.173 7.022 3.97 0 7.334-1.981 7.334-6.254 0-2.293-.92-2.747-.92-4.738 0-1.525 1.375-3.203 3.052-2.9 2.596.455 3.818 2.132 4.738 4.426 4.12 9.466 8.394 31.144 10.678 42.297l8.859 41.823H464.94l1.07 3.818h14.043c2.445 0 4.738.152 7.03.303 2.284.152 4.729.314 7.022.314zm4.416 59.39c-4.728 0-8.698 4.122-8.698 8.859 0 4.577 4.283 8.698 8.698 8.698 4.435 0 8.87-3.97 8.87-8.698 0-4.89-4.132-8.86-8.87-8.86m48.702-112.005h-5.061v113.057h5.061z" fill="#242839"/><path d="M579.868 185.564v11.888l23.44 21.239c2.974 2.802 4.927 5.603 4.927 9.254 0 4.252-2.973 7.222-7.472 7.222-4.76 0-7.903-3.74-8.495-9.086l-13.672 1.864c1.356 12.144 11.207 19.366 22.931 19.366 11.04 0 21.743-5.86 21.743-18.43 0-8.583-5.01-13.594-10.53-18.517l-13.93-12.4h24.544v-12.4zm77.162 49.681c-7.563 0-9.003-11.888-9.003-19.444 0-7.736 1.44-19.623 9.002-19.623 7.474 0 8.835 11.887 8.835 19.623 0 7.556-1.36 19.444-8.835 19.444m0-51.3c-17.07 0-23.612 14.78-23.612 31.856 0 16.987 6.541 31.51 23.612 31.51 16.988 0 23.44-14.523 23.44-31.51 0-17.077-6.452-31.856-23.44-31.856m50.576 1.619v44.167l-11.212-8.662-7.39 10.102 19.79 14.522h13.082v-60.13zm51.427 0H742.47l24.376 47.905h-28.452v12.224h43.655v-11.376z" fill="#f69651"/></g><g clip-path="url(#b)" transform="matrix(1.33333 0 0 -1.33333 0 1333.333)" fill="#f69651"><path d="M703.48 849.388c-2.076 2.36-51.232 57.59-110.474 42.805-28.639-7.15-118.648-45.294-121.922-46.718l49.425-13.657c.801.323 53.942 23.193 80.158 29.744 25.545 6.362 50.28-8.35 65.082-20.13-16.777-11.67-40.582-31.459-51.697-55.92-6.938-15.274-11.838-36.08-17.486-60.168-7.736-33.129-16.583-70.718-32.11-96.02-37.924-61.594-93.219-96.72-136.638-116.088 16.87 22.591 30.28 52.432 30.072 89.164-.36 64.862 41.15 85.617 41.15 85.617s-36.507 32.213-65.392 39.866c-47.828 12.65-106.038-6.223-152.395-62.322-21.174-25.603-75.799-65.32-107.92-78.494L218 576.597c30.046 5.853 73.231 51.29 88.061 69.441 39.81 48.782 87.894 59.981 119.218 51.386 8.136-2.204 17.717-6.938 25.88-11.553-13.32-14.339-25.817-36.1-24.863-84.052 1.883-93.457-107.378-135.504-107.378-135.504s15.965-6.278 48.421-3.763c28.834 2.236 148.22 19.768 225.474 148.52 32.2 53.69 42.18 132.4 50.458 152.46 12.251 29.75 43.857 55.14 55.733 61.517l17.564 9.374z"/><path d="M615.793 829.807c0-7.505-6.073-13.585-13.578-13.585-7.506 0-13.579 6.08-13.579 13.585 0 7.499 6.073 13.579 13.579 13.579 7.505 0 13.578-6.08 13.578-13.58M409.547 663.684c0-7.499-6.073-13.585-13.579-13.585-7.505 0-13.578 6.086-13.578 13.585 0 7.5 6.073 13.58 13.578 13.58 7.506 0 13.58-6.08 13.58-13.58m117.888 106.128c-87.431 63.593-187.498 65.483-262.921 18.222l.026-.014L2.16 627.197l50.873-11.933 229.495 141.11-.026.034C344.49 791.7 426.375 799.762 512.606 743.1l12.92-8.196 14.662 25.409z"/></g></svg>