<svg xmlns="http://www.w3.org/2000/svg" fill-rule="evenodd" stroke-linejoin="round" stroke-miterlimit="2" clip-rule="evenodd" viewBox="0 0 1679 330"><defs/><path fill="#fab70a" fill-rule="nonzero" d="M15.2 95.7l-.3.5.6-.5h-.3M61 50.2l-13.5 1.6-13.1 13.1 13.4-1.5 13.1-13.2M70.5 40.7l13.2-13.2-12 1.4-4.3 3L57 42.2l13.4-1.5M38.2 73l-11 1.2a165 165 0 00-7.5 12.5l5.4-.6 13.1-13.2M93.2 18l3-3c-2.4 1-4.8 2.2-7.1 3.4l4.1-.5"/><path fill="#fdde10" fill-rule="nonzero" d="M125.1 14.2l12-11.8c-5.2.8-10.3 2-15.3 3.3l-10.1 10.1 13.4-1.6M115.6 23.8L102 25.4 89 38.5l13.4-1.5 13.2-13.2M11.6 127.8l13.1-13.1-13.4 1.5-5.6 5.6-1.7 6.9 7.6-.9M79.7 59.7L93 46.5l-13.5 1.6-13.1 13.1 13.4-1.5M47.4 92L34 93.5l-13.2 13.2 13.5-1.6L47.4 92M56.7 70.8L43.6 84 57 82.4 70 69.2l-13.4 1.6"/><path fill="#fab20b" fill-rule="nonzero" d="M0 164.9v2.7l11.2-11.2-11 1.3-.2 7.2M134.3 33.3L147.5 20 134 21.7 121 34.8l13.4-1.5M20.8 146.8l13.1-13.1-13.4 1.5-13.2 13.2 13.5-1.6M79.3 88.3L66 89.8 52.7 103l13.5-1.6 13.1-13.1M102 65.5l-13.4 1.6-13.1 13.2 13.4-1.6 13.2-13.2M56.6 111l-13.4 1.5L30 125.7l13.5-1.6L56.6 111M98.2 57.5l13.4-1.5 13.2-13.2-13.5 1.6-13.1 13.1M157 10.5L167.6 0h-2.7c-3.2 0-6.3.1-9.5.3L143.6 12l13.4-1.6"/><path fill="#f57f13" fill-rule="nonzero" d="M88.5 107.3l-13.4 1.5L61.9 122l13.5-1.6 13.1-13.1M29.7 154.3l-13.2 13.1L30 166l13.2-13.2-13.4 1.6M52.4 131.5l-13.2 13.2 13.5-1.6L65.8 130l-13.4 1.5M152.8 31.1l13.4-1.5 13.2-13.2L166 18 152.8 31M120.8 75L134 61.8l-13.5 1.6-13.1 13.1 13.4-1.5M111.2 84.6L97.8 86 84.7 99.3 98 97.7l13.1-13.1M143.5 52.3L156.7 39l-13.5 1.6-13.1 13.1 13.4-1.5M189 6.8l4.3-4.3C190 1.9 186.4 1.4 183 1l-7.4 7.4L189 6.8M7 177l-6 6 .8 6.2 5.4-.6 13.2-13.2L6.9 177"/><path fill="#f9a80d" fill-rule="nonzero" d="M198.2 25.9l13.1-13.2-13.4 1.6-13.2 13.1 13.5-1.5M152.7 71.3L166 58l-13.5 1.6-13.1 13.1 13.4-1.5M61.6 150.6l-13.2 13.1 13.5-1.5L75 149l-13.4 1.6M84.3 127.8L71 141l13.5-1.6 13.1-13.1-13.4 1.5M175.4 48.6l13.2-13.2-13.4 1.6L162 50l13.4-1.5M130 94L143.2 81l-13.5 1.5-13.1 13.2L130 94M52.3 171.7l-13.4 1.6-13.2 13.1 13.4-1.5 13.2-13.2M107 105.1L94 118.3l13.4-1.6 13.1-13.1L107 105M16.1 196L5.4 206.8c.8 3 1.7 6.1 2.7 9.1l21.5-21.5L16 196"/><path fill="#ce9e18" fill-rule="nonzero" d="M139 101.4l-13.2 13.2 13.4-1.6 13.2-13.1-13.5 1.5M70.8 169.6l-13.2 13.1 13.5-1.5L84.2 168l-13.4 1.6M207.3 44.9l13.2-13.2-13.4 1.6-13.2 13.1 13.4-1.5M107 145.3l-13.5 1.6L80.3 160l13.5-1.5 13.1-13.2M184.6 67.6l13.2-13.2-13.5 1.6-13.1 13.1 13.4-1.5M236 16.1c-2.6-1.3-5.4-2.5-8.1-3.6l-11.3 11.2 13.5-1.5 6-6M48 192.3l-35.5 35.6c1.1 2.7 2.3 5.5 3.6 8.2l45.4-45.4-13.4 1.6M162 90.3l13-13.1-13.4 1.5L148.5 92l13.4-1.6M116.2 124.1L103 137.3l13.5-1.6 13.1-13.1-13.4 1.5"/><path fill="#f1511b" fill-rule="nonzero" d="M161.5 118.9l-13.4 1.5-13.1 13.2 13.4-1.6 13.1-13.1M102.7 165.9L89.5 179l13.5-1.5 13.1-13.2-13.4 1.6M216.5 63.9l13.2-13.2-13.4 1.6L203 65.4l13.4-1.5M170.8 97.7L157.7 111l13.4-1.6 13.2-13.1-13.5 1.5M80 188.6l-58.2 58.2c1.4 2.5 2.9 5 4.5 7.4L93.4 187 80 188.6M193.8 86.6L207 73.5 193.5 75l-13.1 13.2 13.4-1.6M239.3 41.2L252.4 28 239 29.6l-13.2 13.1 13.5-1.5M125.4 143.2l-13.2 13.1 13.5-1.5 13.1-13.2-13.4 1.6"/><path fill="#72cfc1" fill-rule="nonzero" d="M134.6 162.2l-13.2 13.1 13.5-1.5 13.1-13.2-13.4 1.6M216.2 92.5L202.7 94l-13.1 13.2 13.4-1.6 13.2-13.1M212.3 84.5l13.4-1.6L239 69.8l-13.4 1.5-13.2 13.2M180 116.7L167 130l13.4-1.6 13.2-13.1-13.5 1.5M263.8 33l-6 6 12-1.4-6-4.6M111.9 184.9l-79 78.9 5.3 6.6 87.1-87-13.4 1.5M248.5 60.2L261.6 47l-13.4 1.6L235 61.7l13.5-1.5M157.3 139.5l-13.1 13.1 13.4-1.5 13.1-13.2-13.4 1.6"/><path fill="#b5dc17" fill-rule="nonzero" d="M166.5 158.5l-13.1 13.1 13.4-1.5 13.1-13.2-13.4 1.6M212 113l-13.2 13.2 13.4-1.6 13.2-13.1-13.5 1.5M221.5 103.5l13.4-1.6 13.2-13.1-13.5 1.5-13.1 13.2M189.2 135.8l-13.1 13.1 13.4-1.6 13.2-13.1-13.5 1.6M279 46l-12 12 13.4-1.5 4.6-4.6-6-6M143.8 181.2L45.9 279l6 6 105.3-105.4-13.4 1.6M244.2 80.8l13.5-1.6 13.1-13.1-13.4 1.5-13.2 13.2"/><path fill="#f14624" fill-rule="nonzero" d="M243.8 109.3l-13.1 13.2 13.4-1.6 13.2-13.1-13.5 1.5M253.4 99.8l13.4-1.6L280 85.1l-13.4 1.5-13.2 13.2M221.1 132L208 145.3l13.4-1.6 13.2-13.1-13.5 1.6M289.3 64L276 77l13.5-1.5 8.2-8.2-3-4-5.5.6M198.4 154.8l-13.1 13.1 13.4-1.5 13.1-13.2-13.4 1.6M175.7 177.5l-115.1 115c2.2 1.9 4.4 3.6 6.7 5.3L189 175.9l-13.4 1.6"/><path fill="#ec008c" fill-rule="nonzero" d="M298.5 83l-13.2 13 13.5-1.5 10-10-1.4-2.6-9 1M230.3 151l-13.1 13.2 13.4-1.5 13.2-13.2-13.5 1.6M262.6 118.8l13.4-1.6 13.2-13.1-13.4 1.5-13.2 13.2M207.6 173.8L77 304.4l7.4 4.4L221 172.2l-13.4 1.6M253 128.4L240 141.5l13.4-1.6 13.2-13.1-13.5 1.6"/><path fill="#f2561c" fill-rule="nonzero" d="M285 124.7l-13.2 13.1 13.4-1.6 13.2-13.1-13.5 1.6M262.2 147.4l-13.1 13.1 13.4-1.5 13.2-13.2-13.5 1.6M239.5 170L95.2 314.5l8.3 3.6L253 168.5l-13.5 1.6M307.7 102l-13.2 13 13.5-1.5 10-10-1.1-2.6-9.2 1"/><path fill="#f14624" fill-rule="nonzero" d="M294.1 143.7L281 156.8l13.4-1.5 13.2-13.2-13.5 1.6M271.4 166.4L115.6 322.3c3 1 6.1 1.8 9.2 2.6l160-160-13.4 1.5M303.7 134.1l13.4-1.6 7.7-7.7-1.2-4.6-6.7.8-13.2 13.1"/><path fill="#f1476c" fill-rule="nonzero" d="M303.3 162.7l-165 165c3.6.5 7 1 10.6 1.3L316.8 161l-13.5 1.6M327.9 139.8l-1.8.2-13.2 13.1 13.4-1.5 2.7-2.7-1.1-9.1"/><path fill="#f36318" fill-rule="nonzero" d="M329.8 164.9v-.4L164.4 329.8h.4c4 0 8-.2 11.9-.5l152.5-152.5c.3-4 .5-8 .5-12"/><path fill="#ef3220" fill-rule="nonzero" d="M326.9 195.5L195.5 327c5.3-1 10.6-2.2 15.7-3.7l112-112c1.4-5.1 2.7-10.4 3.7-15.7"/><path fill="#f1511b" fill-rule="nonzero" d="M238 312.7c13.3-6.6 25.6-15 36.6-24.8l13.3-13.3c9.9-11 18.2-23.3 24.8-36.7L238 312.7"/><path fill="#fab70a" fill-rule="nonzero" d="M179.4 16.4l18.5-2.1 8.9-9c-.6 0-1.1-.2-1.6-.3L189 6.8l-9.6 9.6M224.6 11.2C221.8 10 219 9 216 8l-4.6 4.6 13.3-1.5M166 18l9.5-9.6-18.5 2.1-9.5 9.6L166 18M134 21.7l9.6-9.6-18.5 2.1-9.5 9.6 18.4-2.1M111.7 15.8l-18.5 2.1-9.5 9.6 18.4-2.1 9.6-9.6M89 18.4c-6 3.2-11.8 6.7-17.4 10.5l12-1.4 9.6-9.6-4.1.5"/><path fill="#fab70a" fill-rule="nonzero" d="M115.6 23.8l9.5-9.6-13.4 1.6-9.6 9.6 13.5-1.6M147.5 20.1l9.5-9.6-13.4 1.6-9.6 9.6 13.5-1.6M179.4 16.4l9.6-9.6-13.5 1.6L166 18l13.4-1.6M216 8c-3-1-6.1-1.8-9.2-2.6l-9 8.9 13.5-1.6 4.6-4.6"/><path fill="#fdde10" fill-rule="nonzero" d="M120.9 34.8L102.4 37 93 46.5l18.4-2.1 9.6-9.6M175.2 37l9.5-9.6-18.5 2.2-9.5 9.5 18.5-2.1M124.8 42.8l18.4-2.1 9.6-9.6-18.5 2.2-9.5 9.5M207 33.3l9.6-9.6-18.4 2.2-9.6 9.5 18.5-2.1M220.5 31.7l18.5-2.1 7.8-7.8-2.3-1.3-14.4 1.7-9.6 9.5M256.2 27.6l-2-1.3-1.8 1.7 3.8-.4M79.4 48l9.6-9.5-18.5 2.2-9.6 9.5 18.5-2.1M57 42.2l-2.6.3a166 166 0 00-9.8 9.6l3-.3 9.5-9.6"/><path fill="#fdde10" fill-rule="nonzero" d="M70.5 40.7l-13.4 1.5-9.6 9.6L61 50.2l9.6-9.5M102.4 37L89 38.5l-9.6 9.6L93 46.5l9.5-9.5M124.8 42.8l9.5-9.5-13.4 1.5-9.6 9.6 13.5-1.6M156.7 39.1l9.5-9.5-13.4 1.5-9.6 9.6 13.5-1.6M188.6 35.4l9.6-9.5-13.5 1.5-9.5 9.6 13.4-1.6M220.5 31.7l9.6-9.5-13.5 1.5-9.5 9.6 13.4-1.6M254.2 26.3c-2.4-1.6-4.9-3.1-7.4-4.5l-7.8 7.8 13.4-1.6 1.8-1.7"/><path fill="#fab20b" fill-rule="nonzero" d="M270.4 38.2l-8.8 8.8 16.6-1.9c-2.5-2.4-5.1-4.7-7.8-6.9M120.5 63.4l9.6-9.6-18.5 2.2-9.5 9.5 18.4-2.1M66.3 61.2l-18.5 2.2-9.6 9.5 18.5-2.1 9.6-9.6M34.4 65h-.7l-1.8 2.4 2.5-2.5M184.3 56l9.6-9.6-18.5 2.2L166 58l18.4-2.1M216.3 52.3l9.5-9.6-18.5 2.2-9.5 9.5 18.5-2.1M248.2 48.6l9.5-9.6-18.4 2.2-9.6 9.5 18.5-2.1M88.6 67.1l9.6-9.6-18.5 2.2-9.6 9.5 18.5-2.1M152.4 59.7l9.6-9.6-18.5 2.2-9.5 9.5 18.4-2.1"/><path fill="#fab20b" fill-rule="nonzero" d="M47.8 63.4l-13.4 1.5-2.5 2.5-4.8 6.8L38.2 73l9.6-9.5M79.7 59.7l-13.4 1.5-9.6 9.6 13.4-1.6 9.6-9.5M111.6 56l-13.4 1.5-9.6 9.6 13.5-1.6 9.5-9.5M134 61.8l9.5-9.5-13.4 1.5-9.6 9.6 13.5-1.6M165.9 58.1l9.5-9.5L162 50l-9.6 9.6 13.5-1.6M197.8 54.4l9.5-9.5-13.4 1.5-9.6 9.6 13.5-1.6M229.7 50.7l9.6-9.5-13.5 1.5-9.5 9.6 13.4-1.6M261.6 47l8.8-8.8-.7-.6-12 1.4-9.5 9.6 13.4-1.6"/><path fill="#f68b3b" fill-rule="nonzero" d="M25 86l-9.5 9.7L34 93.5l9.6-9.5L25 86M193.5 75l9.6-9.6-18.5 2.2-9.5 9.6 18.4-2.2M75.5 80.3l-18.5 2-9.6 9.7L66 89.8l9.6-9.5M225.5 71.3l9.5-9.6-18.5 2.2-9.5 9.6 18.5-2.2M161.6 78.7l9.6-9.6-18.5 2.2-9.5 9.6 18.4-2.2M238.9 69.8l18.5-2.2 9.5-9.6-18.4 2.2-9.6 9.6M129.7 82.4l9.6-9.6-18.5 2.2-9.6 9.6 18.5-2.2M107.4 76.5l-18.5 2.2-9.6 9.6L97.8 86l9.6-9.6M270.8 66l18.5-2 3.3-3.4a166 166 0 00-4.3-5l-8 .9-9.5 9.6"/><path fill="#f68b3b" fill-rule="nonzero" d="M25 86l-5.3.7-4.5 9h.3l9.6-9.6M57 82.4L43.6 84 34 93.5 47.4 92l9.6-9.6M88.9 78.7l-13.4 1.6-9.6 9.5 13.4-1.5 9.6-9.6M120.8 75l-13.4 1.5-9.6 9.6 13.4-1.5 9.6-9.6M143.2 80.9l9.5-9.6-13.4 1.5-9.6 9.6 13.5-1.5M175 77.2l9.6-9.6-13.4 1.5-9.6 9.6 13.5-1.5M207 73.5l9.5-9.6-13.4 1.5-9.6 9.6 13.5-1.5M238.9 69.8l9.6-9.6-13.5 1.5-9.5 9.6 13.4-1.5M270.8 66l9.6-9.5-13.5 1.5-9.5 9.6 13.4-1.5M292.6 60.6l-3.3 3.3 5.4-.6-2.1-2.7"/><path fill="#fbbc09" fill-rule="nonzero" d="M84.7 99.3l-18.5 2.1-9.6 9.6 18.5-2.2 9.6-9.5M52.7 103L34.3 105l-9.6 9.6 18.5-2.2 9.5-9.5M280 85l18.5-2 5.9-6-2-3-12.8 1.5-9.6 9.6M20.8 106.7l-10.7 1.2-3 8.8 4.2-.5 9.5-9.5M216.2 92.5l18.4-2.2 9.6-9.5-18.5 2.1-9.5 9.6M130 94l-9.6 9.6 18.5-2.2 9.6-9.5L130 94M184.3 96.2l18.4-2.2 9.6-9.5-18.5 2.1-9.5 9.6M162 90.3l-9.6 9.6 18.4-2.2 9.6-9.5-18.5 2.1M116.6 95.6L98 97.7l-9.6 9.6L107 105l9.6-9.5M248 88.8l18.6-2.2 9.5-9.5-18.4 2.1-9.6 9.6"/><path fill="#fbbc09" fill-rule="nonzero" d="M24.7 114.7l9.6-9.6-13.5 1.6-9.5 9.5 13.4-1.5M66.2 101.4L52.7 103l-9.5 9.5 13.4-1.5 9.6-9.6M98.1 97.7l-13.4 1.6-9.6 9.5 13.4-1.5 9.6-9.6M116.6 95.6L107 105l13.4-1.5L130 94l-13.4 1.6M148.5 91.9l-9.6 9.5 13.5-1.5 9.5-9.6-13.4 1.6M180.4 88.2l-9.6 9.5 13.5-1.5 9.5-9.6-13.4 1.6M216.2 92.5l9.5-9.6-13.4 1.6-9.6 9.5 13.5-1.5M248 88.8l9.7-9.6-13.5 1.6-9.6 9.5 13.5-1.5M280 85l9.6-9.5-13.5 1.6-9.5 9.5 13.4-1.5M304.4 77l-6 6 9-1.1-3-4.9"/><path fill="#f08913" fill-rule="nonzero" d="M75.4 120.4l-9.6 9.6 18.5-2.2 9.6-9.5-18.5 2.1M107.3 116.7l-9.6 9.6 18.5-2.2 9.6-9.5-18.5 2.1M139.2 113l-9.6 9.6 18.5-2.2 9.6-9.5-18.5 2.1M225.4 111.5l18.4-2.2 9.6-9.5-18.5 2.1-9.5 9.6M203 105.6l-9.5 9.6 18.4-2.2 9.6-9.5-18.5 2.1M257.3 107.8l18.5-2.2 9.5-9.5-18.5 2.1-9.5 9.6M20.5 135.2l9.5-9.5-18.4 2.1-9.2 9.2-.1.4 18.2-2.2M289.2 104l18.5-2 6.7-6.8-1.2-2.4-14.4 1.7-9.6 9.6M62 122L43.4 124l-9.6 9.6 18.5-2.2 9.5-9.5M189.6 107.2l-18.5 2.1-9.6 9.6 18.5-2.2 9.6-9.5"/><path fill="#f08913" fill-rule="nonzero" d="M4 128.7c-.6 2.8-1.2 5.5-1.6 8.3l9.2-9.2-7.6.9M43.5 124.1L30 125.7l-9.5 9.5 13.4-1.5 9.6-9.6M62 122l-9.6 9.5 13.4-1.5 9.6-9.6-13.5 1.6M93.9 118.3l-9.6 9.5 13.4-1.5 9.6-9.6-13.4 1.6M125.8 114.6l-9.6 9.5 13.4-1.5 9.6-9.6-13.4 1.6M157.7 110.9l-9.6 9.5 13.4-1.5 9.6-9.6-13.4 1.6M189.6 107.2l-9.6 9.5 13.5-1.5 9.5-9.6-13.4 1.6M221.5 103.5l-9.6 9.5 13.5-1.5 9.5-9.6-13.4 1.6M257.3 107.8l9.5-9.6-13.4 1.6-9.6 9.5 13.5-1.5M289.2 104l9.6-9.5-13.5 1.6-9.5 9.5 13.4-1.5M314.4 95.2l-6.7 6.7 9.2-1-2.5-5.7"/><path fill="#f9a72b" fill-rule="nonzero" d="M308 113.5l-9.6 9.6 18.5-2.1 5.3-5.4-1.1-3.6-13.1 1.5M244.1 121l-9.5 9.5 18.4-2.1 9.6-9.6-18.5 2.1M20.8 146.8l-9.6 9.6 18.5-2.1 9.5-9.6-18.4 2.1M.7 149.2l-.4 6.2 7-7-6.6.8M148.4 132l-9.6 9.6 18.5-2.1 9.6-9.6-18.5 2.1M52.7 143.1l-9.6 9.6 18.5-2.1L71 141 52.7 143M276 117.2l-9.5 9.6 18.4-2.1 9.6-9.6-18.5 2.1M135 133.6l-18.5 2.1-9.6 9.6 18.5-2.1 9.6-9.6M84.6 139.4L75 149l18.5-2.1 9.5-9.6-18.4 2.1M180.3 128.3l-9.6 9.6 18.5-2.1 9.6-9.6-18.5 2.1M212.2 124.6l-9.5 9.6 18.4-2.1 9.6-9.6-18.5 2.1M7.3 148.4l-7 7-.1 2.3 11-1.3 9.6-9.6-13.5 1.6"/><path fill="#f9a72b" fill-rule="nonzero" d="M39.2 144.7l-9.5 9.6 13.4-1.6 9.6-9.6-13.5 1.6M71.1 141l-9.5 9.6L75 149l9.6-9.6L71 141M103 137.3l-9.5 9.6 13.4-1.6 9.6-9.6-13.5 1.6M135 133.6l-9.6 9.6 13.4-1.6 9.6-9.6-13.4 1.6M166.9 129.9l-9.6 9.6 13.4-1.6 9.6-9.6L167 130M198.8 126.2l-9.6 9.6 13.5-1.6 9.5-9.6-13.4 1.6M230.7 122.5L221 132l13.5-1.6 9.5-9.6-13.4 1.6M262.6 118.8l-9.6 9.6 13.5-1.6 9.5-9.6-13.4 1.6M285 124.7l13.4-1.6 9.6-9.6-13.5 1.6-9.6 9.6M323.6 120.2l-1.4-4.6-5.3 5.4 6.7-.8"/><path fill="#f14624" fill-rule="nonzero" d="M157.6 151l-9.6 9.6 18.5-2.1 9.6-9.6-18.5 2.2M93.8 158.5l-9.6 9.5 18.5-2.1 9.5-9.6-18.4 2.2M80.3 160L62 162.2l-9.6 9.5 18.5-2.1 9.5-9.6M125.7 154.8l-9.6 9.5 18.5-2.1 9.6-9.6-18.5 2.2M0 169.3l.5 8.4 6.4-.7 9.6-9.6-16.4 2M30 165.9l-9.6 9.5 18.5-2.1 9.5-9.6L30 166M253.3 140l-9.5 9.5 18.4-2.1 9.6-9.6-18.5 2.1M285.2 136.2l-9.5 9.6 18.4-2.1 9.6-9.6-18.5 2.1M189.5 147.3l-9.6 9.6 18.5-2.1 9.6-9.6-18.5 2.1M221.4 143.6l-9.6 9.6 18.5-2.1 9.6-9.6-18.5 2.1M326.4 131.5l-9.3 1-9.5 9.6L326 140l1.5-1.6-1.2-7"/><path fill="#f14624" fill-rule="nonzero" d="M16.5 167.4L7 177l13.5-1.6 9.5-9.5-13.4 1.5M48.4 163.7l-9.5 9.6 13.4-1.6 9.6-9.5-13.5 1.5M80.3 160l-9.5 9.6 13.4-1.6 9.6-9.5-13.5 1.5M112.2 156.3l-9.5 9.6 13.4-1.6 9.6-9.5-13.5 1.5M144.2 152.6l-9.6 9.6 13.4-1.6 9.6-9.5-13.4 1.5M176 149l-9.5 9.5 13.4-1.6 9.6-9.6-13.4 1.6M208 145.2l-9.6 9.6 13.4-1.6 9.6-9.6-13.4 1.6M239.9 141.5l-9.6 9.6 13.5-1.6 9.5-9.6-13.4 1.6M271.8 137.8l-9.6 9.6 13.5-1.6 9.5-9.6-13.4 1.6M303.7 134.1l-9.6 9.6 13.5-1.6 9.5-9.6-13.4 1.6M326 140l1.9-.2-.3-1.4-1.5 1.6"/><path fill="#72cfc1" fill-rule="nonzero" d="M329.2 151.2l-2.9.4L313 153l-18.5 2.2-13.4 1.5-18.5 2.2-13.4 1.5-18.5 2.2-13.4 1.5-18.5 2.2-13.4 1.5-18.5 2.2-13.4 1.5-18.5 2.2-13.5 1.5-18.4 2.2-13.5 1.5-18.4 2.2-13.5 1.5-18.5 2.2-13.4 1.5-18.5 2.2-5.4.6a164 164 0 001.4 8.3l13-1.5 13.4-1.6 18.5-2.1 13.4-1.6 18.5-2.1 13.4-1.6 18.5-2.1 13.4-1.6 18.5-2.1 13.4-1.6 18.5-2.1 13.4-1.6 18.5-2.1 13.4-1.6 18.5-2.1 13.5-1.6 18.4-2.1 13.5-1.6 18.4-2.1 13.5-1.6 12.9-1.5-.5-8.4"/><path fill="#fff" fill-rule="nonzero" d="M278.2 45.1l.8.8M297.8 67.3l4.7 6.7M0 169.3v-1.7M256.2 27.6c2.6 1.7 5.1 3.5 7.6 5.4M67.4 32l4.2-3M19.7 86.7A165 165 0 0127 74.2M4 128.7c.5-2.3 1-4.6 1.7-6.9M294.7 63.3l3 4M316.9 100.9l1 2.6M207.4 4.7l-2.2.3 1.6.4.6-.7M71.6 29c5.6-4 11.4-7.4 17.5-10.6"/><path fill="#fff" fill-rule="nonzero" d="M207.4 4.7l-.6.7c3 .8 6.1 1.7 9.1 2.7M27.1 74.2l4.8-6.8M269.7 37.6l.7.6M288.3 55.6a166 166 0 014.3 5M292.6 60.6l2.1 2.7M302.5 74l1.9 3M2.4 137l-.4.4h.3v-.4M313.2 92.8l1.2 2.4M.2 157.7v-2.3M3.2 197.5l-.7-4.2"/><path fill="#685243" fill-rule="nonzero" d="M524.3 140.3l-46-56.7-27.9 28.2v28.5h-8.3v-112h8.3v73.6l71.4-73.6H533l-49 49.4 51.1 62.6h-10.9M618.9 36.6l-29.6 64.8h59L619 36.6zM666 140.3l-14.3-31.4h-66l-14.3 31.4H563L615 27.5h8l52.2 112.8h-9.1M794.9 140.3V87.8h-71.7v52.5H715v-112h8.3V80H795V28.3h8.3v112h-8.3M898.9 36.6l-29.6 64.8h59L899 36.6zM946 140.3l-14.3-31.4h-66l-14.3 31.4H843L895 27.5h8l52.2 112.8h-9.1M1081.8 140.3l-79-99.5v99.5h-8v-112h8l77.2 97.4V28.3h8v112h-6.2M1137.3 140.3v-112h79.7V36h-71.4v44h64.2v7.6h-64.2v45h72.2v7.7h-80.5M450.4 198.6v46h63.4v7.6h-63.4V303h-8.3V191H521v7.7h-70.6M658.9 247c0-27.7-20.2-50.5-47.9-50.5-27.6 0-47.5 22.4-47.5 50.1v.3c0 27.7 20.2 50.4 47.9 50.4 27.6 0 47.5-22.4 47.5-50v-.4zM611 304.8c-33.9 0-56.1-27-56.1-57.6v-.4c0-30.5 22.5-57.9 56.5-57.9 33.9 0 56.1 27 56.1 57.6.2.2.2.2 0 .3 0 30.6-22.5 58-56.5 58M756 304.7c-26.9 0-46-17-46-48.3v-65.5h8.4v64.7c0 26.4 14.2 41.6 38 41.6 22.6 0 37.2-13.8 37.2-40.8v-65.5h8.3v64.5c0 32.2-18.7 49.3-45.9 49.3M936.3 303l-78.9-99.6V303h-8V191h7.9l77.3 97.5v-97.5h8v112h-6.3M1080 247c0-26.6-19.7-48.4-50.9-48.4h-29v96.7h29c31.2 0 50.9-21.3 50.9-48v-.4zm-50.9 56h-37.3V191h37.3c35.2 0 59.5 24.1 59.5 55.6v.3c0 31.6-24.3 56-59.5 56M1172.2 199.3l-29.6 64.8h59l-29.4-64.8zm47.2 103.6l-14.3-31.3h-66l-14.3 31.3h-8.6l52.1-112.8h8l52.2 112.8h-9.1M1293.1 198.6V303h-8.3V198.6h-39V191h86.4v7.7h-39M1374.6 303V191h8.3v112h-8.3M1532.3 247c0-27.7-20.2-50.5-47.8-50.5-27.7 0-47.5 22.4-47.5 50.1v.3c0 27.7 20.1 50.4 47.8 50.4 27.7 0 47.5-22.4 47.5-50v-.4zm-47.8 57.9c-34 0-56.2-27-56.2-57.6v-.4c0-30.5 22.6-57.9 56.5-57.9s56.1 27 56.1 57.6c.2.2.2.2 0 .3 0 30.6-22.5 58-56.4 58M1672.1 303l-78.8-99.6V303h-8V191h7.8l77.3 97.5v-97.5h8v112h-6.3"/></svg>