<?xml version="1.0" encoding="UTF-8" standalone="no"?>
<svg
   xmlns:dc="http://purl.org/dc/elements/1.1/"
   xmlns:cc="http://creativecommons.org/ns#"
   xmlns:rdf="http://www.w3.org/1999/02/22-rdf-syntax-ns#"
   xmlns:svg="http://www.w3.org/2000/svg"
   xmlns="http://www.w3.org/2000/svg"
   viewBox="0 0 1680.1067 496.22668"
   height="496.22668"
   width="1680.1067"
   xml:space="preserve"
   id="svg2"
   version="1.1"><metadata
     id="metadata8"><rdf:RDF><cc:Work
         rdf:about=""><dc:format>image/svg+xml</dc:format><dc:type
           rdf:resource="http://purl.org/dc/dcmitype/StillImage" /></cc:Work></rdf:RDF></metadata><defs
     id="defs6" /><g
     transform="matrix(1.3333333,0,0,-1.3333333,0,496.22667)"
     id="g10"><g
       transform="scale(0.1)"
       id="g12"><path
         id="path14"
         style="fill:#fab70a;fill-opacity:1;fill-rule:nonzero;stroke:none"
         d="m 113.895,3004 c -0.633,-1.37 -1.286,-2.72 -1.911,-4.09 l 4.371,4.38 -2.46,-0.29" /><path
         id="path16"
         style="fill:#fab70a;fill-opacity:1;fill-rule:nonzero;stroke:none"
         d="m 457.094,3345.02 -100.774,-11.69 -98.632,-98.63 100.773,11.69 98.633,98.63" /><path
         id="path18"
         style="fill:#fab70a;fill-opacity:1;fill-rule:nonzero;stroke:none"
         d="m 528.824,3416.75 98.637,98.64 -90.359,-10.48 c -10.735,-7.38 -21.34,-14.92 -31.825,-22.62 l -77.222,-77.22 100.769,11.68" /><path
         id="path20"
         style="fill:#fab70a;fill-opacity:1;fill-rule:nonzero;stroke:none"
         d="m 286.727,3174.65 -83.106,-9.63 c -20.008,-30.34 -38.754,-61.58 -56.082,-93.7 l 40.551,4.7 98.637,98.63" /><path
         id="path22"
         style="fill:#fab70a;fill-opacity:1;fill-rule:nonzero;stroke:none"
         d="m 699.191,3587.12 22.606,22.61 c -18.137,-8.32 -36.039,-17.06 -53.692,-26.21 l 31.086,3.6" /><path
         id="path24"
         style="fill:#fdde10;fill-opacity:1;fill-rule:nonzero;stroke:none"
         d="m 938.523,3614.88 89.177,89.17 c -38.692,-6.58 -76.762,-14.96 -114.141,-25.05 l -75.805,-75.81 100.769,11.69" /><path
         id="path26"
         style="fill:#fdde10;fill-opacity:1;fill-rule:nonzero;stroke:none"
         d="m 866.793,3543.14 -100.773,-11.68 -98.633,-98.64 100.769,11.69 98.637,98.63" /><path
         id="path28"
         style="fill:#fdde10;fill-opacity:1;fill-rule:nonzero;stroke:none"
         d="m 86.6875,2763.04 98.6325,98.64 -100.7692,-11.69 -41.836,-41.84 c -4.6132,-17.09 -8.8867,-34.31 -12.7773,-51.69 l 56.75,6.58" /><path
         id="path30"
         style="fill:#fdde10;fill-opacity:1;fill-rule:nonzero;stroke:none"
         d="m 597.789,3274.14 98.633,98.64 -100.77,-11.69 -98.632,-98.63 100.769,11.68" /><path
         id="path32"
         style="fill:#fdde10;fill-opacity:1;fill-rule:nonzero;stroke:none"
         d="m 355.688,3032.04 -100.77,-11.68 -98.633,-98.64 100.77,11.69 98.633,98.63" /><path
         id="path34"
         style="fill:#fdde10;fill-opacity:1;fill-rule:nonzero;stroke:none"
         d="m 425.285,3190.72 -98.633,-98.63 100.77,11.68 98.633,98.64 -100.77,-11.69" /><path
         id="path36"
         style="fill:#fab20b;fill-opacity:1;fill-rule:nonzero;stroke:none"
         d="m 0,2485.13 c 0,-6.72 0.148438,-13.41 0.253906,-20.1 L 83.918,2548.7 1.24219,2539.11 C 0.472656,2521.2 0,2503.22 0,2485.13" /><path
         id="path38"
         style="fill:#fab20b;fill-opacity:1;fill-rule:nonzero;stroke:none"
         d="m 1007.49,3472.27 98.63,98.63 -100.77,-11.69 -98.631,-98.63 100.771,11.69" /><path
         id="path40"
         style="fill:#fab20b;fill-opacity:1;fill-rule:nonzero;stroke:none"
         d="m 155.652,2620.43 98.633,98.63 -100.769,-11.68 -98.6332,-98.64 100.7692,11.69" /><path
         id="path42"
         style="fill:#fab20b;fill-opacity:1;fill-rule:nonzero;stroke:none"
         d="m 595.02,3059.8 -100.77,-11.69 -98.633,-98.63 100.77,11.68 98.633,98.64" /><path
         id="path44"
         style="fill:#fab20b;fill-opacity:1;fill-rule:nonzero;stroke:none"
         d="m 765.387,3230.16 -100.77,-11.68 -98.633,-98.64 100.77,11.69 98.633,98.63" /><path
         id="path46"
         style="fill:#fab20b;fill-opacity:1;fill-rule:nonzero;stroke:none"
         d="m 424.652,2889.43 -100.769,-11.69 -98.637,-98.63 100.774,11.69 98.632,98.63" /><path
         id="path48"
         style="fill:#fab20b;fill-opacity:1;fill-rule:nonzero;stroke:none"
         d="m 736.352,3290.21 100.769,11.69 98.633,98.63 -100.77,-11.69 -98.632,-98.63" /><path
         id="path50"
         style="fill:#fab20b;fill-opacity:1;fill-rule:nonzero;stroke:none"
         d="m 1177.86,3642.63 78.82,78.83 c -6.69,0.1 -13.38,0.25 -20.09,0.25 -23.77,0 -47.37,-0.74 -70.8,-2.06 l -88.71,-88.7 100.78,11.68" /><path
         id="path52"
         style="fill:#f57f13;fill-opacity:1;fill-rule:nonzero;stroke:none"
         d="m 663.984,2917.19 -100.769,-11.69 -98.637,-98.63 100.774,11.68 98.632,98.64" /><path
         id="path54"
         style="fill:#f57f13;fill-opacity:1;fill-rule:nonzero;stroke:none"
         d="m 222.48,2564.76 -98.636,-98.63 100.773,11.69 98.633,98.63 -100.77,-11.69" /><path
         id="path56"
         style="fill:#f57f13;fill-opacity:1;fill-rule:nonzero;stroke:none"
         d="m 392.848,2735.13 -98.633,-98.63 100.769,11.69 98.633,98.63 -100.769,-11.69" /><path
         id="path58"
         style="fill:#f57f13;fill-opacity:1;fill-rule:nonzero;stroke:none"
         d="m 1146.05,3488.34 100.77,11.68 98.63,98.64 -100.77,-11.69 -98.63,-98.63" /><path
         id="path60"
         style="fill:#f57f13;fill-opacity:1;fill-rule:nonzero;stroke:none"
         d="m 906.086,3159.29 98.634,98.63 -100.771,-11.69 -98.633,-98.63 100.77,11.69" /><path
         id="path62"
         style="fill:#f57f13;fill-opacity:1;fill-rule:nonzero;stroke:none"
         d="m 834.352,3087.55 -100.77,-11.68 -98.633,-98.64 100.77,11.69 98.633,98.63" /><path
         id="path64"
         style="fill:#f57f13;fill-opacity:1;fill-rule:nonzero;stroke:none"
         d="m 1076.45,3329.66 98.64,98.63 -100.77,-11.69 -98.636,-98.63 100.766,11.69" /><path
         id="path66"
         style="fill:#f57f13;fill-opacity:1;fill-rule:nonzero;stroke:none"
         d="m 1417.19,3670.39 32.9,32.9 c -25.76,4.48 -51.8,8.14 -78.08,11.01 l -55.59,-55.6 100.77,11.69" /><path
         id="path68"
         style="fill:#f57f13;fill-opacity:1;fill-rule:nonzero;stroke:none"
         d="M 52.1133,2394.4 7.41406,2349.7 c 1.71485,-15.75 3.70704,-31.42 6.00784,-46.98 l 40.8281,4.73 98.633,98.63 -100.7697,-11.68" /><path
         id="path70"
         style="fill:#f9a80d;fill-opacity:1;fill-rule:nonzero;stroke:none"
         d="m 1486.15,3527.78 98.64,98.63 -100.78,-11.68 -98.63,-98.64 100.77,11.69" /><path
         id="path72"
         style="fill:#f9a80d;fill-opacity:1;fill-rule:nonzero;stroke:none"
         d="m 1145.42,3187.04 98.63,98.64 -100.77,-11.69 -98.63,-98.63 100.77,11.68" /><path
         id="path74"
         style="fill:#f9a80d;fill-opacity:1;fill-rule:nonzero;stroke:none"
         d="m 461.809,2592.52 -98.633,-98.63 100.773,11.68 98.633,98.64 -100.773,-11.69" /><path
         id="path76"
         style="fill:#f9a80d;fill-opacity:1;fill-rule:nonzero;stroke:none"
         d="m 632.18,2762.89 -98.637,-98.63 100.773,11.68 98.633,98.63 -100.769,-11.68" /><path
         id="path78"
         style="fill:#f9a80d;fill-opacity:1;fill-rule:nonzero;stroke:none"
         d="m 1315.78,3357.41 98.64,98.64 -100.77,-11.69 -98.64,-98.63 100.77,11.68" /><path
         id="path80"
         style="fill:#f9a80d;fill-opacity:1;fill-rule:nonzero;stroke:none"
         d="m 975.051,3016.68 98.629,98.63 -100.766,-11.68 -98.637,-98.64 100.774,11.69" /><path
         id="path82"
         style="fill:#f9a80d;fill-opacity:1;fill-rule:nonzero;stroke:none"
         d="m 392.215,2433.84 -100.774,-11.69 -98.632,-98.63 100.769,11.69 98.637,98.63" /><path
         id="path84"
         style="fill:#f9a80d;fill-opacity:1;fill-rule:nonzero;stroke:none"
         d="m 802.547,2933.26 -98.637,-98.63 100.774,11.68 98.632,98.63 -100.769,-11.68" /><path
         id="path86"
         style="fill:#f9a80d;fill-opacity:1;fill-rule:nonzero;stroke:none"
         d="m 121.074,2251.79 -80.7732,-80.78 c 6.0859,-23.22 12.8633,-46.17 20.2383,-68.84 l 161.3089,161.3 -100.774,-11.68" /><path
         id="path88"
         style="fill:#ce9e18;fill-opacity:1;fill-rule:nonzero;stroke:none"
         d="m 1041.88,2961.01 -98.638,-98.63 100.768,11.69 98.64,98.63 -100.77,-11.69" /><path
         id="path90"
         style="fill:#ce9e18;fill-opacity:1;fill-rule:nonzero;stroke:none"
         d="m 530.773,2449.91 -98.632,-98.63 100.773,11.68 98.633,98.64 -100.774,-11.69" /><path
         id="path92"
         style="fill:#ce9e18;fill-opacity:1;fill-rule:nonzero;stroke:none"
         d="m 1555.12,3385.17 98.63,98.63 -100.77,-11.69 -98.63,-98.63 100.77,11.69" /><path
         id="path94"
         style="fill:#ce9e18;fill-opacity:1;fill-rule:nonzero;stroke:none"
         d="m 801.914,2631.96 -100.773,-11.68 -98.633,-98.64 100.773,11.69 98.633,98.63" /><path
         id="path96"
         style="fill:#ce9e18;fill-opacity:1;fill-rule:nonzero;stroke:none"
         d="m 1384.75,3214.8 98.63,98.63 -100.77,-11.68 -98.63,-98.64 100.77,11.69" /><path
         id="path98"
         style="fill:#ce9e18;fill-opacity:1;fill-rule:nonzero;stroke:none"
         d="m 1770.67,3600.72 c -20.24,9.7 -40.81,18.83 -61.64,27.44 l -84.32,-84.31 100.77,11.69 45.19,45.18" /><path
         id="path100"
         style="fill:#ce9e18;fill-opacity:1;fill-rule:nonzero;stroke:none"
         d="M 360.406,2279.54 93.543,2012.68 c 8.621,-20.83 17.742,-41.4 27.449,-61.64 l 340.188,340.19 -100.774,-11.69" /><path
         id="path102"
         style="fill:#ce9e18;fill-opacity:1;fill-rule:nonzero;stroke:none"
         d="m 1214.38,3044.43 98.64,98.64 -100.78,-11.69 -98.63,-98.63 100.77,11.68" /><path
         id="path104"
         style="fill:#ce9e18;fill-opacity:1;fill-rule:nonzero;stroke:none"
         d="m 871.508,2790.64 -98.633,-98.63 100.773,11.69 98.633,98.63 -100.773,-11.69" /><path
         id="path106"
         style="fill:#f1511b;fill-opacity:1;fill-rule:nonzero;stroke:none"
         d="m 1211.61,2830.09 -100.77,-11.69 -98.63,-98.63 100.77,11.69 98.63,98.63" /><path
         id="path108"
         style="fill:#f1511b;fill-opacity:1;fill-rule:nonzero;stroke:none"
         d="m 770.105,2477.67 -98.632,-98.64 100.769,11.69 98.637,98.63 -100.774,-11.68" /><path
         id="path110"
         style="fill:#f1511b;fill-opacity:1;fill-rule:nonzero;stroke:none"
         d="m 1624.08,3242.56 98.63,98.63 -100.77,-11.69 -98.63,-98.63 100.77,11.69" /><path
         id="path112"
         style="fill:#f1511b;fill-opacity:1;fill-rule:nonzero;stroke:none"
         d="m 1281.21,2988.77 -98.63,-98.63 100.77,11.68 98.63,98.64 -100.77,-11.69" /><path
         id="path114"
         style="fill:#f1511b;fill-opacity:1;fill-rule:nonzero;stroke:none"
         d="M 599.738,2307.3 163.191,1870.75 c 10.77,-18.77 22.032,-37.21 33.739,-55.34 l 503.582,503.58 -100.774,-11.69" /><path
         id="path116"
         style="fill:#f1511b;fill-opacity:1;fill-rule:nonzero;stroke:none"
         d="m 1453.71,3072.19 98.64,98.63 -100.77,-11.68 -98.64,-98.64 100.77,11.69" /><path
         id="path118"
         style="fill:#f1511b;fill-opacity:1;fill-rule:nonzero;stroke:none"
         d="m 1794.45,3412.93 98.63,98.63 -100.77,-11.69 -98.63,-98.63 100.77,11.69" /><path
         id="path120"
         style="fill:#f1511b;fill-opacity:1;fill-rule:nonzero;stroke:none"
         d="m 940.473,2648.03 -98.633,-98.63 100.769,11.69 98.631,98.63 -100.767,-11.69" /><path
         id="path122"
         style="fill:#72cfc1;fill-opacity:1;fill-rule:nonzero;stroke:none"
         d="m 1009.44,2505.42 -98.635,-98.63 100.775,11.69 98.63,98.63 -100.77,-11.69" /><path
         id="path124"
         style="fill:#72cfc1;fill-opacity:1;fill-rule:nonzero;stroke:none"
         d="m 1621.31,3028.21 -100.77,-11.69 -98.63,-98.63 100.77,11.69 98.63,98.63" /><path
         id="path126"
         style="fill:#72cfc1;fill-opacity:1;fill-rule:nonzero;stroke:none"
         d="m 1592.27,3088.26 100.78,11.69 98.63,98.63 -100.77,-11.69 -98.64,-98.63" /><path
         id="path128"
         style="fill:#72cfc1;fill-opacity:1;fill-rule:nonzero;stroke:none"
         d="m 1350.17,2846.16 -98.63,-98.64 100.77,11.69 98.63,98.63 -100.77,-11.68" /><path
         id="path130"
         style="fill:#72cfc1;fill-opacity:1;fill-rule:nonzero;stroke:none"
         d="m 1978.49,3474.48 -45.48,-45.49 90.03,10.44 c -14.57,12.02 -29.43,23.7 -44.55,35.05" /><path
         id="path132"
         style="fill:#72cfc1;fill-opacity:1;fill-rule:nonzero;stroke:none"
         d="M 839.07,2335.06 247.23,1743.22 c 12.704,-16.92 25.856,-33.47 39.391,-49.7 l 653.223,653.22 -100.774,-11.68" /><path
         id="path134"
         style="fill:#72cfc1;fill-opacity:1;fill-rule:nonzero;stroke:none"
         d="m 1863.41,3270.31 98.64,98.64 -100.77,-11.69 -98.64,-98.63 100.77,11.68" /><path
         id="path136"
         style="fill:#72cfc1;fill-opacity:1;fill-rule:nonzero;stroke:none"
         d="m 1179.81,2675.79 -98.64,-98.63 100.77,11.68 98.64,98.64 -100.77,-11.69" /><path
         id="path138"
         style="fill:#b5dc17;fill-opacity:1;fill-rule:nonzero;stroke:none"
         d="m 1248.77,2533.18 -98.63,-98.63 100.77,11.68 98.63,98.64 -100.77,-11.69" /><path
         id="path140"
         style="fill:#b5dc17;fill-opacity:1;fill-rule:nonzero;stroke:none"
         d="m 1589.5,2873.91 -98.63,-98.63 100.77,11.69 98.64,98.63 -100.78,-11.69" /><path
         id="path142"
         style="fill:#b5dc17;fill-opacity:1;fill-rule:nonzero;stroke:none"
         d="m 1661.24,2945.65 100.77,11.69 98.63,98.63 -100.77,-11.69 -98.63,-98.63" /><path
         id="path144"
         style="fill:#b5dc17;fill-opacity:1;fill-rule:nonzero;stroke:none"
         d="m 1419.14,2703.55 -98.64,-98.64 100.77,11.69 98.64,98.63 -100.77,-11.68" /><path
         id="path146"
         style="fill:#b5dc17;fill-opacity:1;fill-rule:nonzero;stroke:none"
         d="m 2092.83,3377.24 -90.86,-90.86 100.77,11.69 34.4,34.39 c -14.4,15.3 -29.16,30.24 -44.31,44.78" /><path
         id="path148"
         style="fill:#b5dc17;fill-opacity:1;fill-rule:nonzero;stroke:none"
         d="M 1078.4,2362.81 344.469,1628.88 c 14.543,-15.15 29.484,-29.91 44.777,-44.31 l 789.924,789.93 -100.77,-11.69" /><path
         id="path150"
         style="fill:#b5dc17;fill-opacity:1;fill-rule:nonzero;stroke:none"
         d="m 1831.61,3116.02 100.77,11.68 98.63,98.64 -100.77,-11.69 -98.63,-98.63" /><path
         id="path152"
         style="fill:#f14624;fill-opacity:1;fill-rule:nonzero;stroke:none"
         d="m 1828.84,2901.67 -98.64,-98.63 100.77,11.69 98.64,98.63 -100.77,-11.69" /><path
         id="path154"
         style="fill:#f14624;fill-opacity:1;fill-rule:nonzero;stroke:none"
         d="m 1900.57,2973.41 100.77,11.68 98.63,98.64 -100.77,-11.69 -98.63,-98.63" /><path
         id="path156"
         style="fill:#f14624;fill-opacity:1;fill-rule:nonzero;stroke:none"
         d="m 1658.47,2731.3 -98.63,-98.63 100.77,11.69 98.63,98.63 -100.77,-11.69" /><path
         id="path158"
         style="fill:#f14624;fill-opacity:1;fill-rule:nonzero;stroke:none"
         d="m 2169.57,3242.41 -98.63,-98.64 100.77,11.69 61.59,61.59 c -7.46,10.14 -15.03,20.2 -22.79,30.1 l -40.94,-4.74" /><path
         id="path160"
         style="fill:#f14624;fill-opacity:1;fill-rule:nonzero;stroke:none"
         d="m 1488.1,2560.94 -98.63,-98.64 100.77,11.69 98.63,98.63 -100.77,-11.68" /><path
         id="path162"
         style="fill:#f14624;fill-opacity:1;fill-rule:nonzero;stroke:none"
         d="M 1317.73,2390.57 454.477,1527.31 c 16.382,-13.39 33.121,-26.35 50.183,-38.9 l 913.85,913.85 -100.78,-11.69" /><path
         id="path164"
         style="fill:#ec008c;fill-opacity:1;fill-rule:nonzero;stroke:none"
         d="m 2238.53,3099.79 -98.63,-98.63 100.77,11.69 75.53,75.52 c -3.6,6.42 -7.23,12.81 -10.94,19.16 l -66.73,-7.74" /><path
         id="path166"
         style="fill:#ec008c;fill-opacity:1;fill-rule:nonzero;stroke:none"
         d="m 1727.43,2588.69 -98.63,-98.63 100.77,11.69 98.63,98.63 -100.77,-11.69" /><path
         id="path168"
         style="fill:#ec008c;fill-opacity:1;fill-rule:nonzero;stroke:none"
         d="m 1969.53,2830.79 100.78,11.69 98.63,98.63 -100.77,-11.68 -98.64,-98.64" /><path
         id="path170"
         style="fill:#ec008c;fill-opacity:1;fill-rule:nonzero;stroke:none"
         d="M 1557.07,2418.32 577.477,1438.74 c 18.3,-11.55 36.929,-22.63 55.863,-33.23 l 1024.5,1024.5 -100.77,-11.69" /><path
         id="path172"
         style="fill:#ec008c;fill-opacity:1;fill-rule:nonzero;stroke:none"
         d="m 1897.8,2759.06 -98.63,-98.63 100.77,11.68 98.63,98.64 -100.77,-11.69" /><path
         id="path174"
         style="fill:#f2561c;fill-opacity:1;fill-rule:nonzero;stroke:none"
         d="m 2137.13,2786.82 -98.63,-98.64 100.77,11.69 98.63,98.63 -100.77,-11.68" /><path
         id="path176"
         style="fill:#f2561c;fill-opacity:1;fill-rule:nonzero;stroke:none"
         d="m 1966.76,2616.45 -98.63,-98.63 100.77,11.68 98.64,98.64 -100.78,-11.69" /><path
         id="path178"
         style="fill:#f2561c;fill-opacity:1;fill-rule:nonzero;stroke:none"
         d="M 1796.4,2446.08 714.328,1364.01 c 20.418,-9.52 41.121,-18.53 62.125,-26.96 L 1897.17,2457.77 1796.4,2446.08" /><path
         id="path180"
         style="fill:#f2561c;fill-opacity:1;fill-rule:nonzero;stroke:none"
         d="m 2307.5,2957.18 -98.63,-98.63 100.77,11.69 75.02,75.02 c -2.68,6.66 -5.36,13.32 -8.15,19.93 l -69.01,-8.01" /><path
         id="path182"
         style="fill:#f14624;fill-opacity:1;fill-rule:nonzero;stroke:none"
         d="m 2206.1,2644.21 -98.64,-98.64 100.77,11.69 98.64,98.63 -100.77,-11.68" /><path
         id="path184"
         style="fill:#f14624;fill-opacity:1;fill-rule:nonzero;stroke:none"
         d="M 2035.73,2473.84 866.723,1304.83 c 22.91,-7.17 46.125,-13.64 69.586,-19.5 L 2136.5,2485.52 2035.73,2473.84" /><path
         id="path186"
         style="fill:#f14624;fill-opacity:1;fill-rule:nonzero;stroke:none"
         d="m 2277.83,2715.94 100.77,11.69 57.78,57.77 c -2.93,11.74 -5.99,23.44 -9.25,35.05 l -50.67,-5.88 -98.63,-98.63" /><path
         id="path188"
         style="fill:#f1476c;fill-opacity:1;fill-rule:nonzero;stroke:none"
         d="M 2275.06,2501.59 1037.96,1264.5 c 26.05,-4.21 52.36,-7.62 78.92,-10.17 l 1258.95,1258.95 -100.77,-11.69" /><path
         id="path190"
         style="fill:#f1476c;fill-opacity:1;fill-rule:nonzero;stroke:none"
         d="m 2458.91,2673.52 -13.48,-1.56 -98.64,-98.63 100.78,11.69 19.81,19.81 c -2.22,23.08 -5,46 -8.47,68.69" /><path
         id="path192"
         style="fill:#f36318;fill-opacity:1;fill-rule:nonzero;stroke:none"
         d="m 2473.17,2485.13 c 0,0.99 -0.04,1.97 -0.04,2.96 L 1233.62,1248.58 c 0.99,0 1.97,-0.04 2.97,-0.04 30.04,0 59.81,1.13 89.31,3.24 l 1144.03,1144.03 c 2.11,29.5 3.24,59.27 3.24,89.32" /><path
         id="path194"
         style="fill:#ef3220;fill-opacity:1;fill-rule:nonzero;stroke:none"
         d="M 2451.72,2255.11 1466.6,1269.99 c 39.74,7.47 78.81,16.84 117.11,28.02 L 2423.7,2138 c 11.18,38.3 20.55,77.37 28.02,117.11" /><path
         id="path196"
         style="fill:#f1511b;fill-opacity:1;fill-rule:nonzero;stroke:none"
         d="m 1784.58,1376.39 c 100.02,49.53 192.36,112.17 274.8,185.71 l 100.23,100.23 c 73.54,82.44 136.18,174.79 185.71,274.8 l -560.74,-560.74" /><path
         id="path198"
         style="fill:#fab70a;fill-opacity:1;fill-rule:nonzero;stroke:none"
         d="m 1345.45,3598.66 138.56,16.07 66.69,66.68 c -4,1.05 -8.02,2.06 -12.03,3.07 l -121.48,-14.09 -71.74,-71.73" /><path
         id="path200"
         style="fill:#fab70a;fill-opacity:1;fill-rule:nonzero;stroke:none"
         d="m 1684.61,3637.99 c -21.4,8.32 -43.11,16.03 -65.07,23.18 l -34.75,-34.76 99.82,11.58" /><path
         id="path202"
         style="fill:#fab70a;fill-opacity:1;fill-rule:nonzero;stroke:none"
         d="m 1244.68,3586.97 71.74,71.73 -138.56,-16.07 -71.74,-71.73 138.56,16.07" /><path
         id="path204"
         style="fill:#fab70a;fill-opacity:1;fill-rule:nonzero;stroke:none"
         d="m 1005.35,3559.21 71.73,71.74 -138.557,-16.07 -71.73,-71.74 138.557,16.07" /><path
         id="path206"
         style="fill:#fab70a;fill-opacity:1;fill-rule:nonzero;stroke:none"
         d="m 837.754,3603.19 -138.563,-16.07 -71.73,-71.73 138.559,16.07 71.734,71.73" /><path
         id="path208"
         style="fill:#fab70a;fill-opacity:1;fill-rule:nonzero;stroke:none"
         d="m 668.105,3583.52 c -45.39,-23.54 -89.121,-49.83 -131.003,-78.61 l 90.359,10.48 71.73,71.73 -31.086,-3.6" /><path
         id="path210"
         style="fill:#fab70a;fill-opacity:1;fill-rule:nonzero;stroke:none"
         d="m 866.793,3543.14 71.73,71.74 -100.769,-11.69 -71.734,-71.73 100.773,11.68" /><path
         id="path212"
         style="fill:#fab70a;fill-opacity:1;fill-rule:nonzero;stroke:none"
         d="m 1106.12,3570.9 71.74,71.73 -100.78,-11.68 -71.73,-71.74 100.77,11.69" /><path
         id="path214"
         style="fill:#fab70a;fill-opacity:1;fill-rule:nonzero;stroke:none"
         d="m 1345.45,3598.66 71.74,71.73 -100.77,-11.69 -71.74,-71.73 100.77,11.69" /><path
         id="path216"
         style="fill:#fab70a;fill-opacity:1;fill-rule:nonzero;stroke:none"
         d="m 1619.54,3661.17 c -22.67,7.38 -45.61,14.15 -68.84,20.24 l -66.69,-66.68 100.78,11.68 34.75,34.76" /><path
         id="path218"
         style="fill:#fdde10;fill-opacity:1;fill-rule:nonzero;stroke:none"
         d="m 906.719,3460.58 -138.563,-16.07 -71.734,-71.73 138.562,16.06 71.735,71.74" /><path
         id="path220"
         style="fill:#fdde10;fill-opacity:1;fill-rule:nonzero;stroke:none"
         d="m 1313.65,3444.36 71.73,71.73 -138.56,-16.07 -71.73,-71.73 138.56,16.07" /><path
         id="path222"
         style="fill:#fdde10;fill-opacity:1;fill-rule:nonzero;stroke:none"
         d="m 935.754,3400.53 138.566,16.07 71.73,71.74 -138.56,-16.07 -71.736,-71.74" /><path
         id="path224"
         style="fill:#fdde10;fill-opacity:1;fill-rule:nonzero;stroke:none"
         d="m 1552.98,3472.11 71.73,71.74 -138.56,-16.07 -71.73,-71.73 138.56,16.06" /><path
         id="path226"
         style="fill:#fdde10;fill-opacity:1;fill-rule:nonzero;stroke:none"
         d="m 1653.75,3483.8 138.56,16.07 58.65,58.65 c -5.68,3.25 -11.41,6.41 -17.14,9.58 l -108.34,-12.56 -71.73,-71.74" /><path
         id="path228"
         style="fill:#fdde10;fill-opacity:1;fill-rule:nonzero;stroke:none"
         d="m 1921.41,3514.84 c -5.02,3.34 -10.04,6.67 -15.11,9.94 l -13.22,-13.22 28.33,3.28" /><path
         id="path230"
         style="fill:#fdde10;fill-opacity:1;fill-rule:nonzero;stroke:none"
         d="m 595.652,3361.09 71.735,71.73 -138.563,-16.07 -71.73,-71.73 138.558,16.07" /><path
         id="path232"
         style="fill:#fdde10;fill-opacity:1;fill-rule:nonzero;stroke:none"
         d="m 428.055,3405.07 -20.407,-2.37 c -25.378,-22.94 -49.765,-46.95 -73.168,-71.9 l 21.84,2.53 71.735,71.74" /><path
         id="path234"
         style="fill:#fdde10;fill-opacity:1;fill-rule:nonzero;stroke:none"
         d="m 528.824,3416.75 -100.769,-11.68 -71.735,-71.74 100.774,11.69 71.73,71.73" /><path
         id="path236"
         style="fill:#fdde10;fill-opacity:1;fill-rule:nonzero;stroke:none"
         d="m 768.156,3444.51 -100.769,-11.69 -71.735,-71.73 100.77,11.69 71.734,71.73" /><path
         id="path238"
         style="fill:#fdde10;fill-opacity:1;fill-rule:nonzero;stroke:none"
         d="m 935.754,3400.53 71.736,71.74 -100.771,-11.69 -71.735,-71.74 100.77,11.69" /><path
         id="path240"
         style="fill:#fdde10;fill-opacity:1;fill-rule:nonzero;stroke:none"
         d="m 1175.09,3428.29 71.73,71.73 -100.77,-11.68 -71.73,-71.74 100.77,11.69" /><path
         id="path242"
         style="fill:#fdde10;fill-opacity:1;fill-rule:nonzero;stroke:none"
         d="m 1414.42,3456.05 71.73,71.73 -100.77,-11.69 -71.73,-71.73 100.77,11.69" /><path
         id="path244"
         style="fill:#fdde10;fill-opacity:1;fill-rule:nonzero;stroke:none"
         d="m 1653.75,3483.8 71.73,71.74 -100.77,-11.69 -71.73,-71.74 100.77,11.69" /><path
         id="path246"
         style="fill:#fdde10;fill-opacity:1;fill-rule:nonzero;stroke:none"
         d="m 1906.3,3524.78 c -18.13,11.71 -36.57,22.97 -55.34,33.74 l -58.65,-58.65 100.77,11.69 13.22,13.22" /><path
         id="path248"
         style="fill:#fab20b;fill-opacity:1;fill-rule:nonzero;stroke:none"
         d="m 2028.19,3435.09 -66.14,-66.14 124.35,14.42 c -18.85,17.84 -38.27,35.08 -58.21,51.72" /><path
         id="path250"
         style="fill:#fab20b;fill-opacity:1;fill-rule:nonzero;stroke:none"
         d="m 903.949,3246.23 71.735,71.74 -138.563,-16.07 -71.734,-71.74 138.562,16.07" /><path
         id="path252"
         style="fill:#fab20b;fill-opacity:1;fill-rule:nonzero;stroke:none"
         d="m 497.02,3262.46 -138.559,-16.07 -71.734,-71.74 138.558,16.07 71.735,71.74" /><path
         id="path254"
         style="fill:#fab20b;fill-opacity:1;fill-rule:nonzero;stroke:none"
         d="m 257.688,3234.7 -5.028,-0.58 c -4.465,-5.86 -8.879,-11.75 -13.238,-17.69 l 18.266,18.27" /><path
         id="path256"
         style="fill:#fab20b;fill-opacity:1;fill-rule:nonzero;stroke:none"
         d="m 1382.61,3301.75 71.74,71.73 -138.57,-16.07 -71.73,-71.73 138.56,16.07" /><path
         id="path258"
         style="fill:#fab20b;fill-opacity:1;fill-rule:nonzero;stroke:none"
         d="m 1621.94,3329.5 71.74,71.74 -138.56,-16.07 -71.74,-71.74 138.56,16.07" /><path
         id="path260"
         style="fill:#fab20b;fill-opacity:1;fill-rule:nonzero;stroke:none"
         d="m 1861.28,3357.26 71.73,71.73 -138.56,-16.06 -71.74,-71.74 138.57,16.07" /><path
         id="path262"
         style="fill:#fab20b;fill-opacity:1;fill-rule:nonzero;stroke:none"
         d="m 664.617,3218.48 71.735,71.73 -138.563,-16.07 -71.734,-71.73 138.562,16.07" /><path
         id="path264"
         style="fill:#fab20b;fill-opacity:1;fill-rule:nonzero;stroke:none"
         d="m 1143.28,3273.99 71.73,71.74 -138.56,-16.07 -71.73,-71.74 138.56,16.07" /><path
         id="path266"
         style="fill:#fab20b;fill-opacity:1;fill-rule:nonzero;stroke:none"
         d="m 358.461,3246.39 -100.773,-11.69 -18.266,-18.27 c -12.356,-16.82 -24.289,-33.96 -35.801,-51.41 l 83.106,9.63 71.734,71.74" /><path
         id="path268"
         style="fill:#fab20b;fill-opacity:1;fill-rule:nonzero;stroke:none"
         d="m 597.789,3274.14 -100.769,-11.68 -71.735,-71.74 100.77,11.69 71.734,71.73" /><path
         id="path270"
         style="fill:#fab20b;fill-opacity:1;fill-rule:nonzero;stroke:none"
         d="m 837.121,3301.9 -100.769,-11.69 -71.735,-71.73 100.77,11.68 71.734,71.74" /><path
         id="path272"
         style="fill:#fab20b;fill-opacity:1;fill-rule:nonzero;stroke:none"
         d="m 1004.72,3257.92 71.73,71.74 -100.766,-11.69 -71.735,-71.74 100.771,11.69" /><path
         id="path274"
         style="fill:#fab20b;fill-opacity:1;fill-rule:nonzero;stroke:none"
         d="m 1244.05,3285.68 71.73,71.73 -100.77,-11.68 -71.73,-71.74 100.77,11.69" /><path
         id="path276"
         style="fill:#fab20b;fill-opacity:1;fill-rule:nonzero;stroke:none"
         d="m 1483.38,3313.43 71.74,71.74 -100.77,-11.69 -71.74,-71.73 100.77,11.68" /><path
         id="path278"
         style="fill:#fab20b;fill-opacity:1;fill-rule:nonzero;stroke:none"
         d="m 1722.71,3341.19 71.74,71.74 -100.77,-11.69 -71.74,-71.74 100.77,11.69" /><path
         id="path280"
         style="fill:#fab20b;fill-opacity:1;fill-rule:nonzero;stroke:none"
         d="m 1962.05,3368.95 66.14,66.14 c -1.73,1.44 -3.42,2.92 -5.15,4.34 l -90.03,-10.44 -71.73,-71.73 100.77,11.69" /><path
         id="path282"
         style="fill:#f68b3b;fill-opacity:1;fill-rule:nonzero;stroke:none"
         d="m 188.09,3076.02 -71.735,-71.73 138.563,16.07 71.734,71.73 -138.562,-16.07" /><path
         id="path284"
         style="fill:#f68b3b;fill-opacity:1;fill-rule:nonzero;stroke:none"
         d="m 1451.58,3159.14 71.73,71.73 -138.56,-16.07 -71.73,-71.73 138.56,16.07" /><path
         id="path286"
         style="fill:#f68b3b;fill-opacity:1;fill-rule:nonzero;stroke:none"
         d="m 565.984,3119.84 -138.562,-16.07 -71.734,-71.73 138.562,16.07 71.734,71.73" /><path
         id="path288"
         style="fill:#f68b3b;fill-opacity:1;fill-rule:nonzero;stroke:none"
         d="m 1690.91,3186.89 71.73,71.74 -138.56,-16.07 -71.73,-71.74 138.56,16.07" /><path
         id="path290"
         style="fill:#f68b3b;fill-opacity:1;fill-rule:nonzero;stroke:none"
         d="m 1212.24,3131.38 71.74,71.73 -138.56,-16.07 -71.74,-71.73 138.56,16.07" /><path
         id="path292"
         style="fill:#f68b3b;fill-opacity:1;fill-rule:nonzero;stroke:none"
         d="m 1791.68,3198.58 138.56,16.07 71.73,71.73 -138.56,-16.07 -71.73,-71.73" /><path
         id="path294"
         style="fill:#f68b3b;fill-opacity:1;fill-rule:nonzero;stroke:none"
         d="m 972.914,3103.63 71.736,71.73 -138.564,-16.07 -71.734,-71.74 138.562,16.08" /><path
         id="path296"
         style="fill:#f68b3b;fill-opacity:1;fill-rule:nonzero;stroke:none"
         d="m 805.316,3147.6 -138.562,-16.07 -71.734,-71.73 138.562,16.07 71.734,71.73" /><path
         id="path298"
         style="fill:#f68b3b;fill-opacity:1;fill-rule:nonzero;stroke:none"
         d="m 2031.01,3226.34 138.56,16.07 24.83,24.82 c -10.47,12.81 -21.21,25.37 -32.17,37.74 l -59.49,-6.9 -71.73,-71.73" /><path
         id="path300"
         style="fill:#f68b3b;fill-opacity:1;fill-rule:nonzero;stroke:none"
         d="m 188.09,3076.02 -40.551,-4.7 c -11.887,-22.04 -23.082,-44.5 -33.644,-67.32 l 2.46,0.29 71.735,71.73" /><path
         id="path302"
         style="fill:#f68b3b;fill-opacity:1;fill-rule:nonzero;stroke:none"
         d="m 427.422,3103.77 -100.77,-11.68 -71.734,-71.73 100.77,11.68 71.734,71.73" /><path
         id="path304"
         style="fill:#f68b3b;fill-opacity:1;fill-rule:nonzero;stroke:none"
         d="m 666.754,3131.53 -100.77,-11.69 -71.734,-71.73 100.77,11.69 71.734,71.73" /><path
         id="path306"
         style="fill:#f68b3b;fill-opacity:1;fill-rule:nonzero;stroke:none"
         d="m 906.086,3159.29 -100.77,-11.69 -71.734,-71.73 100.77,11.68 71.734,71.74" /><path
         id="path308"
         style="fill:#f68b3b;fill-opacity:1;fill-rule:nonzero;stroke:none"
         d="m 1073.68,3115.31 71.74,71.73 -100.77,-11.68 -71.736,-71.73 100.766,11.68" /><path
         id="path310"
         style="fill:#f68b3b;fill-opacity:1;fill-rule:nonzero;stroke:none"
         d="m 1313.02,3143.07 71.73,71.73 -100.77,-11.69 -71.74,-71.73 100.78,11.69" /><path
         id="path312"
         style="fill:#f68b3b;fill-opacity:1;fill-rule:nonzero;stroke:none"
         d="m 1552.35,3170.82 71.73,71.74 -100.77,-11.69 -71.73,-71.73 100.77,11.68" /><path
         id="path314"
         style="fill:#f68b3b;fill-opacity:1;fill-rule:nonzero;stroke:none"
         d="m 1791.68,3198.58 71.73,71.73 -100.77,-11.68 -71.73,-71.74 100.77,11.69" /><path
         id="path316"
         style="fill:#f68b3b;fill-opacity:1;fill-rule:nonzero;stroke:none"
         d="m 2031.01,3226.34 71.73,71.73 -100.77,-11.69 -71.73,-71.73 100.77,11.69" /><path
         id="path318"
         style="fill:#f68b3b;fill-opacity:1;fill-rule:nonzero;stroke:none"
         d="m 2194.4,3267.23 -24.83,-24.82 40.94,4.74 c -5.29,6.76 -10.68,13.44 -16.11,20.08" /><path
         id="path320"
         style="fill:#fbbc09;fill-opacity:1;fill-rule:nonzero;stroke:none"
         d="m 634.949,2977.23 -138.562,-16.07 -71.735,-71.73 138.563,16.07 71.734,71.73" /><path
         id="path322"
         style="fill:#fbbc09;fill-opacity:1;fill-rule:nonzero;stroke:none"
         d="m 395.617,2949.48 -138.562,-16.07 -71.735,-71.73 138.563,16.06 71.734,71.74" /><path
         id="path324"
         style="fill:#fbbc09;fill-opacity:1;fill-rule:nonzero;stroke:none"
         d="m 2099.97,3083.73 138.56,16.06 44.44,44.44 c -4.75,7.54 -9.6,15.02 -14.52,22.45 l -96.74,-11.22 -71.74,-71.73" /><path
         id="path326"
         style="fill:#fbbc09;fill-opacity:1;fill-rule:nonzero;stroke:none"
         d="m 156.285,2921.72 -80.4569,-9.33 c -7.9922,-21.71 -15.3593,-43.72 -22.1484,-65.98 l 30.8711,3.58 71.7342,71.73" /><path
         id="path328"
         style="fill:#fbbc09;fill-opacity:1;fill-rule:nonzero;stroke:none"
         d="m 1621.31,3028.21 138.56,16.07 71.74,71.74 -138.56,-16.07 -71.74,-71.74" /><path
         id="path330"
         style="fill:#fbbc09;fill-opacity:1;fill-rule:nonzero;stroke:none"
         d="m 975.051,3016.68 -71.735,-71.74 138.564,16.07 71.73,71.74 -138.559,-16.07" /><path
         id="path332"
         style="fill:#fbbc09;fill-opacity:1;fill-rule:nonzero;stroke:none"
         d="m 1381.98,3000.46 138.56,16.06 71.73,71.74 -138.56,-16.07 -71.73,-71.73" /><path
         id="path334"
         style="fill:#fbbc09;fill-opacity:1;fill-rule:nonzero;stroke:none"
         d="m 1214.38,3044.43 -71.73,-71.73 138.56,16.07 71.73,71.73 -138.56,-16.07" /><path
         id="path336"
         style="fill:#fbbc09;fill-opacity:1;fill-rule:nonzero;stroke:none"
         d="m 874.277,3004.99 -138.558,-16.07 -71.735,-71.73 138.563,16.07 71.73,71.73" /><path
         id="path338"
         style="fill:#fbbc09;fill-opacity:1;fill-rule:nonzero;stroke:none"
         d="m 1860.64,3055.97 138.56,16.07 71.74,71.73 -138.56,-16.07 -71.74,-71.73" /><path
         id="path340"
         style="fill:#fbbc09;fill-opacity:1;fill-rule:nonzero;stroke:none"
         d="m 185.32,2861.68 71.735,71.73 -100.77,-11.69 -71.7342,-71.73 100.7692,11.69" /><path
         id="path342"
         style="fill:#fbbc09;fill-opacity:1;fill-rule:nonzero;stroke:none"
         d="m 496.387,2961.16 -100.77,-11.68 -71.734,-71.74 100.769,11.69 71.735,71.73" /><path
         id="path344"
         style="fill:#fbbc09;fill-opacity:1;fill-rule:nonzero;stroke:none"
         d="m 735.719,2988.92 -100.77,-11.69 -71.734,-71.73 100.769,11.69 71.735,71.73" /><path
         id="path346"
         style="fill:#fbbc09;fill-opacity:1;fill-rule:nonzero;stroke:none"
         d="m 874.277,3004.99 -71.73,-71.73 100.769,11.68 71.735,71.74 -100.774,-11.69" /><path
         id="path348"
         style="fill:#fbbc09;fill-opacity:1;fill-rule:nonzero;stroke:none"
         d="m 1113.61,3032.75 -71.73,-71.74 100.77,11.69 71.73,71.73 -100.77,-11.68" /><path
         id="path350"
         style="fill:#fbbc09;fill-opacity:1;fill-rule:nonzero;stroke:none"
         d="m 1352.94,3060.5 -71.73,-71.73 100.77,11.69 71.73,71.73 -100.77,-11.69" /><path
         id="path352"
         style="fill:#fbbc09;fill-opacity:1;fill-rule:nonzero;stroke:none"
         d="m 1621.31,3028.21 71.74,71.74 -100.78,-11.69 -71.73,-71.74 100.77,11.69" /><path
         id="path354"
         style="fill:#fbbc09;fill-opacity:1;fill-rule:nonzero;stroke:none"
         d="m 1860.64,3055.97 71.74,71.73 -100.77,-11.68 -71.74,-71.74 100.77,11.69" /><path
         id="path356"
         style="fill:#fbbc09;fill-opacity:1;fill-rule:nonzero;stroke:none"
         d="m 2099.97,3083.73 71.74,71.73 -100.77,-11.69 -71.74,-71.73 100.77,11.69" /><path
         id="path358"
         style="fill:#fbbc09;fill-opacity:1;fill-rule:nonzero;stroke:none"
         d="m 2282.97,3144.23 -44.44,-44.44 66.73,7.74 c -7.22,12.38 -14.65,24.61 -22.29,36.7" /><path
         id="path360"
         style="fill:#f08913;fill-opacity:1;fill-rule:nonzero;stroke:none"
         d="m 565.352,2818.55 -71.735,-71.73 138.563,16.07 71.73,71.74 -138.558,-16.08" /><path
         id="path362"
         style="fill:#f08913;fill-opacity:1;fill-rule:nonzero;stroke:none"
         d="m 804.684,2846.31 -71.735,-71.74 138.559,16.07 71.734,71.74 -138.558,-16.07" /><path
         id="path364"
         style="fill:#f08913;fill-opacity:1;fill-rule:nonzero;stroke:none"
         d="m 1044.01,2874.07 -71.729,-71.74 138.559,16.07 71.74,71.74 -138.57,-16.07" /><path
         id="path366"
         style="fill:#f08913;fill-opacity:1;fill-rule:nonzero;stroke:none"
         d="m 1690.28,2885.6 138.56,16.07 71.73,71.74 -138.56,-16.07 -71.73,-71.74" /><path
         id="path368"
         style="fill:#f08913;fill-opacity:1;fill-rule:nonzero;stroke:none"
         d="m 1522.68,2929.58 -71.74,-71.74 138.56,16.07 71.74,71.74 -138.56,-16.07" /><path
         id="path370"
         style="fill:#f08913;fill-opacity:1;fill-rule:nonzero;stroke:none"
         d="m 1929.61,2913.36 138.56,16.07 71.73,71.73 -138.56,-16.07 -71.73,-71.73" /><path
         id="path372"
         style="fill:#f08913;fill-opacity:1;fill-rule:nonzero;stroke:none"
         d="m 153.516,2707.38 71.73,71.73 -138.5585,-16.07 -69.0312,-69.03 c -0.1368,-0.81 -0.2696,-1.63 -0.4063,-2.44 l 136.266,15.81" /><path
         id="path374"
         style="fill:#f08913;fill-opacity:1;fill-rule:nonzero;stroke:none"
         d="m 2168.94,2941.11 138.56,16.07 50.2,50.2 c -2.82,6.04 -5.64,12.07 -8.56,18.05 l -108.47,-12.58 -71.73,-71.74" /><path
         id="path376"
         style="fill:#f08913;fill-opacity:1;fill-rule:nonzero;stroke:none"
         d="m 464.578,2806.87 -138.558,-16.07 -71.735,-71.74 138.563,16.07 71.73,71.74" /><path
         id="path378"
         style="fill:#f08913;fill-opacity:1;fill-rule:nonzero;stroke:none"
         d="m 1421.91,2917.89 -138.56,-16.07 -71.74,-71.73 138.56,16.07 71.74,71.73" /><path
         id="path380"
         style="fill:#f08913;fill-opacity:1;fill-rule:nonzero;stroke:none"
         d="m 29.9375,2756.46 c -4.6172,-20.63 -8.707,-41.45 -12.2812,-62.45 l 69.0312,69.03 -56.75,-6.58" /><path
         id="path382"
         style="fill:#f08913;fill-opacity:1;fill-rule:nonzero;stroke:none"
         d="m 326.02,2790.8 -100.774,-11.69 -71.73,-71.73 100.769,11.68 71.735,71.74" /><path
         id="path384"
         style="fill:#f08913;fill-opacity:1;fill-rule:nonzero;stroke:none"
         d="m 464.578,2806.87 -71.73,-71.74 100.769,11.69 71.735,71.73 -100.774,-11.68" /><path
         id="path386"
         style="fill:#f08913;fill-opacity:1;fill-rule:nonzero;stroke:none"
         d="m 703.91,2834.63 -71.73,-71.74 100.769,11.68 71.735,71.74 -100.774,-11.68" /><path
         id="path388"
         style="fill:#f08913;fill-opacity:1;fill-rule:nonzero;stroke:none"
         d="m 943.242,2862.38 -71.734,-71.74 100.773,11.69 71.729,71.74 -100.768,-11.69" /><path
         id="path390"
         style="fill:#f08913;fill-opacity:1;fill-rule:nonzero;stroke:none"
         d="m 1182.58,2890.14 -71.74,-71.74 100.77,11.69 71.74,71.73 -100.77,-11.68" /><path
         id="path392"
         style="fill:#f08913;fill-opacity:1;fill-rule:nonzero;stroke:none"
         d="m 1421.91,2917.89 -71.74,-71.73 100.77,11.68 71.74,71.74 -100.77,-11.69" /><path
         id="path394"
         style="fill:#f08913;fill-opacity:1;fill-rule:nonzero;stroke:none"
         d="m 1661.24,2945.65 -71.74,-71.74 100.78,11.69 71.73,71.74 -100.77,-11.69" /><path
         id="path396"
         style="fill:#f08913;fill-opacity:1;fill-rule:nonzero;stroke:none"
         d="m 1929.61,2913.36 71.73,71.73 -100.77,-11.68 -71.73,-71.74 100.77,11.69" /><path
         id="path398"
         style="fill:#f08913;fill-opacity:1;fill-rule:nonzero;stroke:none"
         d="m 2168.94,2941.11 71.73,71.74 -100.77,-11.69 -71.73,-71.73 100.77,11.68" /><path
         id="path400"
         style="fill:#f08913;fill-opacity:1;fill-rule:nonzero;stroke:none"
         d="m 2357.7,3007.38 -50.2,-50.2 69.01,8.01 c -5.99,14.21 -12.31,28.25 -18.81,42.19" /><path
         id="path402"
         style="fill:#f9a72b;fill-opacity:1;fill-rule:nonzero;stroke:none"
         d="m 2309.64,2870.24 -71.74,-71.74 138.56,16.07 40.42,40.42 c -2.8,8.93 -5.67,17.83 -8.66,26.68 l -98.58,-11.43" /><path
         id="path404"
         style="fill:#f9a72b;fill-opacity:1;fill-rule:nonzero;stroke:none"
         d="m 1830.97,2814.73 -71.73,-71.74 138.56,16.07 71.73,71.73 -138.56,-16.06" /><path
         id="path406"
         style="fill:#f9a72b;fill-opacity:1;fill-rule:nonzero;stroke:none"
         d="m 155.652,2620.43 -71.734,-71.73 138.562,16.06 71.735,71.74 -138.563,-16.07" /><path
         id="path408"
         style="fill:#f9a72b;fill-opacity:1;fill-rule:nonzero;stroke:none"
         d="m 5.625,2603.03 c -1.47656,-15.62 -2.67187,-31.32 -3.5625,-47.11 l 52.8203,52.82 -49.2578,-5.71" /><path
         id="path410"
         style="fill:#f9a72b;fill-opacity:1;fill-rule:nonzero;stroke:none"
         d="m 1112.98,2731.46 -71.74,-71.74 138.57,16.07 71.73,71.73 -138.56,-16.06" /><path
         id="path412"
         style="fill:#f9a72b;fill-opacity:1;fill-rule:nonzero;stroke:none"
         d="m 394.984,2648.19 -71.734,-71.74 138.559,16.07 71.734,71.74 -138.559,-16.07" /><path
         id="path414"
         style="fill:#f9a72b;fill-opacity:1;fill-rule:nonzero;stroke:none"
         d="m 2070.31,2842.48 -71.74,-71.73 138.56,16.07 71.74,71.73 -138.56,-16.07" /><path
         id="path416"
         style="fill:#f9a72b;fill-opacity:1;fill-rule:nonzero;stroke:none"
         d="m 1012.21,2719.77 -138.562,-16.07 -71.734,-71.74 138.559,16.07 71.737,71.74" /><path
         id="path418"
         style="fill:#f9a72b;fill-opacity:1;fill-rule:nonzero;stroke:none"
         d="m 634.316,2675.94 -71.734,-71.73 138.559,16.07 71.734,71.73 -138.559,-16.07" /><path
         id="path420"
         style="fill:#f9a72b;fill-opacity:1;fill-rule:nonzero;stroke:none"
         d="m 1352.31,2759.21 -71.73,-71.73 138.56,16.07 71.73,71.73 -138.56,-16.07" /><path
         id="path422"
         style="fill:#f9a72b;fill-opacity:1;fill-rule:nonzero;stroke:none"
         d="m 1591.64,2786.97 -71.73,-71.74 138.56,16.07 71.73,71.74 -138.56,-16.07" /><path
         id="path424"
         style="fill:#f9a72b;fill-opacity:1;fill-rule:nonzero;stroke:none"
         d="M 54.8828,2608.74 2.0625,2555.92 c -0.31641,-5.59 -0.57812,-11.2 -0.82031,-16.81 l 82.67581,9.59 71.734,71.73 -100.7692,-11.69" /><path
         id="path426"
         style="fill:#f9a72b;fill-opacity:1;fill-rule:nonzero;stroke:none"
         d="m 294.215,2636.5 -71.735,-71.74 100.77,11.69 71.734,71.74 -100.769,-11.69" /><path
         id="path428"
         style="fill:#f9a72b;fill-opacity:1;fill-rule:nonzero;stroke:none"
         d="m 533.543,2664.26 -71.734,-71.74 100.773,11.69 71.734,71.73 -100.773,-11.68" /><path
         id="path430"
         style="fill:#f9a72b;fill-opacity:1;fill-rule:nonzero;stroke:none"
         d="m 772.875,2692.01 -71.734,-71.73 100.773,11.68 71.734,71.74 -100.773,-11.69" /><path
         id="path432"
         style="fill:#f9a72b;fill-opacity:1;fill-rule:nonzero;stroke:none"
         d="m 1012.21,2719.77 -71.737,-71.74 100.767,11.69 71.74,71.74 -100.77,-11.69" /><path
         id="path434"
         style="fill:#f9a72b;fill-opacity:1;fill-rule:nonzero;stroke:none"
         d="m 1251.54,2747.52 -71.73,-71.73 100.77,11.69 71.73,71.73 -100.77,-11.69" /><path
         id="path436"
         style="fill:#f9a72b;fill-opacity:1;fill-rule:nonzero;stroke:none"
         d="m 1490.87,2775.28 -71.73,-71.73 100.77,11.68 71.73,71.74 -100.77,-11.69" /><path
         id="path438"
         style="fill:#f9a72b;fill-opacity:1;fill-rule:nonzero;stroke:none"
         d="m 1730.2,2803.04 -71.73,-71.74 100.77,11.69 71.73,71.74 -100.77,-11.69" /><path
         id="path440"
         style="fill:#f9a72b;fill-opacity:1;fill-rule:nonzero;stroke:none"
         d="m 1969.53,2830.79 -71.73,-71.73 100.77,11.69 71.74,71.73 -100.78,-11.69" /><path
         id="path442"
         style="fill:#f9a72b;fill-opacity:1;fill-rule:nonzero;stroke:none"
         d="m 2137.13,2786.82 100.77,11.68 71.74,71.74 -100.77,-11.69 -71.74,-71.73" /><path
         id="path444"
         style="fill:#f9a72b;fill-opacity:1;fill-rule:nonzero;stroke:none"
         d="m 2427.13,2820.45 c -3.26,11.58 -6.67,23.1 -10.25,34.54 l -40.42,-40.42 50.67,5.88" /><path
         id="path446"
         style="fill:#f14624;fill-opacity:1;fill-rule:nonzero;stroke:none"
         d="m 1181.94,2588.84 -71.73,-71.73 138.56,16.07 71.73,71.73 -138.56,-16.07" /><path
         id="path448"
         style="fill:#f14624;fill-opacity:1;fill-rule:nonzero;stroke:none"
         d="m 703.281,2533.33 -71.734,-71.73 138.558,16.07 71.735,71.73 -138.559,-16.07" /><path
         id="path450"
         style="fill:#f14624;fill-opacity:1;fill-rule:nonzero;stroke:none"
         d="m 602.508,2521.64 -138.559,-16.07 -71.734,-71.73 138.558,16.07 71.735,71.73" /><path
         id="path452"
         style="fill:#f14624;fill-opacity:1;fill-rule:nonzero;stroke:none"
         d="m 942.609,2561.09 -71.73,-71.74 138.561,16.07 71.73,71.74 -138.561,-16.07" /><path
         id="path454"
         style="fill:#f14624;fill-opacity:1;fill-rule:nonzero;stroke:none"
         d="m 0.457031,2451.82 c 0.558599,-21.15 1.648439,-42.16 3.253909,-63.04 l 48.40236,5.62 71.7307,71.73 -123.386969,-14.31" /><path
         id="path456"
         style="fill:#f14624;fill-opacity:1;fill-rule:nonzero;stroke:none"
         d="m 224.617,2477.82 -71.734,-71.74 138.558,16.07 71.735,71.74 -138.559,-16.07" /><path
         id="path458"
         style="fill:#f14624;fill-opacity:1;fill-rule:nonzero;stroke:none"
         d="m 1899.94,2672.11 -71.74,-71.73 138.56,16.07 71.74,71.73 -138.56,-16.07" /><path
         id="path460"
         style="fill:#f14624;fill-opacity:1;fill-rule:nonzero;stroke:none"
         d="m 2139.27,2699.87 -71.73,-71.73 138.56,16.07 71.73,71.73 -138.56,-16.07" /><path
         id="path462"
         style="fill:#f14624;fill-opacity:1;fill-rule:nonzero;stroke:none"
         d="m 1421.27,2616.6 -71.73,-71.73 138.56,16.07 71.74,71.73 -138.57,-16.07" /><path
         id="path464"
         style="fill:#f14624;fill-opacity:1;fill-rule:nonzero;stroke:none"
         d="m 1660.61,2644.36 -71.74,-71.74 138.56,16.07 71.74,71.74 -138.56,-16.07" /><path
         id="path466"
         style="fill:#f14624;fill-opacity:1;fill-rule:nonzero;stroke:none"
         d="m 2447.76,2735.65 -69.16,-8.02 -71.73,-71.74 138.56,16.07 11.78,11.79 c -2.81,17.41 -5.92,34.73 -9.45,51.9" /><path
         id="path468"
         style="fill:#f14624;fill-opacity:1;fill-rule:nonzero;stroke:none"
         d="m 123.844,2466.13 -71.7307,-71.73 100.7697,11.68 71.734,71.74 -100.773,-11.69" /><path
         id="path470"
         style="fill:#f14624;fill-opacity:1;fill-rule:nonzero;stroke:none"
         d="m 363.176,2493.89 -71.735,-71.74 100.774,11.69 71.734,71.73 -100.773,-11.68" /><path
         id="path472"
         style="fill:#f14624;fill-opacity:1;fill-rule:nonzero;stroke:none"
         d="m 602.508,2521.64 -71.735,-71.73 100.774,11.69 71.734,71.73 -100.773,-11.69" /><path
         id="path474"
         style="fill:#f14624;fill-opacity:1;fill-rule:nonzero;stroke:none"
         d="m 841.84,2549.4 -71.735,-71.73 100.774,11.68 71.73,71.74 -100.769,-11.69" /><path
         id="path476"
         style="fill:#f14624;fill-opacity:1;fill-rule:nonzero;stroke:none"
         d="m 1081.17,2577.16 -71.73,-71.74 100.77,11.69 71.73,71.73 -100.77,-11.68" /><path
         id="path478"
         style="fill:#f14624;fill-opacity:1;fill-rule:nonzero;stroke:none"
         d="m 1320.5,2604.91 -71.73,-71.73 100.77,11.69 71.73,71.73 -100.77,-11.69" /><path
         id="path480"
         style="fill:#f14624;fill-opacity:1;fill-rule:nonzero;stroke:none"
         d="m 1559.84,2632.67 -71.74,-71.73 100.77,11.68 71.74,71.74 -100.77,-11.69" /><path
         id="path482"
         style="fill:#f14624;fill-opacity:1;fill-rule:nonzero;stroke:none"
         d="m 1799.17,2660.43 -71.74,-71.74 100.77,11.69 71.74,71.73 -100.77,-11.68" /><path
         id="path484"
         style="fill:#f14624;fill-opacity:1;fill-rule:nonzero;stroke:none"
         d="m 2038.5,2688.18 -71.74,-71.73 100.78,11.69 71.73,71.73 -100.77,-11.69" /><path
         id="path486"
         style="fill:#f14624;fill-opacity:1;fill-rule:nonzero;stroke:none"
         d="m 2277.83,2715.94 -71.73,-71.73 100.77,11.68 71.73,71.74 -100.77,-11.69" /><path
         id="path488"
         style="fill:#f14624;fill-opacity:1;fill-rule:nonzero;stroke:none"
         d="m 2445.43,2671.96 13.48,1.56 c -0.53,3.43 -1.15,6.82 -1.7,10.23 l -11.78,-11.79" /><path
         id="path490"
         style="fill:#72cfc1;fill-opacity:1;fill-rule:nonzero;stroke:none"
         d="m 2468.92,2587.49 -21.35,-2.47 -100.78,-11.69 -138.56,-16.07 -100.77,-11.69 -138.56,-16.07 -100.77,-11.68 -138.56,-16.07 -100.77,-11.69 -138.56,-16.07 -100.77,-11.69 -138.56,-16.07 -100.77,-11.68 -138.56,-16.07 -100.775,-11.69 -138.563,-16.07 -100.769,-11.69 -138.559,-16.07 -100.773,-11.68 -138.563,-16.07 -100.769,-11.69 -138.559,-16.07 -40.8281,-4.73 c 1.539,-10.41 3.2031,-20.78 5,-31.1 1.8086,-10.4 3.7422,-20.76 5.8125,-31.06 l 96.8396,11.23 100.774,11.68 138.558,16.07 100.774,11.69 138.558,16.07 100.774,11.69 138.558,16.07 100.774,11.68 138.556,16.07 100.77,11.69 138.56,16.07 100.78,11.69 138.56,16.06 100.77,11.69 138.56,16.07 100.77,11.69 138.56,16.07 100.77,11.68 138.56,16.07 100.77,11.69 96.65,11.21 c -0.66,21.14 -1.85,42.14 -3.56,63" /><path
         id="path492"
         style="fill:#ffffff;fill-opacity:1;fill-rule:nonzero;stroke:none"
         d="m 2086.4,3383.37 c 2.15,-2.03 4.3,-4.08 6.43,-6.13" /><path
         id="path494"
         style="fill:#ffffff;fill-opacity:1;fill-rule:nonzero;stroke:none"
         d="m 2233.3,3217.05 c 12.12,-16.48 23.84,-33.28 35.15,-50.37" /><path
         id="path496"
         style="fill:#ffffff;fill-opacity:1;fill-rule:nonzero;stroke:none"
         d="m 0.457031,2451.82 c -0.117187,4.39 -0.132812,8.81 -0.203125,13.21" /><path
         id="path498"
         style="fill:#ffffff;fill-opacity:1;fill-rule:nonzero;stroke:none"
         d="m 1921.41,3514.84 c 19.41,-12.94 38.46,-26.38 57.08,-40.36" /><path
         id="path500"
         style="fill:#ffffff;fill-opacity:1;fill-rule:nonzero;stroke:none"
         d="m 505.277,3482.29 c 10.485,7.7 21.09,15.24 31.825,22.62" /><path
         id="path502"
         style="fill:#ffffff;fill-opacity:1;fill-rule:nonzero;stroke:none"
         d="m 147.539,3071.32 c 17.328,32.12 36.074,63.36 56.082,93.7" /><path
         id="path504"
         style="fill:#ffffff;fill-opacity:1;fill-rule:nonzero;stroke:none"
         d="m 29.9375,2756.46 c 3.8906,17.38 8.1641,34.6 12.7773,51.69" /><path
         id="path506"
         style="fill:#ffffff;fill-opacity:1;fill-rule:nonzero;stroke:none"
         d="m 2210.51,3247.15 c 7.76,-9.9 15.33,-19.96 22.79,-30.1" /><path
         id="path508"
         style="fill:#ffffff;fill-opacity:1;fill-rule:nonzero;stroke:none"
         d="m 2376.51,2965.19 c 2.79,-6.61 5.47,-13.27 8.15,-19.93" /><path
         id="path510"
         style="fill:#ffffff;fill-opacity:1;fill-rule:nonzero;stroke:none"
         d="m 1555.75,3686.46 -17.08,-1.98 c 4.01,-1.01 8.03,-2.02 12.03,-3.07 l 5.05,5.05" /><path
         id="path512"
         style="fill:#ffffff;fill-opacity:1;fill-rule:nonzero;stroke:none"
         d="m 537.102,3504.91 c 41.882,28.78 85.613,55.07 131.003,78.61" /><path
         id="path514"
         style="fill:#ffffff;fill-opacity:1;fill-rule:nonzero;stroke:none"
         d="m 1555.75,3686.46 -5.05,-5.05 c 23.23,-6.09 46.17,-12.86 68.84,-20.24" /><path
         id="path516"
         style="fill:#ffffff;fill-opacity:1;fill-rule:nonzero;stroke:none"
         d="m 203.621,3165.02 c 11.512,17.45 23.445,34.59 35.801,51.41" /><path
         id="path518"
         style="fill:#ffffff;fill-opacity:1;fill-rule:nonzero;stroke:none"
         d="m 2023.04,3439.43 c 1.73,-1.42 3.42,-2.9 5.15,-4.34" /><path
         id="path520"
         style="fill:#ffffff;fill-opacity:1;fill-rule:nonzero;stroke:none"
         d="m 2162.23,3304.97 c 10.96,-12.37 21.7,-24.93 32.17,-37.74" /><path
         id="path522"
         style="fill:#ffffff;fill-opacity:1;fill-rule:nonzero;stroke:none"
         d="m 2194.4,3267.23 c 5.43,-6.64 10.82,-13.32 16.11,-20.08" /><path
         id="path524"
         style="fill:#ffffff;fill-opacity:1;fill-rule:nonzero;stroke:none"
         d="m 2268.45,3166.68 c 4.92,-7.43 9.77,-14.91 14.52,-22.45" /><path
         id="path526"
         style="fill:#ffffff;fill-opacity:1;fill-rule:nonzero;stroke:none"
         d="m 17.6563,2694.01 -2.7032,-2.7 2.2969,0.26 c 0.1367,0.81 0.2695,1.63 0.4063,2.44" /><path
         id="path528"
         style="fill:#ffffff;fill-opacity:1;fill-rule:nonzero;stroke:none"
         d="m 2349.14,3025.43 c 2.92,-5.98 5.74,-12.01 8.56,-18.05" /><path
         id="path530"
         style="fill:#ffffff;fill-opacity:1;fill-rule:nonzero;stroke:none"
         d="m 1.24219,2539.11 c 0.24219,5.61 0.5039,11.22 0.82031,16.81" /><path
         id="path532"
         style="fill:#ffffff;fill-opacity:1;fill-rule:nonzero;stroke:none"
         d="m 24.2344,2240.56 c -2.0703,10.3 -4.0039,20.66 -5.8125,31.06" /><path
         id="path534"
         style="fill:#685243;fill-opacity:1;fill-rule:nonzero;stroke:none"
         d="m 3932.46,2669.64 -345.59,424.78 -208.8,-211.19 v -213.59 h -62.39 v 839.97 h 62.39 v -551.98 l 535.19,551.98 h 85.2 l -367.19,-370.79 382.78,-469.18 h -81.59" /><path
         id="path536"
         style="fill:#685243;fill-opacity:1;fill-rule:nonzero;stroke:none"
         d="m 4641.67,3447.21 -221.99,-485.98 h 442.78 z m 353.98,-777.57 -106.79,235.18 h -495.58 l -106.8,-235.18 h -64.79 l 391.18,845.97 h 59.99 l 391.19,-845.97 h -68.4" /><path
         id="path538"
         style="fill:#685243;fill-opacity:1;fill-rule:nonzero;stroke:none"
         d="m 5961.65,2669.64 v 393.58 h -537.58 v -393.58 h -62.4 v 839.97 h 62.4 v -388.79 h 537.58 v 388.79 h 62.39 v -839.97 h -62.39" /><path
         id="path540"
         style="fill:#685243;fill-opacity:1;fill-rule:nonzero;stroke:none"
         d="m 6741.65,3447.21 -221.99,-485.98 h 442.78 z m 353.98,-777.57 -106.79,235.18 h -495.58 l -106.8,-235.18 h -64.79 l 391.18,845.97 h 59.99 l 391.19,-845.97 h -68.4" /><path
         id="path542"
         style="fill:#685243;fill-opacity:1;fill-rule:nonzero;stroke:none"
         d="M 8113.22,2669.64 7521.65,3416 v -746.36 h -60 v 839.97 h 58.8 l 579.58,-730.77 v 730.77 h 59.99 v -839.97 h -46.8" /><path
         id="path544"
         style="fill:#685243;fill-opacity:1;fill-rule:nonzero;stroke:none"
         d="m 8529.64,2669.64 v 839.97 h 597.58 v -57.6 h -535.18 v -329.99 h 481.17 v -57.6 h -481.17 v -337.19 h 541.17 v -57.59 h -603.57" /><path
         id="path546"
         style="fill:#685243;fill-opacity:1;fill-rule:nonzero;stroke:none"
         d="m 3378.07,2232.01 v -344.39 h 475.19 v -57.6 h -475.19 v -380.38 h -62.39 v 839.97 h 591.57 v -57.6 h -529.18" /><path
         id="path548"
         style="fill:#685243;fill-opacity:1;fill-rule:nonzero;stroke:none"
         d="m 4941.62,1869.62 c 0,207.6 -151.2,377.99 -358.79,377.99 -207.59,0 -356.39,-168 -356.39,-375.59 v -2.4 c 0,-207.59 151.2,-377.98 358.79,-377.98 207.59,0 356.39,167.99 356.39,375.59 z m -358.79,-434.39 c -254.38,0 -421.18,202.8 -421.18,432 v 2.39 c 0,229.19 169.19,434.38 423.58,434.38 254.39,0 421.18,-202.79 421.18,-431.98 1.21,-1.2 1.21,-1.2 0,-2.4 0,-229.19 -169.19,-434.39 -423.58,-434.39" /><path
         id="path550"
         style="fill:#685243;fill-opacity:1;fill-rule:nonzero;stroke:none"
         d="m 5670.03,1436.43 c -201.6,0 -344.4,127.2 -344.4,362.4 v 490.78 h 62.41 v -484.79 c 0,-197.99 106.79,-311.99 284.38,-311.99 170.4,0 279.59,103.2 279.59,306 v 490.78 h 62.4 v -483.59 c 0,-241.19 -140.4,-369.59 -344.38,-369.59" /><path
         id="path552"
         style="fill:#685243;fill-opacity:1;fill-rule:nonzero;stroke:none"
         d="M 7022.4,1449.64 6430.83,2196 v -746.36 h -60 v 839.97 h 58.8 l 579.58,-730.77 v 730.77 h 59.99 v -839.97 h -46.8" /><path
         id="path554"
         style="fill:#685243;fill-opacity:1;fill-rule:nonzero;stroke:none"
         d="m 8099.99,1869.62 c 0,199.19 -147.6,362.39 -381.58,362.39 h -217.19 v -724.78 h 217.19 c 233.98,0 381.58,159.59 381.58,360 z m -381.58,-419.98 h -279.59 v 839.97 h 279.59 c 263.98,0 446.37,-181.2 446.37,-417.59 v -2.4 c 0,-236.39 -182.39,-419.98 -446.37,-419.98" /><path
         id="path556"
         style="fill:#685243;fill-opacity:1;fill-rule:nonzero;stroke:none"
         d="m 8791.3,2227.21 -221.99,-485.98 h 442.78 z m 353.98,-777.57 -106.79,235.18 h -495.58 l -106.8,-235.18 h -64.79 l 391.18,845.96 h 59.99 l 391.19,-845.96 h -68.4" /><path
         id="path558"
         style="fill:#685243;fill-opacity:1;fill-rule:nonzero;stroke:none"
         d="m 9698.38,2232.01 v -782.37 h -62.39 v 782.37 h -292.8 v 57.6 h 647.98 v -57.6 h -292.79" /><path
         id="path560"
         style="fill:#685243;fill-opacity:1;fill-rule:nonzero;stroke:none"
         d="m 10309.2,1449.64 v 839.97 h 62.4 v -839.97 h -62.4" /><path
         id="path562"
         style="fill:#685243;fill-opacity:1;fill-rule:nonzero;stroke:none"
         d="m 11492.3,1869.62 c 0,207.6 -151.2,377.99 -358.7,377.99 -207.6,0 -356.4,-168 -356.4,-375.59 v -2.4 c 0,-207.59 151.2,-377.98 358.8,-377.98 207.5,0 356.3,167.99 356.3,375.59 z m -358.7,-434.39 c -254.4,0 -421.2,202.8 -421.2,432 v 2.39 c 0,229.19 169.2,434.38 423.6,434.38 254.3,0 421.1,-202.79 421.1,-431.98 1.2,-1.2 1.2,-1.2 0,-2.4 0,-229.19 -169.2,-434.39 -423.5,-434.39" /><path
         id="path564"
         style="fill:#685243;fill-opacity:1;fill-rule:nonzero;stroke:none"
         d="M 12541.1,1449.64 11949.6,2196 v -746.36 h -60 v 839.97 h 58.8 l 579.5,-730.77 v 730.77 h 60 v -839.97 h -46.8" /><path
         id="path566"
         style="fill:#776355;fill-opacity:1;fill-rule:nonzero;stroke:none"
         d="m 3340.53,845.961 v -82.602 h -34.45 v 195.993 h 34.45 v -81.473 h 93.52 v 81.473 h 34.44 V 763.359 h -34.44 v 82.602 h -93.52" /><path
         id="path568"
         style="fill:#776355;fill-opacity:1;fill-rule:nonzero;stroke:none"
         d="m 3742.61,928.551 h -110.88 v -50.949 h 98.28 v -30.801 h -98.28 V 794.16 h 112.28 v -30.801 h -146.73 v 195.993 h 145.33 v -30.801" /><path
         id="path570"
         style="fill:#776355;fill-opacity:1;fill-rule:nonzero;stroke:none"
         d="m 3863.28,959.352 h 34.44 V 794.719 h 103.04 v -31.36 h -137.48 v 195.993" /><path
         id="path572"
         style="fill:#776355;fill-opacity:1;fill-rule:nonzero;stroke:none"
         d="m 4189.48,928 h -40.04 v -70.559 h 40.04 c 26.05,0 42.29,14.278 42.29,35.27 0,23.25 -16.53,35.289 -42.29,35.289 z m -1.11,-101.641 h -38.93 v -63 H 4115 v 195.993 h 77.28 c 45.64,0 74.49,-25.75 74.49,-65.801 0,-44.242 -35.29,-67.192 -78.4,-67.192" /><path
         id="path574"
         style="fill:#776355;fill-opacity:1;fill-rule:nonzero;stroke:none"
         d="M 4416.85,959.352 V 763.359 h -34.44 v 195.993 h 34.44" /><path
         id="path576"
         style="fill:#776355;fill-opacity:1;fill-rule:nonzero;stroke:none"
         d="m 4684.53,959.352 h 33.88 V 763.359 h -28.84 L 4581.49,902.801 V 763.359 h -33.88 v 195.993 h 31.92 l 105,-135.512 v 135.512" /><path
         id="path578"
         style="fill:#776355;fill-opacity:1;fill-rule:nonzero;stroke:none"
         d="m 4940.17,760 c -61.32,0 -101.64,43.68 -101.64,101.07 0,55.168 42,101.641 101.08,101.641 34.16,0 55.16,-9.512 75.32,-26.59 l -21.84,-26.039 c -15.12,12.879 -29.96,20.988 -54.88,20.988 -36.12,0 -63.56,-31.351 -63.56,-69.429 0,-40.61 26.6,-70.282 66.64,-70.282 18.48,0 35.28,5.871 47.32,14.84 v 36.68 h -50.12 v 29.961 h 83.44 V 790.52 C 5002.61,774 4974.89,760 4940.17,760" /><path
         id="path580"
         style="fill:#776355;fill-opacity:1;fill-rule:nonzero;stroke:none"
         d="m 5382,928 h -40.04 V 857.441 H 5382 c 26.05,0 42.29,14.278 42.29,35.27 0,23.25 -16.53,35.289 -42.29,35.289 z m -1.11,-101.641 h -38.93 v -63 h -34.44 v 195.993 h 77.28 c 45.64,0 74.49,-25.75 74.49,-65.801 0,-44.242 -35.29,-67.192 -78.4,-67.192" /><path
         id="path582"
         style="fill:#776355;fill-opacity:1;fill-rule:nonzero;stroke:none"
         d="M 5718.28,928.551 H 5607.4 v -50.949 h 98.28 V 846.801 H 5607.4 V 794.16 h 112.29 v -30.801 h -146.73 v 195.993 h 145.32 v -30.801" /><path
         id="path584"
         style="fill:#776355;fill-opacity:1;fill-rule:nonzero;stroke:none"
         d="m 5932.49,931.07 c -38.93,0 -66.08,-31.07 -66.08,-69.429 0,-38.36 27.72,-70 66.64,-70 38.92,0 66.08,31.07 66.08,69.429 0,38.371 -27.72,70 -66.64,70 z m 0,-171.07 c -60.21,0 -102.2,45.629 -102.2,101.07 0,55.45 42.56,101.641 102.76,101.641 60.2,0 102.19,-45.633 102.19,-101.07 C 6035.24,806.199 5992.68,760 5932.49,760" /><path
         id="path586"
         style="fill:#776355;fill-opacity:1;fill-rule:nonzero;stroke:none"
         d="m 6229.84,928 h -40.04 v -70.559 h 40.04 c 26.05,0 42.29,14.278 42.29,35.27 0,23.25 -16.53,35.289 -42.29,35.289 z m -1.12,-101.641 h -38.92 v -63 h -34.44 v 195.993 h 77.29 c 45.63,0 74.48,-25.75 74.48,-65.801 0,-44.242 -35.29,-67.192 -78.41,-67.192" /><path
         id="path588"
         style="fill:#776355;fill-opacity:1;fill-rule:nonzero;stroke:none"
         d="m 6420.8,959.352 h 34.44 V 794.719 h 103.04 v -31.36 H 6420.8 v 195.993" /><path
         id="path590"
         style="fill:#776355;fill-opacity:1;fill-rule:nonzero;stroke:none"
         d="m 6817.84,928.551 h -110.88 v -50.949 h 98.28 v -30.801 h -98.28 V 794.16 h 112.29 v -30.801 h -146.73 v 195.993 h 145.32 v -30.801" /><path
         id="path592"
         style="fill:#776355;fill-opacity:1;fill-rule:nonzero;stroke:none"
         d="m 7183.79,763.359 h -34.72 v 164.082 h -62.16 v 31.911 h 159.04 v -31.911 h -62.16 V 763.359" /><path
         id="path594"
         style="fill:#776355;fill-opacity:1;fill-rule:nonzero;stroke:none"
         d="m 7443.61,931.07 c -38.92,0 -66.08,-31.07 -66.08,-69.429 0,-38.36 27.72,-70 66.64,-70 38.92,0 66.08,31.07 66.08,69.429 0,38.371 -27.72,70 -66.64,70 z m 0,-171.07 c -60.2,0 -102.2,45.629 -102.2,101.07 0,55.45 42.56,101.641 102.76,101.641 60.2,0 102.2,-45.633 102.2,-101.07 C 7546.37,806.199 7503.81,760 7443.61,760" /><path
         id="path596"
         style="fill:#776355;fill-opacity:1;fill-rule:nonzero;stroke:none"
         d="m 7919.88,760 c -57.12,0 -99.68,44.52 -99.68,101.07 0,56.008 41.72,101.641 101.08,101.641 36.12,0 57.96,-12.59 76.72,-30.512 l -22.12,-25.48 c -15.68,14.562 -32.48,24.351 -54.88,24.351 -37.52,0 -64.68,-30.789 -64.68,-69.429 0,-38.641 27.16,-70 64.68,-70 24.08,0 39.48,9.789 56.28,25.48 l 22.12,-22.402 C 7978.96,773.441 7956.56,760 7919.88,760" /><path
         id="path598"
         style="fill:#776355;fill-opacity:1;fill-rule:nonzero;stroke:none"
         d="m 8198.48,928 h -50.12 v -65.801 h 50.4 c 24.64,0 40.32,12.883 40.32,33.031 0,21.571 -15.12,32.77 -40.6,32.77 z m 41.16,-164.641 -48.16,68.321 h -43.12 v -68.321 h -34.45 v 195.993 h 87.37 c 45.08,0 72.8,-23.793 72.8,-62.153 0,-32.48 -19.33,-52.078 -46.76,-59.64 l 52.92,-74.2 h -40.6" /><path
         id="path600"
         style="fill:#776355;fill-opacity:1;fill-rule:nonzero;stroke:none"
         d="M 8540.08,928.551 H 8429.2 v -50.949 h 98.28 V 846.801 H 8429.2 V 794.16 h 112.28 v -30.801 h -146.73 v 195.993 h 145.33 v -30.801" /><path
         id="path602"
         style="fill:#776355;fill-opacity:1;fill-rule:nonzero;stroke:none"
         d="m 8745.59,919.602 -33.6,-78.403 h 67.48 z m 102.77,-156.243 h -36.41 l -19.87,47.321 h -92.69 l -20.15,-47.321 h -35.29 l 86.24,197.403 h 31.93 l 86.24,-197.403" /><path
         id="path604"
         style="fill:#776355;fill-opacity:1;fill-rule:nonzero;stroke:none"
         d="m 9018.01,763.359 h -34.72 v 164.082 h -62.16 v 31.911 h 159.03 v -31.911 h -62.15 V 763.359" /><path
         id="path606"
         style="fill:#776355;fill-opacity:1;fill-rule:nonzero;stroke:none"
         d="m 9340.29,928.551 h -110.88 v -50.949 h 98.28 v -30.801 h -98.28 V 794.16 h 112.29 v -30.801 h -146.73 v 195.993 h 145.32 v -30.801" /><path
         id="path608"
         style="fill:#776355;fill-opacity:1;fill-rule:nonzero;stroke:none"
         d="m 9708.2,919.602 -33.6,-78.403 h 67.48 z m 102.77,-156.243 h -36.41 l -19.87,47.321 H 9662 l -20.16,-47.321 h -35.28 l 86.24,197.403 h 31.93 l 86.24,-197.403" /><path
         id="path610"
         style="fill:#776355;fill-opacity:1;fill-rule:nonzero;stroke:none"
         d="m 10158.4,928 h -38.6 V 794.719 h 38.6 c 41.2,0 68.1,27.722 68.1,66.351 0,38.649 -26.9,66.93 -68.1,66.93 z m 0,-164.641 h -73 v 195.993 h 73 c 61.6,0 104.2,-42.274 104.2,-97.711 0,-55.442 -42.6,-98.282 -104.2,-98.282" /><path
         id="path612"
         style="fill:#776355;fill-opacity:1;fill-rule:nonzero;stroke:none"
         d="M 10419.1,959.352 V 763.359 h -34.4 v 195.993 h 34.4" /><path
         id="path614"
         style="fill:#776355;fill-opacity:1;fill-rule:nonzero;stroke:none"
         d="m 10642.8,760 c -61.3,0 -101.6,43.68 -101.6,101.07 0,55.168 42,101.641 101.1,101.641 34.1,0 55.1,-9.512 75.3,-26.59 l -21.8,-26.039 c -15.2,12.879 -30,20.988 -54.9,20.988 -36.1,0 -63.6,-31.351 -63.6,-69.429 0,-40.61 26.6,-70.282 66.7,-70.282 18.4,0 35.2,5.871 47.3,14.84 v 36.68 h -50.1 v 29.961 h 83.4 V 790.52 C 10705.3,774 10677.6,760 10642.8,760" /><path
         id="path616"
         style="fill:#776355;fill-opacity:1;fill-rule:nonzero;stroke:none"
         d="m 10984.7,959.352 h 33.9 V 763.359 h -28.8 l -108.1,139.442 V 763.359 h -33.9 v 195.993 h 31.9 l 105,-135.512 v 135.512" /><path
         id="path618"
         style="fill:#776355;fill-opacity:1;fill-rule:nonzero;stroke:none"
         d="M 11183.8,959.352 V 763.359 h -34.4 v 195.993 h 34.4" /><path
         id="path620"
         style="fill:#776355;fill-opacity:1;fill-rule:nonzero;stroke:none"
         d="M 11460.4,928 H 11349 v -53.48 h 98.8 v -31.372 h -98.8 v -79.789 h -34.5 v 195.993 h 145.9 V 928" /><path
         id="path622"
         style="fill:#776355;fill-opacity:1;fill-rule:nonzero;stroke:none"
         d="M 11613,959.352 V 763.359 h -34.4 v 195.993 h 34.4" /><path
         id="path624"
         style="fill:#776355;fill-opacity:1;fill-rule:nonzero;stroke:none"
         d="m 11889.1,928.551 h -110.9 v -50.949 h 98.3 v -30.801 h -98.3 V 794.16 h 112.3 v -30.801 h -146.7 v 195.993 h 145.3 v -30.801" /><path
         id="path626"
         style="fill:#776355;fill-opacity:1;fill-rule:nonzero;stroke:none"
         d="m 12082.9,928 h -38.7 V 794.719 h 38.7 c 41.1,0 68,27.722 68,66.351 0,38.649 -26.9,66.93 -68,66.93 z m 0,-164.641 h -73.1 v 195.993 h 73.1 c 61.6,0 104.1,-42.274 104.1,-97.711 0,-55.442 -42.5,-98.282 -104.1,-98.282" /><path
         id="path628"
         style="fill:#776355;fill-opacity:1;fill-rule:nonzero;stroke:none"
         d="m 3390.93,539.602 -33.61,-78.403 h 67.48 z m 102.76,-156.243 h -36.41 l -19.87,47.321 h -92.68 l -20.16,-47.321 h -35.28 l 86.24,197.403 h 31.92 l 86.24,-197.403" /><path
         id="path630"
         style="fill:#776355;fill-opacity:1;fill-rule:nonzero;stroke:none"
         d="m 3742.61,579.352 h 33.87 V 383.359 h -28.83 L 3639.57,522.801 V 383.359 h -33.89 v 195.993 h 31.93 l 105,-135.512 v 135.512" /><path
         id="path632"
         style="fill:#776355;fill-opacity:1;fill-rule:nonzero;stroke:none"
         d="m 3978.37,548 h -38.64 V 414.719 h 38.64 c 41.16,0 68.04,27.722 68.04,66.351 0,38.649 -26.88,66.93 -68.04,66.93 z m 0,-164.641 h -73.09 v 195.993 h 73.09 c 61.6,0 104.16,-42.274 104.16,-97.711 0,-55.442 -42.56,-98.282 -104.16,-98.282" /><path
         id="path634"
         style="fill:#776355;fill-opacity:1;fill-rule:nonzero;stroke:none"
         d="m 4439.52,548 h -40.04 v -70.559 h 40.04 c 26.05,0 42.29,14.278 42.29,35.27 0,23.25 -16.53,35.289 -42.29,35.289 z m -1.11,-101.641 h -38.93 v -63 h -34.44 v 195.993 h 77.28 c 45.64,0 74.49,-25.75 74.49,-65.801 0,-44.242 -35.29,-67.192 -78.4,-67.192" /><path
         id="path636"
         style="fill:#776355;fill-opacity:1;fill-rule:nonzero;stroke:none"
         d="m 4775.8,548.551 h -110.88 v -50.949 h 98.28 v -30.801 h -98.28 V 414.16 h 112.29 v -30.801 h -146.73 v 195.993 h 145.32 v -30.801" /><path
         id="path638"
         style="fill:#776355;fill-opacity:1;fill-rule:nonzero;stroke:none"
         d="m 4981.32,539.602 -33.61,-78.403 h 67.48 z m 102.76,-156.243 h -36.41 l -19.87,47.321 h -92.68 l -20.16,-47.321 h -35.28 l 86.24,197.403 h 31.92 l 86.24,-197.403" /><path
         id="path640"
         style="fill:#776355;fill-opacity:1;fill-rule:nonzero;stroke:none"
         d="m 5274.98,380 c -57.12,0 -99.68,44.52 -99.68,101.07 0,56.008 41.72,101.641 101.08,101.641 36.12,0 57.95,-12.59 76.71,-30.512 l -22.11,-25.48 c -15.68,14.562 -32.49,24.351 -54.88,24.351 -37.53,0 -64.69,-30.789 -64.69,-69.429 0,-38.641 27.16,-70 64.69,-70 24.07,0 39.47,9.789 56.28,25.48 l 22.12,-22.402 C 5334.06,393.441 5311.66,380 5274.98,380" /><path
         id="path642"
         style="fill:#776355;fill-opacity:1;fill-rule:nonzero;stroke:none"
         d="m 5614.33,548.551 h -110.87 v -50.949 h 98.28 v -30.801 h -98.28 V 414.16 h 112.28 v -30.801 h -146.73 v 195.993 h 145.32 v -30.801" /><path
         id="path644"
         style="fill:#776355;fill-opacity:1;fill-rule:nonzero;stroke:none"
         d="m 5880.9,548 h -111.45 v -53.48 h 98.84 v -31.372 h -98.84 v -79.789 h -34.44 V 579.352 H 5880.9 V 548" /><path
         id="path646"
         style="fill:#776355;fill-opacity:1;fill-rule:nonzero;stroke:none"
         d="m 6161.75,468.199 c 0,-58.519 -33.05,-87.918 -84.29,-87.918 -50.96,0 -83.44,29.399 -83.44,86.239 v 112.832 h 34.45 v -111.43 c 0,-36.402 18.76,-56 49.56,-56 30.51,0 49.27,18.476 49.27,54.598 v 112.832 h 34.45 V 468.199" /><path
         id="path648"
         style="fill:#776355;fill-opacity:1;fill-rule:nonzero;stroke:none"
         d="m 6287.45,579.352 h 34.44 V 414.719 h 103.04 v -31.36 h -137.48 v 195.993" /><path
         id="path650"
         style="fill:#776355;fill-opacity:1;fill-rule:nonzero;stroke:none"
         d="M 6701.56,579.352 H 6736 V 414.719 h 103.04 v -31.36 h -137.48 v 195.993" /><path
         id="path652"
         style="fill:#776355;fill-opacity:1;fill-rule:nonzero;stroke:none"
         d="M 6989.69,579.352 V 383.359 h -34.45 v 195.993 h 34.45" /><path
         id="path654"
         style="fill:#776355;fill-opacity:1;fill-rule:nonzero;stroke:none"
         d="m 7259.6,579.352 h 37.24 l -81.48,-197.391 h -30.23 l -81.49,197.391 h 38.09 l 59.07,-150.633 58.8,150.633" /><path
         id="path656"
         style="fill:#776355;fill-opacity:1;fill-rule:nonzero;stroke:none"
         d="M 7445.25,579.352 V 383.359 h -34.44 v 195.993 h 34.44" /><path
         id="path658"
         style="fill:#776355;fill-opacity:1;fill-rule:nonzero;stroke:none"
         d="m 7712.93,579.352 h 33.88 V 383.359 h -28.84 L 7609.89,522.801 V 383.359 H 7576 v 195.993 h 31.93 l 105,-135.512 v 135.512" /><path
         id="path660"
         style="fill:#776355;fill-opacity:1;fill-rule:nonzero;stroke:none"
         d="m 7968.57,380 c -61.33,0 -101.64,43.68 -101.64,101.07 0,55.168 41.99,101.641 101.08,101.641 34.16,0 55.16,-9.512 75.32,-26.59 l -21.84,-26.039 c -15.12,12.879 -29.96,20.988 -54.88,20.988 -36.12,0 -63.56,-31.351 -63.56,-69.429 0,-40.61 26.6,-70.282 66.64,-70.282 18.48,0 35.28,5.871 47.32,14.84 v 36.68 h -50.13 v 29.961 h 83.45 V 410.52 C 8031,394 8003.29,380 7968.57,380" /><path
         id="path662"
         style="fill:#776355;fill-opacity:1;fill-rule:nonzero;stroke:none"
         d="m 8481.24,548.551 h -110.88 v -50.949 h 98.28 v -30.801 h -98.28 V 414.16 h 112.29 v -30.801 h -146.73 v 195.993 h 145.32 v -30.801" /><path
         id="path664"
         style="fill:#776355;fill-opacity:1;fill-rule:nonzero;stroke:none"
         d="m 8738.84,579.352 h 33.87 V 383.359 h -28.83 L 8635.8,522.801 V 383.359 h -33.89 v 195.993 h 31.93 l 105,-135.512 v 135.512" /><path
         id="path666"
         style="fill:#776355;fill-opacity:1;fill-rule:nonzero;stroke:none"
         d="m 9040.67,579.352 h 37.25 l -81.49,-197.391 h -30.23 l -81.48,197.391 h 38.08 l 59.07,-150.633 58.8,150.633" /><path
         id="path668"
         style="fill:#776355;fill-opacity:1;fill-rule:nonzero;stroke:none"
         d="M 9226.33,579.352 V 383.359 h -34.45 v 195.993 h 34.45" /><path
         id="path670"
         style="fill:#776355;fill-opacity:1;fill-rule:nonzero;stroke:none"
         d="m 9441.64,548 h -50.12 v -65.801 h 50.4 c 24.64,0 40.32,12.883 40.32,33.031 0,21.571 -15.11,32.77 -40.6,32.77 z m 41.16,-164.641 -48.15,68.321 h -43.13 v -68.321 h -34.44 v 195.993 h 87.36 c 45.08,0 72.8,-23.793 72.8,-62.153 0,-32.48 -19.32,-52.078 -46.75,-59.64 l 52.92,-74.2 h -40.61" /><path
         id="path672"
         style="fill:#776355;fill-opacity:1;fill-rule:nonzero;stroke:none"
         d="m 9731.44,551.07 c -38.92,0 -66.08,-31.07 -66.08,-69.429 0,-38.36 27.72,-70 66.64,-70 38.93,0 66.08,31.07 66.08,69.429 0,38.371 -27.72,70 -66.64,70 z m 0,-171.07 c -60.2,0 -102.19,45.629 -102.19,101.07 0,55.45 42.56,101.641 102.75,101.641 60.21,0 102.2,-45.633 102.2,-101.07 C 9834.2,426.199 9791.64,380 9731.44,380" /><path
         id="path674"
         style="fill:#776355;fill-opacity:1;fill-rule:nonzero;stroke:none"
         d="m 10091.2,579.352 h 33.9 V 383.359 h -28.8 L 9988.2,522.801 V 383.359 h -33.88 v 195.993 h 31.92 L 10091.2,443.84 v 135.512" /><path
         id="path676"
         style="fill:#776355;fill-opacity:1;fill-rule:nonzero;stroke:none"
         d="m 10350.2,431.52 h -1.1 l -61.3,91.839 v -140 h -33.9 v 195.993 h 36.7 l 59.6,-92.672 59.7,92.672 h 36.7 V 383.359 h -34.5 V 523.91 l -61.9,-92.39" /><path
         id="path678"
         style="fill:#776355;fill-opacity:1;fill-rule:nonzero;stroke:none"
         d="m 10720.7,548.551 h -110.9 v -50.949 h 98.3 v -30.801 h -98.3 V 414.16 h 112.3 v -30.801 h -146.7 v 195.993 h 145.3 v -30.801" /><path
         id="path680"
         style="fill:#776355;fill-opacity:1;fill-rule:nonzero;stroke:none"
         d="m 10978.3,579.352 h 33.9 V 383.359 h -28.9 l -108.1,139.442 V 383.359 h -33.8 v 195.993 h 31.9 l 105,-135.512 v 135.512" /><path
         id="path682"
         style="fill:#776355;fill-opacity:1;fill-rule:nonzero;stroke:none"
         d="m 11223.8,383.359 h -34.7 v 164.082 h -62.1 v 31.911 h 159 v -31.911 h -62.2 V 383.359" /><path
         id="path684"
         style="fill:#776355;fill-opacity:1;fill-rule:nonzero;stroke:none"
         d="m 11366.6,383.359 v 38.36 h 37.2 v -38.36 h -37.2" /><path
         id="path686"
         style="fill:#776355;fill-opacity:1;fill-rule:nonzero;stroke:none"
         d="m 3451.97,168 h -111.44 v -53.48 h 98.83 V 83.1484 h -98.83 V 3.35938 h -34.45 V 199.352 h 145.89 V 168" /><path
         id="path688"
         style="fill:#776355;fill-opacity:1;fill-rule:nonzero;stroke:none"
         d="m 3659.98,171.07 c -38.93,0 -66.08,-31.07 -66.08,-69.429 0,-38.3597 27.72,-70.0004 66.64,-70.0004 38.92,0 66.08,31.0703 66.08,69.4294 0,38.371 -27.72,70 -66.64,70 z m 0,-171.07 c -60.21,0 -102.2,45.6289 -102.2,101.07 0,55.45 42.56,101.641 102.76,101.641 60.2,0 102.19,-45.633 102.19,-101.07 C 3762.73,46.1992 3720.17,0 3659.98,0" /><path
         id="path690"
         style="fill:#776355;fill-opacity:1;fill-rule:nonzero;stroke:none"
         d="m 3967.41,168 h -50.12 v -65.801 h 50.4 c 24.64,0 40.33,12.883 40.33,33.031 0,21.571 -15.12,32.77 -40.61,32.77 z M 4008.57,3.35938 3960.42,71.6797 h -43.13 V 3.35938 h -34.44 V 199.352 h 87.36 c 45.08,0 72.81,-23.793 72.81,-62.153 0,-32.48 -19.33,-52.0779 -46.76,-59.6404 l 52.92,-74.19922 h -40.61" /><path
         id="path692"
         style="fill:#776355;fill-opacity:1;fill-rule:nonzero;stroke:none"
         d="m 4408.97,3.35938 h -34.71 V 167.441 h -62.16 v 31.911 h 159.04 v -31.911 h -62.17 V 3.35938" /><path
         id="path694"
         style="fill:#776355;fill-opacity:1;fill-rule:nonzero;stroke:none"
         d="M 4620.37,85.9609 V 3.35938 h -34.44 V 199.352 h 34.44 v -81.473 h 93.53 v 81.473 h 34.43 V 3.35938 H 4713.9 V 85.9609 h -93.53" /><path
         id="path696"
         style="fill:#776355;fill-opacity:1;fill-rule:nonzero;stroke:none"
         d="m 5022.45,168.551 h -110.88 v -50.949 h 98.28 V 86.8008 h -98.28 V 34.1602 h 112.29 V 3.35938 H 4877.13 V 199.352 h 145.32 v -30.801" /><path
         id="path698"
         style="fill:#776355;fill-opacity:1;fill-rule:nonzero;stroke:none"
         d="m 5239.45,51.5195 h -1.12 l -61.32,91.8395 V 3.35938 h -33.89 V 199.352 h 36.68 l 59.65,-92.672 59.64,92.672 h 36.68 V 3.35938 h -34.44 V 143.91 l -61.88,-92.3905" /><path
         id="path700"
         style="fill:#776355;fill-opacity:1;fill-rule:nonzero;stroke:none"
         d="m 5540.16,117.039 c 41.44,-10.078 63,-24.9179 63,-57.6874 0,-36.9532 -28.84,-58.793006 -70,-58.793006 -29.96,0 -58.24,10.363306 -81.75,31.363306 l 20.72,24.6367 c 18.76,-16.2383 37.52,-25.4766 61.87,-25.4766 21.28,0 34.72,9.7969 34.72,24.9063 0,14.293 -7.83,21.8515 -44.24,30.25 -41.72,10.082 -65.23,22.4027 -65.23,58.8007 0,34.16 27.99,57.121 66.91,57.121 28.57,0 51.24,-8.68 71.12,-24.64 l -18.47,-26.051 c -17.65,13.172 -35.29,20.172 -53.21,20.172 -20.15,0 -31.92,-10.36 -31.92,-23.532 0,-15.398 8.97,-22.121 46.48,-31.07" /><path
         id="path702"
         style="fill:#776355;fill-opacity:1;fill-rule:nonzero;stroke:none"
         d="M 5867.48,168.551 H 5756.6 v -50.949 h 98.28 V 86.8008 H 5756.6 V 34.1602 h 112.29 V 3.35938 H 5722.16 V 199.352 h 145.32 v -30.801" /><path
         id="path704"
         style="fill:#776355;fill-opacity:1;fill-rule:nonzero;stroke:none"
         d="m 5988.16,199.352 h 34.45 V 34.7188 h 103.03 V 3.35938 H 5988.16 V 199.352" /><path
         id="path706"
         style="fill:#776355;fill-opacity:1;fill-rule:nonzero;stroke:none"
         d="m 6346.78,199.352 h 37.24 L 6302.54,1.96094 H 6272.3 L 6190.82,199.352 h 38.09 l 59.07,-150.6332 58.8,150.6332" /><path
         id="path708"
         style="fill:#776355;fill-opacity:1;fill-rule:nonzero;stroke:none"
         d="m 6641.34,168.551 h -110.88 v -50.949 h 98.28 V 86.8008 h -98.28 V 34.1602 h 112.28 V 3.35938 H 6496.01 V 199.352 h 145.33 v -30.801" /><path
         id="path710"
         style="fill:#776355;fill-opacity:1;fill-rule:nonzero;stroke:none"
         d="m 6837.62,117.039 c 41.43,-10.078 62.99,-24.9179 62.99,-57.6874 0,-36.9532 -28.83,-58.793006 -70,-58.793006 -29.96,0 -58.24,10.363306 -81.75,31.363306 l 20.72,24.6367 c 18.76,-16.2383 37.52,-25.4766 61.87,-25.4766 21.28,0 34.72,9.7969 34.72,24.9063 0,14.293 -7.83,21.8515 -44.24,30.25 -41.72,10.082 -65.23,22.4027 -65.23,58.8007 0,34.16 28,57.121 66.91,57.121 28.57,0 51.24,-8.68 71.13,-24.64 l -18.48,-26.051 c -17.65,13.172 -35.28,20.172 -53.2,20.172 -20.16,0 -31.93,-10.36 -31.93,-23.532 0,-15.398 8.97,-22.121 46.49,-31.07" /><path
         id="path712"
         style="fill:#776355;fill-opacity:1;fill-rule:nonzero;stroke:none"
         d="M 7013.46,3.35938 V 41.7188 h 37.23 V 3.35938 h -37.23" /><path
         id="path714"
         style="fill:#776355;fill-opacity:1;fill-rule:nonzero;stroke:none"
         d="m 7420.57,159.602 -33.6,-78.4028 h 67.48 z M 7523.34,3.35938 h -36.41 l -19.87,47.32032 h -92.69 L 7354.22,3.35938 h -35.29 l 86.24,197.40262 h 31.93 L 7523.34,3.35938" /><path
         id="path716"
         style="fill:#776355;fill-opacity:1;fill-rule:nonzero;stroke:none"
         d="m 7772.25,199.352 h 33.88 V 3.35938 h -28.84 L 7669.22,142.801 V 3.35938 h -33.89 V 199.352 h 31.92 l 105,-135.5122 V 199.352" /><path
         id="path718"
         style="fill:#776355;fill-opacity:1;fill-rule:nonzero;stroke:none"
         d="m 8008.02,168 h -38.65 V 34.7188 h 38.65 c 41.16,0 68.03,27.7226 68.03,66.3512 0,38.649 -26.87,66.93 -68.03,66.93 z m 0,-164.64062 h -73.09 V 199.352 h 73.09 c 61.6,0 104.16,-42.274 104.16,-97.711 0,-55.4418 -42.56,-98.28162 -104.16,-98.28162" /><path
         id="path720"
         style="fill:#776355;fill-opacity:1;fill-rule:nonzero;stroke:none"
         d="m 8477.56,3.35938 h -34.72 V 167.441 h -62.16 v 31.911 h 159.04 v -31.911 h -62.16 V 3.35938" /><path
         id="path722"
         style="fill:#776355;fill-opacity:1;fill-rule:nonzero;stroke:none"
         d="M 8688.95,85.9609 V 3.35938 h -34.44 V 199.352 h 34.44 v -81.473 h 93.53 v 81.473 h 34.43 V 3.35938 h -34.43 V 85.9609 h -93.53" /><path
         id="path724"
         style="fill:#776355;fill-opacity:1;fill-rule:nonzero;stroke:none"
         d="m 9091.03,168.551 h -110.87 v -50.949 h 98.28 V 86.8008 h -98.28 V 34.1602 h 112.28 V 3.35938 H 8945.71 V 199.352 h 145.32 v -30.801" /><path
         id="path726"
         style="fill:#776355;fill-opacity:1;fill-rule:nonzero;stroke:none"
         d="M 9248.12,199.352 V 3.35938 h -34.44 V 199.352 h 34.44" /><path
         id="path728"
         style="fill:#776355;fill-opacity:1;fill-rule:nonzero;stroke:none"
         d="m 9463.44,168 h -50.12 v -65.801 h 50.4 c 24.64,0 40.32,12.883 40.32,33.031 0,21.571 -15.12,32.77 -40.6,32.77 z M 9504.6,3.35938 9456.44,71.6797 h -43.12 V 3.35938 h -34.44 V 199.352 h 87.36 c 45.08,0 72.8,-23.793 72.8,-62.153 0,-32.48 -19.32,-52.0779 -46.76,-59.6404 L 9545.2,3.35938 h -40.6" /><path
         id="path730"
         style="fill:#776355;fill-opacity:1;fill-rule:nonzero;stroke:none"
         d="m 9959.03,199.352 h 33.88 V 3.35938 h -28.84 L 9855.99,142.801 V 3.35938 h -33.88 V 199.352 h 31.92 l 105,-135.5122 V 199.352" /><path
         id="path732"
         style="fill:#776355;fill-opacity:1;fill-rule:nonzero;stroke:none"
         d="m 10267,168.551 h -110.8 v -50.949 h 98.2 V 86.8008 h -98.2 V 34.1602 h 112.2 V 3.35938 h -146.7 V 199.352 h 145.3 v -30.801" /><path
         id="path734"
         style="fill:#776355;fill-opacity:1;fill-rule:nonzero;stroke:none"
         d="M 10424.1,199.352 V 3.35938 h -34.4 V 199.352 h 34.4" /><path
         id="path736"
         style="fill:#776355;fill-opacity:1;fill-rule:nonzero;stroke:none"
         d="m 10647.8,0 c -61.3,0 -101.6,43.6797 -101.6,101.07 0,55.168 42,101.641 101.1,101.641 34.1,0 55.1,-9.512 75.3,-26.59 l -21.8,-26.039 c -15.2,12.879 -30,20.988 -54.9,20.988 -36.1,0 -63.6,-31.351 -63.6,-69.429 0,-40.6097 26.6,-70.2816 66.7,-70.2816 18.4,0 35.2,5.8711 47.3,14.8398 v 36.6797 h -50.1 V 112.84 h 83.4 V 30.5195 C 10710.3,14 10682.6,0 10647.8,0" /><path
         id="path738"
         style="fill:#776355;fill-opacity:1;fill-rule:nonzero;stroke:none"
         d="M 10887.2,85.9609 V 3.35938 h -34.4 V 199.352 h 34.4 v -81.473 h 93.6 v 81.473 h 34.4 V 3.35938 h -34.4 V 85.9609 h -93.6" /><path
         id="path740"
         style="fill:#776355;fill-opacity:1;fill-rule:nonzero;stroke:none"
         d="m 11272.8,61.0313 c 0,16.8085 -13.2,26.6093 -40.3,26.6093 h -54.6 V 33.8789 h 57.1 c 23.5,0 37.8,9.2305 37.8,27.1524 z m -10.9,82.6097 c 0,15.961 -12.3,25.199 -34.5,25.199 h -49.5 v -52.078 h 47 c 22.1,0 37,8.679 37,26.879 z m 34.4,5.597 c 0,-24.09 -13.4,-36.398 -28,-43.957 23,-7.8396 38.9,-20.9997 38.9,-47.8826 0,-35.2773 -28.8,-54.03902 -72.5,-54.03902 H 11144 V 199.352 h 87.9 c 39.5,0 64.4,-19.313 64.4,-50.114" /><path
         id="path742"
         style="fill:#776355;fill-opacity:1;fill-rule:nonzero;stroke:none"
         d="m 11518.1,171.07 c -39,0 -66.1,-31.07 -66.1,-69.429 0,-38.3597 27.7,-70.0004 66.6,-70.0004 39,0 66.1,31.0703 66.1,69.4294 0,38.371 -27.7,70 -66.6,70 z m 0,-171.07 c -60.2,0 -102.2,45.6289 -102.2,101.07 0,55.45 42.5,101.641 102.7,101.641 60.2,0 102.2,-45.633 102.2,-101.07 C 11620.8,46.1992 11578.3,0 11518.1,0" /><path
         id="path744"
         style="fill:#776355;fill-opacity:1;fill-rule:nonzero;stroke:none"
         d="m 11905.6,88.1992 c 0,-58.5195 -33.1,-87.91795 -84.3,-87.91795 -50.9,0 -83.4,29.39845 -83.4,86.23825 V 199.352 h 34.4 V 87.9219 c 0,-36.4024 18.8,-56 49.6,-56 30.5,0 49.3,18.4765 49.3,54.5976 V 199.352 h 34.4 V 88.1992" /><path
         id="path746"
         style="fill:#776355;fill-opacity:1;fill-rule:nonzero;stroke:none"
         d="m 12115.9,168 h -50.2 v -65.801 h 50.4 c 24.7,0 40.4,12.883 40.4,33.031 0,21.571 -15.2,32.77 -40.6,32.77 z M 12157,3.35938 12108.9,71.6797 h -43.2 V 3.35938 h -34.4 V 199.352 h 87.4 c 45,0 72.8,-23.793 72.8,-62.153 0,-32.48 -19.4,-52.0779 -46.8,-59.6404 l 52.9,-74.19922 h -40.6" /><path
         id="path748"
         style="fill:#776355;fill-opacity:1;fill-rule:nonzero;stroke:none"
         d="m 12387.7,117.039 c 41.5,-10.078 63,-24.9179 63,-57.6874 0,-36.9532 -28.8,-58.793006 -70,-58.793006 -29.9,0 -58.2,10.363306 -81.7,31.363306 l 20.7,24.6367 c 18.8,-16.2383 37.5,-25.4766 61.9,-25.4766 21.3,0 34.7,9.7969 34.7,24.9063 0,14.293 -7.8,21.8515 -44.2,30.25 -41.8,10.082 -65.3,22.4027 -65.3,58.8007 0,34.16 28,57.121 66.9,57.121 28.6,0 51.3,-8.68 71.2,-24.64 l -18.5,-26.051 c -17.7,13.172 -35.3,20.172 -53.2,20.172 -20.2,0 -31.9,-10.36 -31.9,-23.532 0,-15.398 8.9,-22.121 46.4,-31.07" /><path
         id="path750"
         style="fill:#776355;fill-opacity:1;fill-rule:nonzero;stroke:none"
         d="M 12563.6,3.35938 V 41.7188 h 37.2 V 3.35938 h -37.2" /></g></g></svg>