<svg version="1.1" id="Réteg_1" xmlns="http://www.w3.org/2000/svg" x="0" y="0" viewBox="0 0 383.58 207.32" xml:space="preserve"><style>.st0{fill:#fefefe}.st2{fill:#47555b}.st3{fill:#38565f}</style><path class="st0" d="M192.11 207.72c-63.68 0-127.36 0-191.04.02-.9 0-1.1-.2-1.1-1.1.02-68.48.02-136.96 0-205.44 0-.9.2-1.1 1.1-1.1 127.44.02 254.88.02 382.32 0 .9 0 1.1.2 1.1 1.1-.02 68.48-.02 136.96 0 205.44 0 .9-.2 1.1-1.1 1.1-63.76-.02-127.52-.02-191.28-.02z"/><path d="M76.85 105.39c0-9.8.02-19.59-.03-29.39-.01-1.2.34-1.45 1.47-1.41 2.56.09 5.12.07 7.68.01.92-.02 1.21.21 1.21 1.18-.04 7.72 0 15.44-.05 23.15-.01 1.07.24 1.4 1.36 1.4 14.16-.04 28.31.02 42.47-.05 5.06-.02 8.98-2.27 11.49-6.75.82-1.47.98-3.11.97-4.76-.03-4.36-.03-8.72-.09-13.07-.01-.82.18-1.1 1.05-1.09 2.84.05 5.68.02 8.52.02.5 0 .93-.05.91.7-.11 5.32.16 10.64-.14 15.95-.28 4.89-2.27 9.1-5.5 12.74-1.24 1.4-1.31 1.45-.08 2.78 4.14 4.51 5.88 9.85 5.77 15.91-.07 4.2-.04 8.4 0 12.6.01.79-.22 1-1 .99-2.76-.05-5.52-.05-8.28 0-.89.02-1.15-.21-1.14-1.12.06-4.24.03-8.48.05-12.72.04-7.31-4.47-11.89-11.75-11.89-14.44-.01-28.87.01-43.31-.03-1.08 0-1.31.3-1.31 1.33.05 7.76.01 15.51.05 23.27 0 .96-.27 1.2-1.2 1.18-2.68-.07-5.36-.08-8.04-.01-.95.02-1.11-.31-1.11-1.16.04-9.92.03-19.84.03-29.76z" fill="#38555f"/><path class="st2" d="M106.07 44.74h26.39c10.61 0 19.22 7.24 21.03 17.69.26 1.5.31 3.02.35 4.54.02.71-.25.85-.9.84-2.8-.03-5.6-.06-8.4.01-.95.02-1.14-.29-1.08-1.15.2-3.24-.78-6.08-3.07-8.4-2.08-2.11-4.63-3.2-7.63-3.2-14.52.01-29.03 0-43.55 0-2.05 0-2.05 0-2.05 2.03 0 3.24 0 6.48.03 9.72.01.66-.06 1.01-.88.99-2.84-.05-5.68-.04-8.52-.01-.68.01-.87-.2-.87-.88 0-7.08-.02-14.16-.09-21.23-.01-.98.45-.97 1.16-.97 9.36.03 18.72.02 28.08.02zm-4.85 121.47c-7.72 0-15.43-.02-23.15.02-1.01.01-1.24-.28-1.24-1.26.04-6.96.05-13.91 0-20.87-.01-1.03.31-1.25 1.28-1.23 2.68.07 5.36.06 8.03 0 .86-.02 1.06.26 1.05 1.08-.04 3.56.02 7.12-.04 10.67-.02 1.03.21 1.34 1.3 1.33 11.91-.06 23.82-.05 35.73-.12 1.19-.01 1.45.32 1.41 1.45-.09 2.52-.08 5.04 0 7.55.03 1.04-.19 1.4-1.34 1.39-7.68-.04-15.36-.01-23.03-.01z"/><path class="st3" d="M228.61 74.25c2.6.7 4.27 2.31 5.15 4.77 2.5 6.94-1.92 13.43-9.46 13.7-4.39.16-8.79.04-13.19.09-.7.01-.86-.24-.86-.9.02-11.27.01-22.55.01-33.82 0-.45-.07-.88.63-.86 4.43.14 8.88-.31 13.29.26 4.41.57 7.46 3.1 8.31 6.7 1.01 4.27-.16 7.37-3.88 10.06zm17.82 76.19c-2.55 2.98-5.5 3.43-8.78 2.35-2.32-.76-3.85-2.49-4.71-4.66-2.33-5.88-2.27-11.82.43-17.55 1.82-3.88 5.63-5.53 9.33-4.45 1.78.52 2.95 1.79 4.12 3.37.14-.84.33-1.48.34-2.13 0-.88.42-1.04 1.19-1.01 1.16.06 2.32.08 3.48-.01.93-.07 1.11.26 1.11 1.14-.03 8.12-.03 16.24-.01 24.35 0 1.28-.05 2.56-.32 3.81-.95 4.28-4.09 7.05-8.61 7.66-3.26.44-6.36-.04-9.34-1.42-.62-.29-.94-.55-.72-1.34.34-1.19.56-2.41.74-3.63.11-.73.3-.86.98-.53 1.9.94 3.93 1.29 6.04 1.22 3.04-.09 4.56-1.52 4.73-4.56.03-.76 0-1.51 0-2.61zm-42.55-93.2c-2.15 3.21-4.16 6.23-6.18 9.24-1.44 2.16-2.86 4.33-4.36 6.45-.45.64-.4 1.07 0 1.69 3.55 5.6 7.06 11.22 10.58 16.83.23.37.45.75.74 1.23-1.32.22-2.57.11-3.81.1-1.47-.02-3.2.54-4.34-.22-1.08-.72-1.57-2.34-2.3-3.58-2.02-3.39-4.04-6.79-6.06-10.19-.46-.77-1.68-1.19-2.43-.85-.5.23-.31.69-.31 1.05-.01 4.16-.05 8.32.02 12.47.02 1.14-.34 1.42-1.4 1.35-1.35-.09-2.72-.07-4.08 0-.84.04-1.08-.23-1.07-1.07.03-6.48.02-12.96.02-19.43 0-4.68.02-9.36-.02-14.03-.01-.84.22-1.1 1.06-1.06 1.48.07 2.96.07 4.44 0 .88-.05 1.04.29 1.04 1.09-.04 4.04-.03 8.08 0 12.12 0 .44-.36 1.14.42 1.3.73.15 1.32.03 1.79-.77 2.49-4.23 5.08-8.41 7.56-12.64.5-.85 1.05-1.11 1.98-1.08 2.15.04 4.31 0 6.71 0zm69.6 92.08c-.26.04-.32.25-.42.41-2.36 3.62-5.57 4.34-9.51 2.96-3.05-1.06-4.78-4.66-4.26-8.43.52-3.84 3.09-6.23 7.32-6.88 1.95-.3 3.91-.22 5.86-.2.74.01 1.01-.19.93-.94-.07-.63 0-1.28-.06-1.92-.25-2.56-2.6-3.94-4.99-2.95-.98.4-1.55 1.17-1.66 2.17-.07.66-.33.75-.89.74-1.52-.03-3.04-.06-4.56.01-.79.03-.94-.27-.9-.97.17-2.68 1.58-4.64 3.8-5.89 3.89-2.19 7.94-2.29 11.87-.08 2.54 1.43 3.7 3.85 3.79 6.69.12 3.75.08 7.52.06 11.27-.01 2.25.15 4.48.83 6.63.25.79-.06.87-.71.85-1.56-.03-3.12-.05-4.68.01-.72.03-1-.26-1.15-.89-.21-.86-.45-1.72-.67-2.59zm-54.61-7.71c-2.08 0-4.16.02-6.24-.01-.74-.01-.93.18-.83.96.55 4.06 3.12 5.84 7.47 5.1 1.39-.24 2.71-.71 3.9-1.45.64-.4.84-.26 1.06.39.34 1.02.76 2.01 1.19 3 .18.42.2.72-.2 1.03-3.8 2.99-12.1 4.16-16.34-.08-2.02-2.02-3.17-4.49-3.53-7.3-.41-3.23-.4-6.46.58-9.61 1.81-5.86 6.7-8.79 12.61-7.52 4.12.89 6.06 3.85 7.01 7.66.58 2.35.38 4.77.41 7.16.01.66-.37.68-.85.67-2.08-.01-4.16 0-6.24 0zM178.9 135c0-5.56.02-11.11-.02-16.67-.01-.9.23-1.17 1.13-1.12 1.43.08 2.88.09 4.31 0 .96-.06 1.1.31 1.09 1.15-.03 9.15.01 18.31-.05 27.46-.01 1.25.35 1.5 1.52 1.47 3.92-.08 7.83 0 11.75-.05.86-.01 1.09.25 1.05 1.08-.07 1.24-.04 2.48-.01 3.72.02.56-.15.76-.74.76-6.44-.02-12.87-.02-19.31 0-.97 0-.73-.63-.73-1.14 0-5.54.01-11.1.01-16.66zm69.25-62.72c0 4.64.03 9.28-.02 13.92-.01.93.27 1.11 1.14 1.1 4.04-.05 8.08 0 12.12-.04.84-.01 1.12.23 1.08 1.07-.06 1.24-.04 2.48-.01 3.72.01.57-.19.76-.76.76-6.44-.02-12.88-.02-19.31 0-1 0-.69-.67-.69-1.14-.01-8-.01-16-.01-23.99 0-3.16.03-6.32-.02-9.48-.01-.81.24-1.01 1.01-.98 1.44.06 2.88.1 4.32-.01 1.07-.08 1.21.34 1.2 1.28-.08 4.59-.05 9.19-.05 13.79z"/><path class="st2" d="M132.3 161.01c0-1.44.03-2.88-.01-4.32-.02-.61.16-.8.8-.84 6.22-.39 10.42-4.94 10.39-11.2 0-.24.03-.49-.01-.72-.14-.84.19-1.08 1.04-1.06 2.8.05 5.6.03 8.4.01.59 0 .91.03.94.8.45 10.87-6.68 20.06-17.28 22.18-1.09.22-2.21.33-3.33.37-.7.02-.88-.24-.86-.89.04-1.44.01-2.88.01-4.32-.03-.01-.06-.01-.09-.01z"/><path class="st3" d="M287.62 133.71c0-5.91.03-11.83-.03-17.74-.01-1.14.34-1.43 1.41-1.36 1.35.09 2.72.07 4.07 0 .85-.04 1.08.25 1.07 1.08-.04 4.15-.02 8.31-.02 12.47 0 7.75-.03 15.5.03 23.25.01 1.2-.35 1.49-1.47 1.41-1.31-.1-2.64-.08-3.95 0-.91.05-1.14-.23-1.13-1.13.04-5.99.02-11.99.02-17.98z"/><path class="st0" d="M216.75 82.14c0-1.4.03-2.8-.01-4.2-.02-.62.18-.84.81-.83 1.96.04 3.92-.05 5.88.05 2.83.13 4.41 2.05 4.43 5.2.02 2.95-1.57 4.74-4.44 4.87-1.96.09-3.92.02-5.88.06-.64.01-.82-.21-.81-.83.04-1.44.02-2.88.02-4.32zm0-14.72v-3.96c0-.38-.01-.73.54-.71 1.87.08 3.75-.19 5.61.23 2.25.51 3.41 2.03 3.41 4.53 0 2.36-1.2 3.88-3.45 4.37-1.82.4-3.66.15-5.49.23-.59.03-.63-.3-.62-.75.01-1.3 0-2.62 0-3.94zm29.68 72.25c0 1.64-.02 3.27.01 4.91.01.6-.16 1.07-.51 1.54-1.54 2.05-6.04 2.58-7.24-.94-1.3-3.83-1.19-7.68.3-11.45.58-1.46 1.74-2.27 3.34-2.28 1.68-.01 2.99.71 3.87 2.17.22.37.22.75.22 1.15.01 1.63.01 3.27.01 4.9zm24.57 1.57c2.38 0 2.38 0 2.38 2.44 0 2.81-3.25 5.08-5.9 4.12-1.13-.41-1.76-1.37-1.78-2.71-.02-1.59.95-3.06 2.33-3.58.98-.36 1.98-.25 2.97-.27z"/><path d="M215.75 136.88c-1.04 0-2.07.01-3.11 0-.33 0-.7.11-.77-.47-.27-2.17 1.8-4.87 3.88-5 2.04-.13 3.26.91 3.73 3.21.09.43.06.87.13 1.3.12.71-.1 1.02-.88.97-.99-.06-1.99-.01-2.98-.01z" fill="#fdfefe"/></svg>