<svg xmlns="http://www.w3.org/2000/svg" height="387.12" width="524.307"><path d="M356.51 118.499v75.741c-2.647 2.09-4.897 4.327-6.993 6.739v-82.48H265.62v68.968h-6.951v-68.968h-83.913v69.077h-6.942v-69.077H83.898v78.732l-21.406 71.384H81.32L90.778 237h2.72l15.617 31.615h22.752L116.714 237h34.382l-9.54 31.615h20.579l9.412-31.526h4.517V237h45.811l-9.086 31.522h20.746L242.339 237h9.336l.249 31.522h17.405L289.304 237h13.079l-6.746 31.522h20.427L322.689 237h11.814c-.47 9.772 2.028 18.647 8.509 24.623 7.913 7.273 20.068 8.664 29.065 8.664 12.307 0 25.083-1.765 37.938-4.664L417.092 237h23.316V118.499zm-191.72 73.097l-1.22 4.045-11.151 37.102-.44 1.305h-36.697l-2.864-6.045 39.56-40.427h-25.416l-30.936 33.323 10.02-33.323h-18.74v-66.085h77.883zm21.663 31.373h-.024c-.754.039-1.514.104-2.385.104-1.137 0-2.025.042-2.864.042l-4.988-.042 2.307-8.526 1.09-4.235 2.618-9.92c1.158 0 2.296-.041 3.381-.041h3.863c6.59 0 10.761.374 12.277 2.494 1.164 1.591 1.013 4.343-.36 8.527-2.35 7.207-5.327 10.865-14.915 11.597m56.724 11.079l8.208-29.139.29 29.139zm12.475-46.581h-19.507l-13.381 46.581H202.08c10.54-3.899 16.953-11.344 18.937-22.392 1.635-8.585.858-14.235-2.642-18.463-5.247-6.294-15.778-5.754-25.134-5.754-1.634 0-15.472.028-15.472.028V121.49h77.883zm47.321 46.581H291.25l17.748-27.925zm43.526-45.27l-.039 16.131c-5.435 7.51-8.81 15.708-10.387 22.314-.597 2.312-1.016 4.556-1.242 6.825h-11.455l9.793-46.472-32.961-.03-29.501 46.502h-2.148V121.491h77.94zm44.934 64.293c-4.45.805-8.888 1.341-13.112 1.341-11.241 0-19.06-5.224-19.224-17.412h36.32zm46.014-19.023H417.81l3.242-12.985h-39.341l-3.235 12.985h-19.009v-2.667c.293-1.464.547-2.997.913-4.638 3.459-14.002 12.651-27.838 28.552-27.838 6.292 0 12.544 2.399 11.688 11.102h23.407c.921-4.062 2.47-10.979-1.945-17.338-4.991-6.91-15.04-9.684-28.074-9.684-9.27 0-22.828 1.484-34.541 9.13V121.49h77.979v112.557" fill="#1d438e"/></svg>