<svg xmlns="http://www.w3.org/2000/svg" viewBox="0 0 1085.3 521.3"><defs><clipPath id="a" clipPathUnits="userSpaceOnUse"><path d="M0 391h814V0H0z"/></clipPath></defs><path fill="#86ce26" fill-rule="evenodd" d="M414.3 269.8l231.5-.1 9.2-19.2-221-.3v-48.3l136-.6 10.6-19.2-146.3-.5-.3-41.7 220.5-.6-8.7-19.4-231.4-.2z"/><g fill-rule="evenodd" clip-path="url(#a)" transform="matrix(1.33333 0 0 -1.33333 0 521.3)"><path fill="#86ce26" d="M526 286.5c33.6-.4 67.5 0 101.2 0 18.5 0 29.9 1.9 44-7.2a41.6 41.6 0 00.6-68.2c-14-9.4-24.5-7.7-43.3-7.7-34.1 0-68.6.4-102.7-.1l-7.2-14.4c40.7-1 81.8-.1 122.3-.2 22.2 0 32.5 2.5 46.4 13.8 26 21.2 24 65.3 1 84.2-12.7 10.4-25.8 14.5-47.4 14.5-40.2 0-82.1 1.2-122.1-.1zm-413-97.3l173.6-.5 6.8 14.4-165.7.3V301H113z"/><path fill="#7b7979" d="M219.6 339.7l.7 17H114v-34.1c-14.6-2.3-47.4-7.3-61.6-9.9-5.2-.8-15.3-1.2-15.3-8.8 0-6.6 8-6.2 12.6-6.2 26 5 55.5 8.8 79 12.4v31.1h76.2v-15.5l2-3 20.6 2.9c41.9 6.8 84 13.7 126 20 21.1 3.3 43.4 8 63.1 4.7 108.9-17.4 217.1-34 326-51 6.1-1 10-1.6 16.1-1.6 4 .4 7.1 2 7.1 6.2 0 8-11.1 8.1-16.6 9-105.4 16.8-210.7 33-316 50.9-13.9 2.3-26.5 4.5-41.2 2.3-54.4-8-110.7-16.9-172.3-26.4m489-209.4a8.1 8.1 0 00-4.4 2.9 16 16 0 00-3 10.3v8c0 .9 0 2.2-.3 3.1 0 .4-.3.8-.5 1.1-.7.8-2 .9-2.8.9h-27.9c-3 0-4.9 1.9-4.9 5.2 0 3 1.6 5 4.5 5.2h27.3c2.2 0 4.7-.1 6.8-.8a8.6 8.6 0 004.2-3 16 16 0 003.1-10.3V145c0-.8 0-2.3.2-3v-.2c0-.3.2-.7.5-1 .7-.8 2-1 3-1h27.9c3 0 4.6-2 4.6-5 0-3.2-1.6-5.3-4.6-5.3h-27c-2.2 0-4.8 0-6.8.8M497 155.6h58.5c2.2 0 4.5-.2 6.7-.8 1.7-.5 3.1-1.5 4.3-3 2.3-2.8 3-6.5 3-10.3V135c0-3.3-1.6-5.4-4.8-5.4-3.2 0-4.7 2.2-4.7 5.4v5.2c0 1 0 2.1-.2 3a2.7 2.7 0 01-.6 1.2c-.7.8-1.9 1-2.8 1h-59.4v-11c-.3-3-2-4.8-4.9-4.8-2.9 0-4.5 1.9-4.8 5V167h9.7zM337.3 149h42c2.5 0 4.3.7 4.2 3.7-.1 3.2-2.2 3.9-4.9 3.9H324c-1 0-2.3-.1-3-.9a2 2 0 01-.5-1v-.1c-.2-.9-.1-2.3-.1-3.1v-22h-9.7v23.4c0 3.7.7 7.5 3 10.3a8.7 8.7 0 004.4 3c2.1.7 4.6.8 6.8.8h54.7c3.9 0 7.6-1.2 10-4.5 2.2-2.8 3.3-6 3.3-9.6 0-3.5-1.2-6.7-3.3-9.5a11 11 0 00-9.3-4.6l-43.8-.1c-3 .1-4.4 2.2-4.4 5.2 0 3.2 1.5 5.2 4.6 5.2h.7m-68.5 7.5v-21.7c0-3.3-1.6-5.4-4.8-5.4-3.2 0-4.8 2-4.8 5.4v21.7H236c-1 0-2.3-.1-3-.9a2 2 0 01-.4-1v-.1c-.3-.9-.2-2.3-.2-3.1V135c0-3.4-1.7-5.5-4.9-5.5s-4.8 2.1-4.8 5.4v18c0 3.7.8 7.5 3 10.3a8.7 8.7 0 004.4 3c2.1.7 4.6.8 6.8.8h53.8a24 24 0 006.8-.8 8.9 8.9 0 004.3-3c2.3-2.8 3-6.5 3-10.3v-18c0-3.4-1.6-5.4-4.8-5.4-3.2 0-4.8 2.1-4.8 5.4v16.6l-.1 3a3 3 0 01-.6 1.2c-.7.8-2 .9-2.9.9h-16.5zm-141.8-17c2.2-.5 3.3-2.4 3.3-5 0-3.1-1.7-5.1-4.7-5.1H62.3c-2.2 0-4.7 0-6.8.8a8.1 8.1 0 00-4.3 2.9c-2.3 2.9-3 6.6-3 10.3V167h9.5v-22c0-.8 0-2.3.2-3.1v-.2c0-.3.3-.6.5-.9.7-.8 2-1 3-1H127zm80.4 15a2.5 2.5 0 01-.5 1.1c-.7.8-2 .9-2.9.9h-51.8c-2 0-4.6-.3-5.9-2a11.4 11.4 0 01-1.5-6.4c0-2.5.5-5.2 2.5-6.9.6-.5 1.4-.9 2.2-1.1a16 16 0 013.7-.4h38c3 0 4.7-2 4.7-5 0-3.1-1.5-5.1-4.5-5.3h-39.1c-2.6 0-5.4.2-7.8 1.2-2 .8-3.9 2.3-5.3 4.1-3 3.9-4.2 8.5-4.2 13.5 0 5.5 1.2 11 5.1 15a11.5 11.5 0 005 2.8c2.3.7 4.8.9 7.2.9H203c2.2 0 4.6-.1 6.7-.8a8.6 8.6 0 004.3-3 16 16 0 003-10.3v-23.4h-9.5v22c0 .9 0 2.2-.2 3.1m238.3 2h-29.1c-1.9 0-4.6-.3-5.9-2a11.4 11.4 0 01-1.5-6.4c0-2.5.5-5.2 2.5-6.9.6-.5 1.4-.9 2.2-1.1a16 16 0 013.7-.4h38c3 0 4.7-2 4.7-5 0-3.1-1.5-5.1-4.5-5.3h-39.1c-2.5 0-5.4.3-7.8 1.2-2 .8-3.9 2.3-5.3 4.1-3 3.9-4.2 8.5-4.2 13.5 0 5.5 1.2 11 5.1 15a11.6 11.6 0 005 2.8c2.3.7 4.9.9 7.2.9h50.8c2.2 0 4.6-.1 6.7-.8a8.6 8.6 0 004.3-3 16 16 0 003-10.3v-23.4H472v22c0 .9 0 2.2-.2 3.1a2.5 2.5 0 01-.5 1.1c-.7.8-2 .9-2.9.9h-8zm176.7 0h-29.1c-2 0-4.6-.3-6-2a11.4 11.4 0 01-1.4-6.4c0-2.5.5-5.2 2.5-6.9.6-.5 1.3-.9 2.1-1.1a16 16 0 013.8-.4h38c3 0 4.7-2 4.7-5 0-3.1-1.5-5.1-4.5-5.3h-39.1c-2.6 0-5.4.3-7.8 1.2-2.1.8-3.9 2.3-5.3 4.1-3 3.9-4.2 8.5-4.2 13.5 0 5.5 1.2 11 5.1 15a11.6 11.6 0 005 2.8c2.3.7 4.8.9 7.2.9h50.8a24 24 0 006.7-.8 8.6 8.6 0 004.3-3 16 16 0 003-10.3v-23.4h-9.6v22c0 .9 0 2.2-.2 3.1a2.5 2.5 0 01-.4 1.1c-.7.8-2 .9-3 .9h-8zm-416.2 20c0-2-1.5-3.7-4.5-3.7h-46.5c-3 0-4.5 1-4.6 3.4-.2 4 2.8 4.3 3.8 4.3h47.9c2-.3 3.8-1 4-4m438.8 0c0-2-1.5-3.7-4.5-3.7H594c-3 0-4.5 1-4.6 3.4-.2 4 2.8 4.3 3.8 4.3h47.9c2-.3 3.8-1 4-4"/></g><text fill="#717577" font-family="Myriad Pro" font-size="94.6" font-weight="400" transform="translate(112.2 471) scale(1.33333)" style="-inkscape-font-specification:MyriadPro-Regular"><tspan x="0 22.3 69.7 123 145.3 190.9 269.8 323.6 369.2 421.7 467.3 507.7 527.3 579.8" y="0">ledlampahaz.hu</tspan></text></svg>