<svg xmlns="http://www.w3.org/2000/svg" height="521.333" width="1085.333"><defs><clipPath id="a" clipPathUnits="userSpaceOnUse"><path d="M0 391h814V0H0z"/></clipPath></defs><path d="M414.308 269.809l231.5-.123 9.176-19.225-220.95-.295-.035-48.237 136.068-.644 10.516-19.172-146.294-.496-.308-41.704 220.503-.604-8.687-19.364-231.378-.216z" fill="#86ce26" fill-rule="evenodd"/><g clip-path="url(#a)" transform="matrix(1.33333 0 0 -1.33333 0 521.333)" fill-rule="evenodd"><path d="M525.944 286.54c33.658-.395 67.533-.033 101.207-.033 18.553 0 29.906 1.875 44.036-7.22 24.214-15.59 23.798-52.634.657-68.146-14.093-9.448-24.59-7.788-43.32-7.787-34.139.002-68.629.483-102.724-.05l-7.159-14.382c40.626-.96 81.76-.123 122.237-.196 22.24-.04 32.523 2.456 46.44 13.807 25.97 21.183 24.061 65.29.928 84.206-12.612 10.312-25.74 14.505-47.368 14.465-40.206-.075-82.107 1.192-122.082-.122zM112.96 189.191l173.591-.464 6.881 14.347-165.758.295-.02 97.737-14.664-.088z" fill="#86ce26"/><path d="M219.566 339.665l.776 17.091H113.91v-34.182c-14.652-2.322-47.384-7.302-61.599-9.873-5.217-.753-15.31-1.235-15.31-8.773 0-6.596 7.972-6.214 12.648-6.214 25.955 5.024 55.418 8.75 79.022 12.43v31.075h76.134v-15.537l1.914-2.985 20.633 2.905c41.941 6.78 84.073 13.718 126.054 20.061 21.122 3.191 43.441 7.92 63.121 4.598 108.841-17.375 217.092-33.91 325.988-50.881 6.098-1.001 9.896-1.666 16.094-1.666 4 .432 7.102 2.066 7.102 6.214 0 7.899-11.128 8.1-16.657 8.983-105.356 16.827-210.63 33.058-315.965 50.882-13.847 2.342-26.489 4.49-41.164 2.286-54.46-8.046-110.75-16.854-172.359-26.414m488.946-209.392c-1.723.479-3.183 1.456-4.312 2.91-2.328 2.858-3.074 6.567-3.074 10.269v8.042c0 .865.039 2.23-.19 3.132-.074.412-.295.8-.511 1.088-.677.77-1.942.882-2.872.882h-27.806c-3.063 0-4.915 1.877-4.915 5.21 0 2.995 1.533 4.918 4.445 5.15H696.6c2.206 0 4.656-.101 6.767-.736 1.687-.506 3.156-1.526 4.28-2.95 2.376-2.838 3.087-6.677 3.087-10.345v-7.898c0-.85-.042-2.324.172-3.116l.016-.062.009-.063c.043-.307.173-.652.487-.96.718-.818 1.95-.984 2.942-.984h27.9c3.022 0 4.606-1.976 4.606-5.13 0-3.123-1.544-5.21-4.552-5.21H715.26c-2.136 0-4.711.085-6.748.77m-211.646 25.285h58.489c2.219 0 4.576-.108 6.793-.725 1.658-.576 3.066-1.564 4.28-2.971 2.294-2.897 3.062-6.595 3.062-10.313v-6.671c0-3.318-1.694-5.374-4.86-5.374-3.188 0-4.766 2.148-4.766 5.435v5.157c0 1.017-.006 2.11-.18 3.079a2.724 2.724 0 01-.551 1.133c-.706.806-1.9.973-2.878.973h-59.391l-.005-10.897c-.275-3.007-1.917-4.88-4.815-4.88-2.923 0-4.57 1.882-4.805 5.027v32.426h9.627zm-159.591-6.532l41.946.005c2.566-.028 4.338.649 4.26 3.712-.08 3.204-2.222 3.854-4.848 3.854h-54.774c-.901 0-2.262-.127-2.912-.887-.25-.293-.45-.635-.5-1.034l-.01-.086-.02-.082c-.202-.766-.166-2.197-.166-3.013v-21.991h-9.627v23.422c0 3.698.723 7.493 3.06 10.312 1.15 1.453 2.597 2.454 4.305 2.983 2.11.656 4.579.736 6.77.736h54.772c3.865 0 7.566-1.146 10.057-4.49 2.077-2.788 3.219-5.974 3.178-9.558-.04-3.555-1.195-6.736-3.221-9.53-2.334-3.218-5.641-4.574-9.38-4.584l-43.8-.122c-2.906.175-4.403 2.178-4.403 5.209 0 3.175 1.587 5.21 4.643 5.21.228 0 .45-.011.67-.066m-68.486 7.57v-21.718c0-3.295-1.638-5.374-4.804-5.374-3.166 0-4.804 2.08-4.804 5.374v21.719h-23.113c-.903 0-2.262-.127-2.913-.89-.251-.293-.45-.633-.5-1.034l-.01-.083-.02-.082c-.202-.766-.166-2.197-.166-3.013V134.96c.046-3.346-1.612-5.459-4.821-5.459-3.202 0-4.806 2.12-4.806 5.435v17.987c0 3.697.724 7.492 3.06 10.312 1.15 1.454 2.598 2.455 4.305 2.984 2.11.656 4.579.736 6.77.736h53.874c2.187 0 4.592-.101 6.725-.74 1.696-.54 3.128-1.535 4.284-2.969 2.333-2.89 3.125-6.584 3.125-10.323v-18.048c0-3.326-1.684-5.374-4.858-5.374-3.198 0-4.817 2.116-4.817 5.435l-.006 16.556c0 .97.04 2.156-.122 3.07a2.968 2.968 0 01-.557 1.147c-.672.764-1.952.885-2.874.885H275.2zm-141.743-16.951c2.14-.59 3.216-2.426 3.216-4.991 0-3.182-1.626-5.15-4.66-5.15H62.254c-2.177 0-4.685.084-6.746.768-1.736.483-3.185 1.458-4.318 2.919-2.32 2.876-3.07 6.612-3.07 10.323v23.443h9.627v-21.93c0-.87-.037-2.306.174-3.128l.022-.087.009-.09c.039-.354.199-.605.49-.907.69-.805 1.948-.972 2.913-.972h65.69zm80.322 14.975a2.46 2.46 0 01-.493 1.09c-.671.765-1.95.887-2.872.887h-51.826c-1.898 0-4.58-.284-5.861-1.945-1.262-1.731-1.54-4.323-1.54-6.452 0-2.542.496-5.241 2.5-6.854.666-.533 1.395-.942 2.175-1.176 1.2-.3 2.556-.327 3.787-.327h38.019c3.024 0 4.642-1.958 4.642-5.13 0-3.052-1.5-5.034-4.481-5.21h-39.134c-2.547 0-5.346.24-7.754 1.174-2.122.824-3.887 2.307-5.321 4.153-3.004 3.868-4.221 8.514-4.221 13.492 0 5.508 1.223 11.035 5.139 14.887a11.541 11.541 0 005.03 2.912c2.253.697 4.79.836 7.127.836h50.82c2.189 0 4.603-.09 6.713-.736 1.703-.521 3.155-1.526 4.284-2.956 2.358-2.844 3.082-6.643 3.082-10.34v-23.421h-9.626v21.99c0 .867.039 2.23-.19 3.126m238.337 1.977h-29.121c-1.883 0-4.58-.284-5.86-1.945-1.262-1.731-1.541-4.323-1.541-6.452 0-2.542.499-5.246 2.502-6.854.66-.53 1.393-.942 2.174-1.176 1.2-.3 2.555-.327 3.786-.327h38.019c3.024 0 4.643-1.958 4.643-5.13 0-3.052-1.5-5.034-4.481-5.21H416.69c-2.533 0-5.353.25-7.755 1.174-2.113.816-3.894 2.315-5.32 4.153-2.997 3.859-4.222 8.514-4.222 13.492 0 5.508 1.23 11.046 5.139 14.887a11.574 11.574 0 005.03 2.912c2.254.697 4.79.836 7.128.836h50.819c2.19 0 4.61-.098 6.714-.736 1.695-.512 3.155-1.526 4.283-2.956 2.359-2.844 3.082-6.66 3.082-10.34v-23.421h-9.626v21.99c0 .86.04 2.235-.188 3.126a2.47 2.47 0 01-.492 1.09c-.672.765-1.952.887-2.874.887h-8.09zm176.67 0h-29.121c-1.874 0-4.58-.284-5.861-1.945-1.262-1.731-1.54-4.323-1.54-6.452 0-2.542.499-5.246 2.502-6.854.66-.53 1.392-.942 2.173-1.176 1.2-.3 2.557-.327 3.788-.327h38.018c3.024 0 4.642-1.958 4.642-5.13 0-3.052-1.5-5.034-4.482-5.21H593.36c-2.522 0-5.36.253-7.755 1.174-2.11.81-3.9 2.32-5.321 4.153-2.99 3.854-4.221 8.514-4.221 13.492 0 5.508 1.234 11.052 5.14 14.889a11.623 11.623 0 005.03 2.91c2.253.697 4.79.836 7.127.836h50.819c2.189 0 4.617-.104 6.715-.736 1.689-.51 3.154-1.526 4.284-2.957 2.357-2.844 3.08-6.67 3.08-10.338v-23.422h-9.625v21.99c0 .863.04 2.232-.19 3.126a2.47 2.47 0 01-.49 1.09c-.673.766-1.95.887-2.875.887h-8.088zM206.229 176.51c0-1.816-1.521-3.57-4.554-3.57h-46.449c-3.033 0-4.555 1.019-4.659 3.36-.175 3.928 2.796 4.272 3.848 4.296h47.861c2.103-.248 3.847-.98 3.953-4.085m438.899-.001c0-1.816-1.521-3.57-4.554-3.57h-46.45c-3.033 0-4.555 1.019-4.658 3.36-.176 3.928 2.796 4.272 3.847 4.296h47.862c2.102-.248 3.847-.98 3.953-4.085" fill="#7b7979"/></g><text style="-inkscape-font-specification:MyriadPro-Regular" transform="translate(112.16 470.974) scale(1.33333)" font-weight="400" font-size="94.566" font-family="Myriad Pro" fill="#717577"><tspan y="0" x="0 22.317575 69.695145 123.03036 145.34795 190.92876 269.79678 323.60486 369.18567 421.6698 467.25061 507.72485 527.29999 579.78412">ledlampahaz.hu</tspan></text></svg>