<svg xmlns="http://www.w3.org/2000/svg" height="122.667" width="526.667"><path d="M103.232 96.156c-1.933 14.991-9.867 25.214-28.776 25.57H58.683c18.91-.356 26.846-10.579 28.777-25.57h15.772" fill="#264a95" fill-rule="evenodd"/><path d="M74.511 96.156c-1.932 14.991-9.866 25.214-28.776 25.57H29.963c18.91-.356 26.845-10.579 28.777-25.57h15.77" fill="#264a95" fill-rule="evenodd"/><path d="M44.866 96.156c-1.933 14.991-9.867 25.214-28.776 25.57H.317c18.91-.356 26.846-10.579 28.777-25.57h15.772M.336.561h15.77c22.746.43 29.62 15.126 29.259 35.234l-.149 54.265H29.442l.152-54.265C29.956 15.687 23.08.99.336.56" fill="#264a95" fill-rule="evenodd"/><path d="M29.846.561h15.771c22.743.43 29.62 15.126 29.259 35.234l-.154 54.265h-15.77l.15-54.265C59.466 15.687 52.59.99 29.847.56" fill="#264a95" fill-rule="evenodd"/><path d="M58.46.561h15.773c22.746.43 29.62 15.126 29.258 35.234l-.151 54.265H87.569l.15-54.265C88.08 15.687 81.205.99 58.46.56" fill="#264a95" fill-rule="evenodd"/><path d="M162.33.13h-15.771c-22.745.427-29.618 15.125-29.256 35.233l.15 54.697h15.856c.684-18.126-.184-36.574-.234-54.697C132.711 15.255 139.587.557 162.33.129zm-45.196 96.022c-1.757 15.415-9.642 25.986-28.876 26.348h15.773c19.234-.363 27.12-10.932 28.877-26.348h-15.774m279.794-14.635l-3.476 4.848.09.549c3.477 2.652 8.6 4.221 13.903 4.221 8.691 0 16.282-3.124 16.282-13.734 0-16.099-22.592-10.06-22.592-20.214 0-4.298 3.841-6.86 9.238-6.86 2.562 0 5.579 1.098 7.591 2.47h.641l3.567-4.848-.183-.64c-3.568-2.47-7.592-3.567-11.798-3.567-8.142 0-16.374 4.024-16.374 13.445 0 15.916 22.592 10.885 22.592 20.214 0 5.67-4.481 7.135-9.237 7.135-2.836 0-7.592-1.464-9.512-3.11zM500.355 44.82l.821-9.219.457-.55 5.215-.731.457.366v10.152h15.183l.457.457-1.738 5.67-.64.459h-13.262v22.043c0 6.22 3.019 10.885 8.05 10.885 3.474 0 6.766-2.836 6.766-2.836l.642.091 2.834 5.214-.182.64c-3.019 2.104-6.586 3.673-10.702 3.673-8.322 0-14.725-5.685-14.725-17.118V51.425h-16.121v49.422l-1.831 9.223-.548.64-4.483-2.652-.456-.824v-55.81h-5.489l-.456-.457v-5.671l.456-.457h5.49v-9.604c0-10.062 8.231-15 16.554-15 7.227 0 11.89 3.75 13.536 5.122l.092.64-4.024 4.573-.732-.091c-1.372-1.098-4.664-3.294-8.872-3.294-4.847 0-9.237 2.379-9.237 7.684v9.97zm-52.002 39.715c-6.584 0-10.244-3.75-10.244-10.793V61.028c0-7.043 3.66-10.701 10.244-10.701 6.404 0 10.246 3.658 10.246 10.701v12.715c0 7.043-3.842 10.793-10.246 10.793zm0 6.6c10.063 0 17.563-5.594 17.563-15.839V59.565c0-10.244-7.5-15.823-17.563-15.823-10.06 0-17.561 5.58-17.561 15.823v15.732c0 10.245 7.501 15.838 17.561 15.838" fill="#0994dc" fill-rule="evenodd"/><path d="M222.57 89.566V58.833c-.093-2.47-.458-4.573-1.007-6.402 2.104-.64 7.501-2.013 9.513-2.013 5.213 0 9.695 2.744 9.695 10.61v28.538l.366.457h6.494l.457-.457v-30c0-10.428-5.945-15.824-13.993-15.824-8.782 0-12.348 4.939-13.355 6.768-2.104-4.482-6.128-6.768-11.343-6.768-9.785 0-12.438 6.22-12.804 7.408-.109-2.275-6.466-8.29-13.546-4.64 1.492 1.408 7.004.558 6.686 7.842v35.214l.458.457h6.402l.458-.457V52.431c1.645-.458 7.316-2.104 9.329-2.104 5.213 0 8.872 2.835 8.872 10.701v28.538l.457.457h6.403zm40.909-36.495c2.286-1.83 5.486-2.744 9.054-2.744 5.122 0 9.422 1.646 9.422 8.69v4.298c-.732.457-2.012.915-4.024.915h-4.575c-9.42 0-16.921 3.11-16.921 13.262 0 8.416 6.037 13.643 13.537 13.643 10.428 0 12.348-7.606 12.348-7.606l2.652 6.6.55.367 5.578-.839.457-.548-2.286-8.05V57.644c0-10.152-7.316-13.902-16.646-13.902-4.94 0-9.513 1.372-12.806 3.933l-.183.731 3.11 4.574zm7.681 31.465c-4.663 0-7.408-3.11-7.408-7.044 0-5.579 4.756-6.494 7.957-6.494h2.196c3.11 0 6.951-1.006 8.05-4.573v15.458s-6.22 2.653-10.795 2.653zm37.068 5.03V52.431c1.921-.548 3.75-.824 5.763-.824 1.921 0 3.474.184 4.756.824l.64-.458 1.372-7.683-.458-.548c-9.512 0-12.165 6.22-12.53 7.408-.967-2.46-2.107-6.915-8.69-5.945l-.458.55c3.804 14.303 2.288 29.045 2.288 43.811l.457.457h6.403zm24.901-28.264V23.893l-.457-.365-6.403.914-.457.55v64.574l.367.457h6.585l.365-.457V64.504h.732L345.66 82.89c.824 1.28 4.207 7.698 11.983 7.698.548 0 1.006 0 1.554-.091l.458-.473 1.005-5.853-.457-.458c-.458.091-.915.091-1.28.091-3.932 0-5.854-3.2-6.678-4.39l-9.512-14.452-1.921-2.194 2.104-1.83 14.727-16.098-.458-.457-9.604.914-.641.365-13.079 15.641zm27.464-16.463l-.458.457v5.67l.458.459h4.939v22.592c0 11.433 6.403 17.118 14.725 17.118 4.116 0 7.683-1.569 10.703-3.673l.183-.64-2.836-5.214-.64-.091s-3.294 2.836-6.77 2.836c-5.029 0-8.048-4.665-8.048-10.885V51.425h13.263l.64-.458 1.737-5.671-.457-.457h-15.183V34.687l-.457-.366-5.213.732-.458.55-.824 9.236h-5.304" fill="#264a95"/></svg>