<svg xmlns="http://www.w3.org/2000/svg" height="45.333" width="189.333"><path d="M8 33.631h9.6v4.32h19.68v-4.32h10.08L27.392 8z" fill="#ed1c24" fill-rule="evenodd"/><path d="M182.72 12.512h-8.736l-.096 2.304-.672-.768-.96-.768-1.152-.576-1.44-.48-1.536-.384-1.632-.096-1.728.096-1.728.288-1.728.48-1.728.864-1.536 1.056-1.44 1.44-1.152 1.728-1.056 2.112-.672 2.496-.288 2.88v1.92l.288 1.728.672 1.728.768 1.632 1.056 1.536 1.248 1.344 1.344 1.152 1.537 1.056 1.535.768 1.728.48 1.728.29 1.728-.098 1.73-.384 1.726-.672 1.728-1.152 1.632-1.536v2.976h8.832zM98.624 23.744l-.096 1.728.192 1.632.193 1.536.383 1.344.576 1.344.576 1.152.768 1.056.865.96.863.864.96.768 2.208 1.248 2.304.864 2.4.48 2.496.097 2.496-.29 2.4-.575 2.208-.864 1.92-1.248 1.633-1.536.671-.864.576-.96.384-1.056.384-1.152h-8.928l-.384.576-.48.576-.576.384-.672.288-1.632.384-1.824-.096-.864-.288-.864-.288-.672-.48-.672-.672-.576-.672-.384-.96-.192-1.056V26.72h18.817v-1.728l-.097-1.632-.288-1.632-.384-1.344-.576-1.344-.576-1.248-.768-1.056-.864-1.056-.96-.864-1.056-.768-1.152-.576-1.152-.576-2.4-.768-2.592-.384-2.592.096-2.592.48-2.399.96-2.113 1.248-1.055.864-.865.864-.768 1.056-.768 1.056-.576 1.248-.384 1.248-.384 1.44zm-35.712 0l-.096-1.056.192-1.056.384-.768.48-.768.576-.576.672-.384.672-.288.768-.096h.864l.672.192.768.384.672.576.48.672.48.864.288 1.056.096 1.248v14.208h9.024V23.744L80 22.592l.192-1.056.384-.864.576-.768.576-.48.672-.384.768-.288.768-.096.672.096.768.288.672.384.576.576.48.672.384.864.192 1.056v1.152l.096 14.208h9.12v-19.2l-.48-1.536-.768-1.344-.864-1.248-.96-.96-1.152-.768-1.248-.576-1.344-.384-1.344-.192h-1.344l-1.344.192-1.344.288-1.248.48-1.248.672-1.056.864-.864.96-.768 1.152-.48-.864-.672-.864-.768-.672-.96-.672-1.056-.576-1.248-.384-1.152-.384-1.344-.192-1.248-.096-1.344.096-1.248.288-1.248.384-1.248.48-1.056.768-.96.864-.864 1.056v-3.072h-8.928v25.44h9.216zm70.945-11.232H123.68l13.248 25.44h5.664l13.056-25.44h-9.6l-6.336 12.96zm-15.937 9.024h-10.56l.192-.96.384-.768.48-.768.672-.576.77-.384.766-.384.864-.192h1.824l.864.192.768.384.864.384.672.576.576.768.48.768zm50.4-2.304l1.248.192 1.152.384.96.576.864.672.672.864.48 1.056.288 1.056.192 1.152-.095 1.152-.289 1.152-.48.96-.672.864-.864.768-.96.48-1.152.384-1.344.096-1.248-.192-1.056-.384-.96-.576-.864-.672-.67-.864-.482-.96-.288-1.056v-1.152l.096-1.152.288-1.152.48-.96.576-.864.864-.768.96-.576 1.056-.288z" fill="#231f20" fill-rule="evenodd"/></svg>