<svg xmlns="http://www.w3.org/2000/svg" height="66.24" width="331.008"><defs><clipPath id="a" clipPathUnits="userSpaceOnUse"><path d="M0 49.68h248.256V0H0z"/></clipPath></defs><path d="M0 66.24h331.008V0H0z" fill="#fff200"/><g clip-path="url(#a)" transform="matrix(1.33333 0 0 -1.33333 0 66.24)" fill="#231f20"><path d="M45.864 8.712h11.16l-5.04 31.68H40.248l-2.304-7.704c-.648-2.16-1.656-5.184-2.232-9.36h-.144c-.504 4.104-1.44 7.128-2.088 9.216l-2.232 7.848H19.44l-5.4-31.68H25.2l1.44 12.528c.144 1.728.288 3.672.432 5.832.36-2.304.936-4.392 1.44-6.192l3.672-12.168h6.768l3.6 12.168c.576 1.8 1.08 3.888 1.44 6.192.216-2.592.36-4.536.504-5.832zm13.968 14.472c0-3.816.288-6.84 1.8-9.216 2.376-3.744 6.984-6.12 12.744-6.12 5.688 0 10.296 2.304 12.672 6.12 1.512 2.376 1.872 5.4 1.872 9.216v17.208H77.544v-17.28c0-3.312-.576-5.256-3.168-5.256-2.664 0-3.168 1.944-3.168 5.256v17.28H59.832zM94.824 8.712h11.16v10.44l2.592-4.824v11.736h-2.592v6.192h1.8c.288 0 .576 0 .792-.072v8.208H94.824zm13.752 5.616l2.952-5.616h12.816L115.848 21.6c3.672.432 6.12 3.6 6.12 8.136 0 6.768-4.32 10.656-12.816 10.656h-.576v-8.208c1.728-.288 2.592-1.368 2.592-3.096 0-1.656-.936-2.736-2.592-3.024zm18-5.616h21.456v8.568h-10.296v3.384h9.072v8.064h-9.072v3.096h10.008v8.568h-21.168z"/><path d="M166.536 15.912l3.672-7.2h13.032l-11.304 16.92 9.936 14.76h-12.96l-2.376-5.184c-.216-.504-.648-1.296-1.008-2.592-.36 1.296-.792 2.088-1.008 2.592l-2.376 5.184h-12.96l9.936-14.76-11.304-16.92h13.104l3.528 7.2c.288.432.72 1.296 1.08 2.664.36-1.368.792-2.232 1.008-2.664m18.072-7.2H196.2v31.68h-11.592zm17.712 0h11.016V20.16c0 1.296-.072 2.952-.36 4.968l9.648-16.416h11.304v31.68h-11.016v-11.52c0-1.368.072-3.024.36-5.04l-9.792 16.56h-11.16z"/></g></svg>