<svg xmlns="http://www.w3.org/2000/svg" height="1122.52" width="1587.4"><defs><clipPath id="a" clipPathUnits="userSpaceOnUse"><path d="M0 841.89h1190.55V0H0z"/></clipPath></defs><g clip-path="url(#a)" transform="matrix(1.33333 0 0 -1.33333 0 1122.52)"><path d="M725.186 440.001c0-72.956-59.143-132.097-132.097-132.097-72.955 0-132.097 59.141-132.097 132.097 0 72.955 59.142 132.097 132.097 132.097 72.954 0 132.097-59.142 132.097-132.097" fill="#ed1c24"/><path d="M602.336 456.294c-2.37-1.508-9.911.515-11.74.753-2.477.324-15.075 1.725-19.707.109-4.084-1.426-7.163-3.376-7.236-6.7-.076-3.397 1.42-5.362 1.42-5.362s-7.99 8.006-9.8 11.092c-1.317 2.245-3.261 6.433-2.722 8.695.538 2.262 1.527 6.36 10.574 9.59 9.046 3.232 21.72 3.248 24.089 3.248 2.37 0 14.183-.418 15.556-1.36 1.273-.87 2.19-7.022 2.257-10.05.069-3.13-.322-8.507-2.691-10.015m114.695 9.493c-1.586 6.91-14.172 9.82-21.144 10.875-8.988 1.359-23.865.603-23.865.603L626.71 555.2s-31.264 1.058-66.155-15.707c-12.441-5.98-24.656-16.162-35.041-26.583-3.47-3.483-10.118-7.552-20.238-8.458-6.635-.595-17.822-2.417-25.223-10.271-3.98-4.223-5.551-10.724-4.682-14.198-2.002-4.682-2.065-9.105-.19-11.138 2.719-2.946 6.835-4.948 14.5-7.363l-1.133 14.725s-5.437 2.833-6.117 6.344c-.473 2.446 1.93 6.916 5.929 9.213 5.06 2.908 15.103 3.927 15.103 3.927l-13.33-75.442 10.65 2.039 9.327-2.72 11.516 17.56 21.71-15.747 1.512-41.987 11.177 2.114 10.685-2.72 16.387 35.004h10.875l13.177-13.103h33.116l5.51 5.513 32.402-27.527 10.76 2.267 13.933-1.926-28.734 55.355 14.236 14.538s-3.287 5.776-4.57 8.118c14.877 1.283 19.498-1.692 20.994-4.041 2.379-3.738-.566-8.61-.566-8.61s6.683 6.23 8.57 9.025c1.56 2.308 5.607 6.38 4.23 12.385" fill="#231f20"/><path d="M650.564 351.99l3.412 10.872h.1l3.162-10.873zm8.75 22.687h-10.629l-12.998-35.292h10.924l1.58 5.041h11.223l1.48-5.04h11.272zm-20.922-13.444h-12.439v4.402h17.234v9.042h-28.109v-35.292h10.875v13.444h12.414zm-45.162-8.404h16.66v8.404h-16.66v4.402h18.34v9.042h-29.214v-35.292h29.76v9.043H593.23zm-29.889 6.428h-5.686v7.018h5.093c4.15 0 5.387-1.286 5.387-3.509 0-3.166-2.768-3.509-4.794-3.509m10.38-3.509c3.61 1.332 5.288 5.188 5.288 8.845 0 6.674-5.34 10.084-11.517 10.084h-20.71v-35.292h10.873v12.306h5.784c4.3 0 4.597-3.509 4.894-6.872.147-1.826.345-3.655.89-5.434h10.876c-.989 1.63-1.039 5.831-1.187 7.56-.395 4.402-2.225 7.663-5.19 8.803m-44.68 2.717h-2.824v7.17h3.465c2.668 0 5.142-.202 5.142-3.412 0-3.559-2.966-3.758-5.784-3.758m3.114 16.212h-16.812v-35.292h10.875v10.674h5.046c8.107 0 13.842 4.006 13.842 12.557 0 5.041-3.362 12.061-12.95 12.061" fill="#fff"/><path d="M565.152 283.812l-1.758-8.442h3.518zm3.358-16.087l-.735 3.552h-5.245l-.736-3.552h-4.733l5.853 22.772h4.476l5.853-22.772zm17.769 18.679v-18.68h-4.534v18.68h-3.838v4.092h12.209v-4.092zm5.452-18.679v22.77h10.482v-4.09h-5.947v-5.158h5.115v-4.092h-5.115v-5.337h5.947v-4.093zm19.714 18.679v-18.68h-4.535v18.68h-3.838v4.092h12.21v-4.092zm13.137-7.294c0 .684-.006 1.365-.016 2.05a34.552 34.552 0 01-.082 1.92 14.364 14.364 0 01-.193 1.6c-.086.47-.193.831-.32 1.087-.129.256-.319.47-.565.641-.246.171-.584.256-1.013.256-.43 0-.756-.085-.983-.256a1.81 1.81 0 01-.529-.64c-.131-.257-.237-.618-.322-1.089a14.836 14.836 0 01-.194-1.6 33.686 33.686 0 01-.08-1.92 116.637 116.637 0 010-4.097c.01-.682.037-1.323.08-1.92.043-.598.108-1.132.194-1.6.085-.47.191-.833.322-1.088.127-.257.305-.47.529-.642.227-.17.553-.255.983-.255.429 0 .767.085 1.013.255.246.172.436.385.565.642.127.255.234.617.32 1.088.088.468.15 1.002.193 1.6.043.597.071 1.238.082 1.92.01.684.016 1.365.016 2.048m4.533 0c0-.768-.006-1.583-.015-2.447a25.663 25.663 0 00-.161-2.576 12.941 12.941 0 00-.496-2.415c-.234-.758-.576-1.403-1.023-1.936a7.612 7.612 0 00-1.955-1.6c-.768-.447-1.791-.672-3.072-.672a7.57 7.57 0 00-1.713.176c-.502.117-.95.283-1.344.496a5.874 5.874 0 00-1.057.72c-.31.267-.592.561-.847.88-.45.533-.791 1.178-1.026 1.936-.234.756-.4 1.561-.496 2.415-.096.853-.15 1.711-.16 2.576a175.37 175.37 0 000 4.895c.01.865.064 1.722.16 2.576.096.853.262 1.652.496 2.4a5.856 5.856 0 001.026 1.951c.255.32.537.612.847.88.309.266.662.507 1.057.72.394.213.842.38 1.344.495a7.514 7.514 0 001.713.176c1.281 0 2.304-.224 3.072-.67a7.674 7.674 0 001.955-1.6 5.886 5.886 0 001.023-1.953c.235-.747.401-1.546.496-2.399.096-.854.151-1.71.161-2.576.009-.864.015-1.68.015-2.448m-2.109 12.855h-2.56l1.249 4.675h3.42zm-6.045 0h-2.588l1.278 4.675h3.42zM492.817 234.39v22.772h10.481v-4.091h-5.947v-5.158h5.116v-4.092h-5.116v-5.337h5.947v-4.093zm20.737 15.837c0 .318-.017.649-.048.989a3.112 3.112 0 01-.223.927 1.532 1.532 0 01-.542.67c-.246.172-.581.258-1.004.258h-1.915v-5.718h1.915c.423 0 .758.09 1.004.27.244.182.424.41.542.687.117.277.19.586.223.927.03.34.048.67.048.99m.545-15.836l-2.776 8.868h-1.501v-8.868h-4.534v22.772h6.48c1.234 0 2.26-.161 3.08-.48.819-.32 1.468-.772 1.948-1.36.479-.585.813-1.311 1.005-2.174.19-.864.287-1.84.287-2.927 0-.618-.032-1.21-.096-1.774a7.284 7.284 0 00-.367-1.616 4.981 4.981 0 00-.782-1.423c-.34-.437-.787-.826-1.34-1.166l3.32-9.852zm14.671 11.385c0 .684-.006 1.365-.017 2.05-.01.681-.038 1.322-.08 1.92a14.604 14.604 0 01-.194 1.6c-.084.47-.192.831-.32 1.087a1.7 1.7 0 01-.565.641c-.247.171-.584.256-1.013.256-.43 0-.757-.085-.983-.256a1.823 1.823 0 01-.53-.64c-.129-.257-.236-.618-.322-1.089a14.836 14.836 0 01-.194-1.6 34.633 34.633 0 01-.08-1.92 139.96 139.96 0 010-4.097c.011-.682.037-1.323.08-1.92.043-.598.108-1.132.194-1.6.086-.47.193-.833.322-1.088.128-.257.306-.47.53-.642.226-.17.553-.255.983-.255.43 0 .766.085 1.013.255.248.172.436.385.565.642.128.255.236.617.32 1.088.087.468.15 1.002.193 1.6.043.597.071 1.238.081 1.92.011.684.017 1.365.017 2.048m4.533 0c0-.768-.005-1.583-.015-2.447a25.962 25.962 0 00-.16-2.576 13.104 13.104 0 00-.497-2.415c-.233-.758-.575-1.403-1.023-1.936a7.601 7.601 0 00-1.953-1.6c-.77-.447-1.792-.672-3.072-.672-.642 0-1.212.06-1.714.176-.501.117-.95.283-1.345.496a5.946 5.946 0 00-1.057.72 6.64 6.64 0 00-.846.88c-.45.533-.79 1.178-1.026 1.936-.235.756-.4 1.561-.496 2.415a25.663 25.663 0 00-.16 2.576c-.011.864-.017 1.68-.017 2.447 0 .768.006 1.584.017 2.448.01.865.063 1.722.16 2.576.096.853.26 1.652.496 2.4a5.892 5.892 0 001.026 1.951 6 6 0 001.903 1.6c.395.213.844.38 1.345.495a7.517 7.517 0 001.714.176c1.28 0 2.303-.224 3.072-.67a7.664 7.664 0 001.953-1.6 5.87 5.87 0 001.024-1.953c.235-.747.4-1.546.497-2.399.095-.854.15-1.71.16-2.576.01-.864.015-1.68.015-2.448m14.159-4.894c0-1.152-.096-2.14-.287-2.96a4.183 4.183 0 00-1.184-2.097c-.512-.49-1.19-.895-2.031-1.214-.843-.32-1.817-.48-2.928-.48-1.131 0-2.106.149-2.926.447-.822.299-1.49.703-2 1.215-.555.554-.944 1.24-1.167 2.063-.225.82-.337 1.817-.337 2.99h4.534c0-.47.027-.875.08-1.216a1.62 1.62 0 01.403-.863c.128-.15.305-.277.53-.383.225-.106.52-.16.883-.16.665 0 1.146.19 1.447.577.299.363.449 1.004.449 1.922 0 .535-.027.978-.08 1.332-.053.35-.154.64-.303.865a1.84 1.84 0 01-.608.56 8.755 8.755 0 01-.993.48l-2.878 1.184a7.137 7.137 0 00-1.488.798 3.596 3.596 0 00-1.008 1.086c-.255.424-.448.946-.575 1.564-.13.617-.192 1.373-.192 2.269 0 1.063.17 2.02.512 2.874.339.85.85 1.575 1.533 2.17a5.948 5.948 0 001.852 1.07c.682.246 1.459.368 2.332.368 1.959 0 3.45-.48 4.473-1.44.617-.575 1.064-1.31 1.342-2.205.276-.895.415-1.92.415-3.07h-4.534c0 .405-.016.783-.048 1.135a1.76 1.76 0 01-.336.912 1.465 1.465 0 01-.495.415c-.204.106-.476.16-.817.16-.32 0-.586-.058-.8-.176a1.595 1.595 0 01-.512-.43c-.255-.341-.383-.883-.383-1.628 0-.363.02-.666.063-.91.043-.245.119-.453.225-.622.107-.171.267-.325.48-.463.212-.14.479-.273.799-.4l2.847-1.148c.726-.3 1.322-.614 1.792-.945a3.856 3.856 0 001.135-1.248c.289-.502.49-1.103.608-1.807.117-.703.176-1.568.176-2.591m-16.26 17.617h-2.559l1.247 4.675h3.421zm-6.044 0h-2.592l1.28 4.675h3.421zm41.131-24.009v11.865l-2.496-7.802h-2.337l-2.43 7.771V234.49h-4.535v22.771h3.996l4.154-11.162 4.154 11.162h4.027v-22.77zm7.261 22.771h4.533V234.49h-4.533zm16.615-22.771l-4.822 11.13v-11.13h-4.535v22.771h3.961l4.726-11.129v11.13h4.534V234.49zm13.842 18.678V234.49h-4.535v18.678h-3.837v4.093h12.209v-4.093zm16.605-2.591l-1.76-8.443h3.52zm3.357-16.087l-.735 3.552h-5.244l-.736-3.552h-4.734l5.853 22.771h4.477l5.852-22.77zm18.852 7.033c0 1.043-.166 1.794-.497 2.252-.332.458-.948.687-1.849.687h-1.446v-5.878h1.446c.922 0 1.542.228 1.865.687.321.458.481 1.208.481 2.252m0 9.209c0 .876-.17 1.5-.514 1.876-.342.375-.975.56-1.895.56h-1.383v-4.874h1.383c.9 0 1.525.19 1.88.577.352.384.53 1.006.53 1.86m4.533-9.242c0-1.236-.112-2.312-.336-3.227-.223-.917-.623-1.674-1.199-2.268-.49-.491-1.115-.864-1.87-1.12-.759-.254-1.713-.383-2.864-.383h-6.59v22.77h6.59c1.151 0 2.11-.122 2.88-.368.766-.245 1.395-.612 1.886-1.103.554-.535.944-1.211 1.167-2.033.224-.823.336-1.778.336-2.865 0-.747-.058-1.426-.176-2.034-.117-.607-.42-1.157-.91-1.647a5.313 5.313 0 00-.463-.417 2.875 2.875 0 00-.589-.353c.212-.106.398-.23.558-.366a8.6 8.6 0 00.463-.432 3.8 3.8 0 00.957-2.045c.106-.767.16-1.47.16-2.11m2.425 15.773h4.534V234.49h-4.534zm16.526-22.771l-3.261 8.315-1.471-3.07v-5.245h-4.535v22.771h4.535v-9.787l4.317 9.787h4.54l-4.54-9.467 5.276-13.304z" fill="#231f20"/><path d="M678.778 250.577l-1.759-8.443h3.518zm3.357-16.087l-.736 3.552h-5.244l-.735-3.552h-4.733l5.852 22.771h4.477l5.853-22.77z" fill="#231f20"/><path d="M688.808 257.261h4.293v-16.15h-4.293zm-.246-17.976h4.798v-4.795h-4.798z" fill="#ed1c24"/><path d="M631.848 261.316v10.857h4.686v-7.392z" fill="#231f20"/></g></svg>