<svg version="1.1" id="Layer_1" xmlns="http://www.w3.org/2000/svg" x="0" y="0" viewBox="0 0 228.1 49.8" xml:space="preserve"><style>.st0{fill:#ed1c24}</style><path class="st0" d="M224.5 7.5C222.3 7.5 221 6 221 4s1.4-3.5 3.5-3.5 3.6 1.5 3.6 3.4c0 2.1-1.5 3.6-3.6 3.6m0-6.2c-1.6 0-2.7 1.2-2.7 2.8 0 1.6 1.1 2.7 2.7 2.7s2.8-1.1 2.8-2.7c0-1.7-1.2-2.8-2.8-2.8"/><path class="st0" d="M226.3 5.9h-.8l-.6-1.3c-.1-.2-.2-.3-.3-.3h-.6v1.6h-.7V2h1.4c.8 0 1.2.4 1.2 1s-.3.9-.6 1.1c.1.1.2.2.2.3l.8 1.5zm-1.8-2.1c.5 0 .7-.3.7-.6 0-.4-.3-.5-.8-.5h-.4v1.2h.5zM25.3.7v12.1h7V6.5h3.8v21h-4.5v6.1h17.1v-6.1h-4.5v-21h3.7v6.3H55V.7H25.3zm163.2 0v12.1h7V6.5h3.8v21h-4.5v6.1h17.1v-6.1h-4.5v-21h3.7v6.3h7.1V.7h-29.7zM141.3.6l-6.2 21.9L129.2.6h-15.8v5.9h3.9v21h-3.9v6h14.1v-6h-3.3V10.7l6.7 22.9h7.8l6.9-23v17H142v6h15v-6h-4.1v-21h4.1v-6h-15.7zM97.8.6v5.9h4.1l-7 18.3-7.1-18.3H92V.6H76.4v5.9h2.8l11.1 27h8.6l11.1-27h2.8V.6h-15zM67.3 8.3l3.7 9.5h-7.5l3.8-9.5zM63.2.5L52 27.5h-2.7v6.1h14.1v-6.1h-3.5l1.4-3.7h12.1l1.4 3.7h-3.5v6.1h14.8v-6.1h-2.7L72.3.5h-9.1zm112.4 7.8l3.6 9.5h-7.5l3.9-9.5zM171.5.5l-11.2 27h-2.7v6.1h14.1v-6.1h-3.5l1.4-3.7h12.1l1.4 3.7h-3.5v6.1h14.8v-6.1h-2.7L180.7.7l-.1-.2h-9.1zM10.6 0h-.9l-.8.1-.8.2-.8.2-.7.2-.7.3-.7.3-.6.4-.6.4-.6.5-.6.5-.5.6-.4.6-.4.6-.3.6-.3.7-.3.7-.1.8-.2.7V10l.1 1.2.2 1.4.4 1.2.3.6.3.6.4.5.3.5.4.5.4.3.6.4.9.5 1.4.7 2 .7 3.6 1 1.1.4 1 .4.9.4.5.3.5.3.4.3.3.3.3.3.2.3.2.3.1.3.1.3.1.3v.9l-.2.7-.3.6-.4.5-.4.3-.6.4-.7.3-.9.2-1.1.1h-.9l-.9-.3-.7-.2-.6-.2-.5-.3-.5-.4-.4-.4-.3-.5-.3-.5-.2-.7-.2-.8-.1-1 .1-1.5H0v12.3h7V32l.1.1.9.7.8.5 1 .4 1.1.3 1.4.2 1.6.1h1.3l.9-.1.9-.1.9-.2.8-.2.8-.3.7-.3.7-.4.7-.4.6-.5.6-.5.5-.6.5-.6.4-.6.4-.7.3-.7.2-.8.2-.8.1-.8.1-.8V24l-.1-1.2-.2-1.4-.2-1.5-.3-.6-.3-.6-.4-.6-.4-.5-.5-.5-.6-.5-.7-.5-1-.6-1.3-.5-7.1-2.4-1.6-.7-.8-.4-.6-.5-.3-.3-.2-.3-.1-.4-.2-.4V8.5l.1-.3.1-.2.2-.3.2-.2.2-.2.2-.3.4-.3.6-.3.8-.2 1-.1h.1l.8.1.7.2.7.2.6.3.7.5.3.3.3.4.4.7.3 1 .3 1.2.2 1.8h7V.7h-7v1.4l-.6-.4-.9-.5-1.2-.5-1.3-.4-1.4-.2-1.5-.1h-.3zM0 40.4v1.3h1.2v6.5H0v1.4h8.2v-3H6.6v1.7H3.1v-2.7h1.3v1.2h1.4V43H4.4v1.2H3.1v-2.5h3.5v1.4h1.5v-2.7H0zm4.4-3.5l-1.3 2.5h1l2.1-2.5H4.4zm8.2 4.8v3.1H14c1.1 0 1.6-.5 1.6-1.6 0-.5-.1-.9-.4-1.1-.3-.2-.6-.4-1.2-.4h-1.4zm-3.2 6.5h1.2v-6.5H9.4v-1.3h4.9c1.1 0 1.9.2 2.4.7.5.4.8 1.2.8 2.2 0 1-.3 1.7-.8 2.2s-1.3.7-2.5.7h-1.7v2.1H14v1.4H9.4v-1.5zm11.8-11.3H23l-2.1 2.5h-1l1.3-2.5zm-2.3 11.3H20v-6.5h-1.2v-1.3h4.3v1.3H22v6.5h1.2v1.4h-4.3v-1.4zm7 0h1.3v-6.5h-1.5v1.8h-1.6v-3.1h8.2v3.1h-1.7v-1.8h-1.5v6.5h1.3v1.4h-4.5zm13.8-11.3h1.6l-1.9 2.5h-.8l1.1-2.5zm-2.1 0h1.5l-1.6 2.5h-.7l.8-2.5zm-2 8.1c0 1.1.2 1.9.7 2.5.5.6 1.1.9 2 .9.8 0 1.5-.3 2-.9.5-.6.7-1.4.7-2.5s-.2-1.9-.7-2.5c-.5-.6-1.1-.9-2-.9-.8 0-1.5.3-2 .9-.5.5-.7 1.4-.7 2.5m-2.1 0c0-.7.1-1.4.3-2 .2-.6.5-1.1.9-1.5.4-.4.9-.7 1.5-1 .6-.2 1.2-.3 2-.3.7 0 1.4.1 2 .3.6.2 1.1.5 1.5 1 .4.4.7.9.9 1.5.2.6.3 1.3.3 2s-.1 1.4-.3 2c-.2.6-.5 1.1-.9 1.5-.4.4-.9.7-1.5.9-.6.2-1.3.3-2 .3s-1.4-.1-2-.3c-.6-.2-1.1-.5-1.5-.9-.4-.4-.7-.9-.9-1.5-.2-.6-.3-1.3-.3-2m16.6.4l-1.3-3.6-1.4 3.6h2.7zm-6.3 2.8h.7l3.3-7.9h2.3l3.2 7.9h.7v1.4h-3.9v-1.4h1.1l-.5-1.5h-3.8l-.6 1.5h1.1v1.4h-3.7v-1.4zm10.9 0h1.2v-6.5h-1.2v-1.3h3.9l3.5 7v-5.7H61v-1.3h3.9v1.3h-1v7.9h-2.5l-3.8-7.5v6.1h1.2v1.4h-4.1zm13.7 0h1.2v-2l-3.1-4.5h-.7v-1.3H70v1.3h-1.2l1.9 3 1.8-3h-1.2v-1.3h4v1.3h-.7l-3.1 4.5v2h1.2v1.4h-4.3zm12.7-2.8l-1.3-3.6-1.4 3.6h2.7zm-6.3 2.8h.7l3.3-7.9h2.3l3.2 7.9h.7v1.4h-3.9v-1.4h1.1l-.5-1.5h-3.8l-.6 1.5h1.1v1.4h-3.7v-1.4zm18.1.3c-.3.8-1.2 1.2-2.6 1.2-.7 0-1.3-.1-1.9-.3-.6-.2-1-.5-1.4-1s-.7-.8-1-1.4c-.2-.6-.3-1.3-.3-2s.1-1.4.3-2c.2-.6.5-1.1.9-1.5.4-.4.8-.7 1.4-.9.5-.2 1.2-.3 1.8-.3.6 0 1.2.1 1.6.2.4.2.8.4 1.1.8v-.8h1.7v3.2h-1.7c-.1-.6-.3-1.1-.7-1.5s-.9-.5-1.5-.5c-.4 0-.8.1-1.1.2-.3.2-.6.4-.9.7-.2.3-.4.7-.6 1.1-.1.4-.2.9-.2 1.5 0 1.1.2 1.9.7 2.5.5.6 1.1.9 2 .9.7 0 1.2-.2 1.5-.6.4-.4.6-.9.6-1.6h-1.3V45h4.1v1.3h-.9v3.4h-1.7v-1.2zm7.9-.3h1.1v-6.5h-1.1v-1.3h4.1v1.3h-1.1v2.9l2.9-2.9h-.8v-1.3h3.9v1.3h-.8l-3 3 3 3.5h1v1.4h-4.2v-1.4h1l-3-3.3v3.3h1.1v1.4h-4.1zm10 0h1.2v-6.5h-1.2v-1.3h8.2v2.7h-1.6v-1.4h-3.5v2.5h1.3V43h1.5v3.7h-1.5v-1.2h-1.3v2.7h3.5v-1.7h1.6v3.1h-8.2zm14.2-3.7c.5 0 .8-.1 1.1-.4.3-.2.4-.6.4-1.1 0-.4-.1-.8-.4-1-.3-.2-.7-.3-1.2-.3h-1.6v2.8h1.7zm-4.8 3.7h1.2v-6.5h-1.2v-1.3h5.1c2.1 0 3.2.9 3.2 2.6 0 .6-.2 1.1-.5 1.5-.3.4-.9.6-1.6.7.8.1 1.4.5 1.6 1.2l.5 1.8h.9v1.4h-2.5l-.8-2.9c-.1-.2-.1-.4-.2-.5l-.3-.3c-.1-.1-.3-.1-.5-.1h-1.7v2.5h1.5v1.4h-4.6v-1.5zm10.1 0h1.2v-6.5h-1.2v-1.3h8.2v2.7H137v-1.4h-3.5v2.5h1.3V43h1.4v3.7h-1.4v-1.2h-1.3v2.7h3.4v-1.7h1.6v3.1h-8.2zm9.6-1.8h1.7v.2c0 .6.2 1 .5 1.3.3.3.8.4 1.3.4s.9-.1 1.1-.3c.3-.2.4-.5.4-.9 0-.2 0-.4-.1-.6-.1-.1-.2-.3-.4-.4-.2-.1-.4-.2-.7-.3l-.9-.3c-.5-.1-.9-.3-1.3-.4-.4-.1-.7-.3-.9-.5-.4-.4-.7-1-.7-1.8 0-.4.1-.8.2-1.1.1-.3.3-.6.6-.9l.9-.6c.4-.1.7-.2 1.2-.2s.9.1 1.3.2c.4.2.7.4.9.7v-.7h1.6V43H145c0-.5-.2-.9-.5-1.2s-.7-.4-1.2-.4c-.4 0-.7.1-1 .3-.2.2-.4.5-.4.8 0 .3.1.6.4.8.3.2.7.3 1.2.5.3.1.5.2.8.3.3.1.5.2.7.2l.6.3c.2.1.4.2.5.4.5.4.7 1 .7 1.8 0 .9-.3 1.6-.8 2.1-.6.5-1.3.8-2.3.8-.5 0-.9-.1-1.3-.2-.4-.2-.7-.4-.9-.7v.8h-1.6v-3.2zm8.3 1.8h1.1v-6.5h-1.1v-1.3h4.1v1.3h-1.1v2.9l2.8-2.9h-.8v-1.3h4v1.3h-.9l-2.9 3 3 3.5h.9v1.4h-4.2v-1.4h1l-2.9-3.3v3.3h1.1v1.4h-4.1zm10 0h1.2v-6.5h-1.2v-1.3h8.1v2.7h-1.5v-1.4h-3.5v2.5h1.3V43h1.4v3.7h-1.4v-1.2h-1.3v2.7h3.5v-1.7h1.5v3.1h-8.1zm13.9 0c1 0 1.7-.3 2.2-.9.5-.6.8-1.4.8-2.4s-.3-1.8-.8-2.4c-.5-.5-1.2-.8-2.2-.8h-1.4v6.5h1.4zm-4.5 0h1.2v-6.5h-1.2v-1.3h4.6c.7 0 1.3 0 1.8.1s1 .3 1.4.6c.5.4.9.9 1.2 1.5.3.6.4 1.4.4 2.3 0 3.1-1.6 4.6-4.8 4.6h-4.8v-1.3zm10.7 0h1.2v-6.5h-1.2v-1.3h8.2v2.7h-1.6v-1.4h-3.5v2.5h1.3V43h1.5v3.7h-1.5v-1.2h-1.3v2.7h3.5v-1.7h1.6v3.1h-8.2zm9.4 0h1.2v-6.5h-1.2v-1.3h4.4v1.3h-1.3v6.5h2.9v-1.9h1.6v3.3h-7.6zm8.8 0h1.2v-6.5h-1.2v-1.3h8.1v2.7h-1.5v-1.4h-3.5v2.5h1.3V43h1.4v3.7h-1.4v-1.2h-1.3v2.7h3.5v-1.7h1.5v3.1h-8.1zm9.4 0h1.2v-6.5h-1.2v-1.3h4.2l1.9 6.9 2-6.9h4.2v1.3H217v6.5h1.2v1.4h-4v-1.4h1v-6.5l-2.3 7.9h-2l-2.3-7.9v6.5h1v1.4h-3.7z"/></svg>