<svg xmlns="http://www.w3.org/2000/svg" id="Layer_1" data-name="Layer 1" viewBox="0 0 159.5 159.5"><defs><style>.cls-1,.cls-2{fill:none}.cls-1,.cls-2,.cls-3{stroke:#e6302b;stroke-width:2px}.cls-1,.cls-3{stroke-miterlimit:10}.cls-2{stroke-linecap:round;stroke-linejoin:round}.cls-3{fill:#fff}</style></defs><title>tanoda</title><circle cx="79.75" cy="79.75" r="78.33" class="cls-1"/><rect width="53.54" height="62.03" x="52.98" y="57.72" class="cls-1" rx="5.67" ry="5.67"/><path d="M928.81,446.95H971a5.62,5.62,0,0,1,.94.08c0-.09,0-0.18,0-0.27v-3.32a3.32,3.32,0,0,0-3.32-3.32H931.17a3.32,3.32,0,0,0-3.32,3.32v3.32c0,0.09,0,.18,0,0.27A5.62,5.62,0,0,1,928.81,446.95Z" class="cls-1" transform="translate(-870.16 -389.23)"/><line x1="57.69" x2="90.65" y1="53.04" y2="53.04" class="cls-1"/><line x1="101.81" x2="73.79" y1="55.26" y2="55.26" class="cls-1"/><path d="M936.81,499.75h0l-2-4.92V430.95a2,2,0,0,1,2-2h0a2,2,0,0,1,2,2v63.88Z" class="cls-2" transform="translate(-870.16 -389.23)"/><path d="M934.84,494.82c0.4-.81,1-1,1.45-0.08,0.41-.73.82-0.93,1.2,0,0.41-1,1.38-.42,1.29.08" class="cls-2" transform="translate(-870.16 -389.23)"/><polygon points="67.35 108.61 65.98 108.61 66.58 109.97 67.35 108.61" class="cls-3"/><path d="M79.19,41.66h0A3.32,3.32,0,0,1,82.51,45V69.87a3.32,3.32,0,0,1-3.32,3.32H77.56a1.69,1.69,0,0,1-1.69-1.69V45a3.32,3.32,0,0,1,3.32-3.32Z" class="cls-2"/><path d="M952.67,433.84h0a3.33,3.33,0,0,1,3.32,3.32v18.4" class="cls-2" transform="translate(-870.16 -389.23)"/><path d="M947.25,496.24a4.22,4.22,0,0,1,4.18,0" class="cls-2" transform="translate(-870.16 -389.23)"/><path d="M949.35,462.42a11.26,11.26,0,0,1-2.09-.09v33.91l2.09,3.51,2.09-3.51V462.33A11.26,11.26,0,0,1,949.35,462.42Z" class="cls-2" transform="translate(-870.16 -389.23)"/><rect width="7.02" height="22.95" x="89.99" y="87.57" class="cls-2" rx="3.51" ry="3.51"/><path d="M963.65,476.79c1,0,1.95-.2,2.68-0.23V433.69a2.68,2.68,0,1,0-5.35,0v42.88C961.71,476.6,962.64,476.79,963.65,476.79Z" class="cls-2" transform="translate(-870.16 -389.23)"/></svg>