<svg id="Layer_1" data-name="Layer 1" xmlns="http://www.w3.org/2000/svg" viewBox="0 0 159.5 159.5"><defs><style>.cls-1{fill:none;stroke:#e6302b;stroke-miterlimit:10;stroke-width:2.83px;}.cls-2{fill:#e6302b;}</style></defs><title>feladatlap</title><circle class="cls-1" cx="79.75" cy="79.75" r="78.33"/><rect class="cls-1" x="56.82" y="46.3" width="53.6" height="73.45" rx="2.58" ry="2.58"/><rect class="cls-1" x="61.79" y="51.46" width="14.89" height="14.89"/><rect class="cls-1" x="79.53" y="82.23" width="25.33" height="11.12"/><line class="cls-1" x1="80.84" y1="51.46" x2="104.86" y2="51.46"/><line class="cls-1" x1="80.84" y1="55.23" x2="106.65" y2="55.23"/><line class="cls-1" x1="80.84" y1="60" x2="104.86" y2="60"/><line class="cls-1" x1="80.84" y1="64.56" x2="102.88" y2="64.56"/><line class="cls-1" x1="61.79" y1="76.48" x2="96.52" y2="76.48"/><line class="cls-1" x1="61.79" y1="72.7" x2="96.52" y2="72.7"/><line class="cls-1" x1="61.79" y1="85.41" x2="75.88" y2="85.41"/><line class="cls-1" x1="61.79" y1="90.97" x2="74.29" y2="90.97"/><line class="cls-1" x1="61.79" y1="99.3" x2="88.49" y2="99.3"/><line class="cls-1" x1="61.79" y1="106.65" x2="100.5" y2="106.65"/><line class="cls-1" x1="61.79" y1="112.21" x2="80.15" y2="112.21"/><path class="cls-1" d="M926.42,253.21a2.58,2.58,0,0,1,2.58-2.58h47.54v-1a2.58,2.58,0,0,0-2.58-2.58H925.53a2.58,2.58,0,0,0-2.58,2.58v68.29a2.58,2.58,0,0,0,2.58,2.58h0.89v-67.3Z" transform="translate(-869.6 -204.33)"/><path class="cls-1" d="M922.94,249.64a2.58,2.58,0,0,1,2.58-2.58h46.75v-0.4a2.58,2.58,0,0,0-2.58-2.58H921.26a2.58,2.58,0,0,0-2.58,2.58v68.29a2.58,2.58,0,0,0,2.58,2.58h1.69V249.64Z" transform="translate(-869.6 -204.33)"/><path class="cls-2" d="M943.53,263.74a2.85,2.85,0,0,0-1.8-4.64l-0.33,0a3.25,3.25,0,0,1-5.15,0l-0.33,0a2.85,2.85,0,0,0-1.8,4.64l4.7,4.26Z" transform="translate(-869.6 -204.33)"/></svg>