<svg xmlns="http://www.w3.org/2000/svg" id="Layer_1" data-name="Layer 1" viewBox="0 0 159.5 159.5"><defs><style>.cls-1{fill:none;stroke:#e6302b;stroke-miterlimit:10;stroke-width:2px}.cls-2{fill:#e6302b}</style></defs><title>feladatlap</title><circle cx="79.75" cy="79.75" r="78.33" class="cls-1"/><rect width="53.6" height="73.45" x="56.82" y="46.3" class="cls-1" rx="2.58" ry="2.58"/><rect width="14.89" height="14.89" x="61.79" y="51.46" class="cls-1"/><rect width="25.33" height="11.12" x="79.53" y="82.23" class="cls-1"/><line x1="80.84" x2="104.86" y1="51.46" y2="51.46" class="cls-1"/><line x1="80.84" x2="106.65" y1="55.23" y2="55.23" class="cls-1"/><line x1="80.84" x2="104.86" y1="60" y2="60" class="cls-1"/><line x1="80.84" x2="102.88" y1="64.56" y2="64.56" class="cls-1"/><line x1="61.79" x2="96.52" y1="76.48" y2="76.48" class="cls-1"/><line x1="61.79" x2="96.52" y1="72.7" y2="72.7" class="cls-1"/><line x1="61.79" x2="75.88" y1="85.41" y2="85.41" class="cls-1"/><line x1="61.79" x2="74.29" y1="90.97" y2="90.97" class="cls-1"/><line x1="61.79" x2="88.49" y1="99.3" y2="99.3" class="cls-1"/><line x1="61.79" x2="100.5" y1="106.65" y2="106.65" class="cls-1"/><line x1="61.79" x2="80.15" y1="112.21" y2="112.21" class="cls-1"/><path d="M926.42,253.21a2.58,2.58,0,0,1,2.58-2.58h47.54v-1a2.58,2.58,0,0,0-2.58-2.58H925.53a2.58,2.58,0,0,0-2.58,2.58v68.29a2.58,2.58,0,0,0,2.58,2.58h0.89v-67.3Z" class="cls-1" transform="translate(-869.6 -204.33)"/><path d="M922.94,249.64a2.58,2.58,0,0,1,2.58-2.58h46.75v-0.4a2.58,2.58,0,0,0-2.58-2.58H921.26a2.58,2.58,0,0,0-2.58,2.58v68.29a2.58,2.58,0,0,0,2.58,2.58h1.69V249.64Z" class="cls-1" transform="translate(-869.6 -204.33)"/><path d="M943.53,263.74a2.85,2.85,0,0,0-1.8-4.64l-0.33,0a3.25,3.25,0,0,1-5.15,0l-0.33,0a2.85,2.85,0,0,0-1.8,4.64l4.7,4.26Z" class="cls-2" transform="translate(-869.6 -204.33)"/></svg>