<svg id="Layer_1" data-name="Layer 1" xmlns="http://www.w3.org/2000/svg" viewBox="0 0 159.5 159.5"><defs><style>.cls-1{fill:none;stroke:#e6302b;stroke-width:2px;}.cls-2{fill:#e6302b;}</style></defs><title>korai</title><circle class="cls-1" cx="79.75" cy="79.75" r="78.33"/><rect class="cls-1" x="51.19" y="82.68" width="22.98" height="17.45" rx="1.32" ry="1.32"/><rect class="cls-1" x="76.39" y="82.68" width="31.92" height="17.45" rx="1.32" ry="1.32"/><rect class="cls-1" x="1149.89" y="286.39" width="21.7" height="17.45" rx="1.32" ry="1.32" transform="translate(-215.38 1230.59) rotate(-90)"/><rect class="cls-1" x="42.36" y="102.3" width="22.98" height="17.45" rx="2.58" ry="2.58"/><path class="cls-1" d="M1195.56,327.56h-44.21a2.58,2.58,0,0,0-2.58,2.58v12.3a2.58,2.58,0,0,0,2.58,2.58h4.23a1.26,1.26,0,0,0,1.09-.65,19.34,19.34,0,0,1,33.56,0,1.26,1.26,0,0,0,1.09.65h4.23a2.58,2.58,0,0,0,2.58-2.58v-12.3A2.58,2.58,0,0,0,1195.56,327.56Z" transform="translate(-1080.99 -225.26)"/><path class="cls-1" d="M1176.07,279.55l-14-14a1.91,1.91,0,0,0-2.7,0l-14,14a1.91,1.91,0,0,0,1.35,3.26h28A1.91,1.91,0,0,0,1176.07,279.55Z" transform="translate(-1080.99 -225.26)"/><path class="cls-2" d="M1166.44,294.82a3.45,3.45,0,0,0-2.18-5.62l-0.4,0a3.94,3.94,0,0,1-6.24,0l-0.4,0a3.45,3.45,0,0,0-2.18,5.62l5.7,5.17Z" transform="translate(-1080.99 -225.26)"/></svg>