<svg xmlns="http://www.w3.org/2000/svg" id="Layer_1" data-name="Layer 1" viewBox="0 0 159.5 159.5"><defs><style>.cls-1{fill:none;stroke:#e6302b;stroke-miterlimit:10;stroke-width:2px}</style></defs><title>mentor</title><circle cx="79.75" cy="79.75" r="78.33" class="cls-1"/><path d="M1179,119.74h-44.84l-5.8,9.62V55.16a5.8,5.8,0,0,1,5.8-5.8H1179a5.8,5.8,0,0,1,5.8,5.8v58.78A5.8,5.8,0,0,1,1179,119.74Z" class="cls-1" transform="translate(-1076.84 -9.61)"/><rect width="38.55" height="10.82" x="55.55" y="44.53" class="cls-1" rx="5.41" ry="5.41"/><rect width="39.98" height="12.92" x="55.55" y="87.57" class="cls-1" rx="6.46" ry="6.46"/><rect width="45.57" height="14.53" x="58.01" y="64.38" class="cls-1" rx="5.15" ry="5.15"/><line x1="59.05" x2="90.16" y1="49.94" y2="49.94" class="cls-1"/><line x1="63.16" x2="97.22" y1="69.07" y2="69.07" class="cls-1"/><line x1="63.16" x2="97.22" y1="73.77" y2="73.77" class="cls-1"/><path d="M1144.84,104.17a2.34,2.34,0,0,0-1.48-3.82h-0.27a2.68,2.68,0,0,1-4.24,0h-0.27a2.34,2.34,0,0,0-1.48,3.82l3.87,3.51Z" class="cls-1" transform="translate(-1076.84 -9.61)"/><path d="M1155.88,104.17a2.34,2.34,0,0,0-1.48-3.82h-0.27a2.68,2.68,0,0,1-4.24,0h-0.27a2.34,2.34,0,0,0-1.48,3.82l3.87,3.51Z" class="cls-1" transform="translate(-1076.84 -9.61)"/><path d="M1166.91,104.17a2.34,2.34,0,0,0-1.48-3.82h-0.27a2.68,2.68,0,0,1-4.24,0h-0.27a2.34,2.34,0,0,0-1.48,3.82l3.87,3.51Z" class="cls-1" transform="translate(-1076.84 -9.61)"/></svg>