<svg id="Layer_1" data-name="Layer 1" xmlns="http://www.w3.org/2000/svg" viewBox="0 0 159.5 159.5"><defs><style>.cls-1{fill:none;stroke:#e6302b;stroke-miterlimit:10;stroke-width:2.83px;}</style></defs><title>mentor</title><circle class="cls-1" cx="79.75" cy="79.75" r="78.33"/><path class="cls-1" d="M1179,119.74h-44.84l-5.8,9.62V55.16a5.8,5.8,0,0,1,5.8-5.8H1179a5.8,5.8,0,0,1,5.8,5.8v58.78A5.8,5.8,0,0,1,1179,119.74Z" transform="translate(-1076.84 -9.61)"/><rect class="cls-1" x="55.55" y="44.53" width="38.55" height="10.82" rx="5.41" ry="5.41"/><rect class="cls-1" x="55.55" y="87.57" width="39.98" height="12.92" rx="6.46" ry="6.46"/><rect class="cls-1" x="58.01" y="64.38" width="45.57" height="14.53" rx="5.15" ry="5.15"/><line class="cls-1" x1="59.05" y1="49.94" x2="90.16" y2="49.94"/><line class="cls-1" x1="63.16" y1="69.07" x2="97.22" y2="69.07"/><line class="cls-1" x1="63.16" y1="73.77" x2="97.22" y2="73.77"/><path class="cls-1" d="M1144.84,104.17a2.34,2.34,0,0,0-1.48-3.82h-0.27a2.68,2.68,0,0,1-4.24,0h-0.27a2.34,2.34,0,0,0-1.48,3.82l3.87,3.51Z" transform="translate(-1076.84 -9.61)"/><path class="cls-1" d="M1155.88,104.17a2.34,2.34,0,0,0-1.48-3.82h-0.27a2.68,2.68,0,0,1-4.24,0h-0.27a2.34,2.34,0,0,0-1.48,3.82l3.87,3.51Z" transform="translate(-1076.84 -9.61)"/><path class="cls-1" d="M1166.91,104.17a2.34,2.34,0,0,0-1.48-3.82h-0.27a2.68,2.68,0,0,1-4.24,0h-0.27a2.34,2.34,0,0,0-1.48,3.82l3.87,3.51Z" transform="translate(-1076.84 -9.61)"/></svg>