<svg xmlns="http://www.w3.org/2000/svg" width="302.363" height="377.953"><defs><clipPath id="a" clipPathUnits="userSpaceOnUse"><path d="M0 283.465h226.772V0H0z"/></clipPath><clipPath id="b" clipPathUnits="userSpaceOnUse"><path d="M69.05 179.02h73.175v-14.778H69.05z"/></clipPath><clipPath id="c" clipPathUnits="userSpaceOnUse"><path d="M69.05 164.242h73.174v14.778H69.05z"/></clipPath><clipPath id="d" clipPathUnits="userSpaceOnUse"><path d="M72.638 193.03h65.998v-42.797H72.638z"/></clipPath><clipPath id="e" clipPathUnits="userSpaceOnUse"><path d="M72.638 150.233h65.998v42.797H72.638z"/></clipPath><clipPath id="f" clipPathUnits="userSpaceOnUse"><path d="M82.542 203.625h46.191v-63.987h-46.19z"/></clipPath><clipPath id="g" clipPathUnits="userSpaceOnUse"><path d="M82.542 139.639h46.19v63.986h-46.19z"/></clipPath><clipPath id="h" clipPathUnits="userSpaceOnUse"><path d="M96.631 208.174h18.012V135.09H96.631z"/></clipPath><clipPath id="i" clipPathUnits="userSpaceOnUse"><path d="M96.631 135.09h18.011v73.083H96.631z"/></clipPath><clipPath id="j" clipPathUnits="userSpaceOnUse"><path d="M85.886 205.466h39.502v-67.67H85.886z"/></clipPath><clipPath id="k" clipPathUnits="userSpaceOnUse"><path d="M85.886 137.797h39.501v67.669H85.886z"/></clipPath><clipPath id="l" clipPathUnits="userSpaceOnUse"><path d="M77.699 199.748h55.878v-56.234H77.699z"/></clipPath><clipPath id="m" clipPathUnits="userSpaceOnUse"><path d="M77.699 143.515h55.877v56.233H77.699z"/></clipPath><clipPath id="n" clipPathUnits="userSpaceOnUse"><path d="M71.746 191.262h67.782v-39.26H71.746z"/></clipPath><clipPath id="o" clipPathUnits="userSpaceOnUse"><path d="M71.746 152.002h67.781v39.26H71.746z"/></clipPath></defs><g clip-path="url(#a)" transform="matrix(1.33333 0 0 -1.33333 0 377.953)"><path fill="#3e98d6" d="M161.782 76.106H74.995a5.41 5.41 0 00-5.408 5.408v120.434a5.408 5.408 0 005.408 5.408h86.787a5.407 5.407 0 005.408-5.408V81.514a5.409 5.409 0 00-5.408-5.408"/><path fill="#fff" d="M157.822 183.033h-.925v2.788h4.904v-.967h-3.979zM157.822 179.67h-.925v2.907h4.904v-2.872h-.925v1.905h-1.05v-1.73h-.904v1.73h-1.1zM159.531 176.647v-2.325h-2.634v.91h.616c-.455.336-.713.876-.713 1.569 0 1.394 1.12 2.437 2.548 2.437 1.436 0 2.55-1.065 2.55-2.542 0-1.163-.763-2.144-1.744-2.374v1.008c.448.182.806.72.806 1.366 0 .952-.666 1.583-1.612 1.583-.994 0-1.66-.666-1.66-1.583 0-.707.344-1.275.99-1.408v1.359zM158.348 173.91h.126v-.96h-.126c-.4 0-.604-.252-.604-.686 0-.427.205-.679.604-.679h3.452v-.967h-3.452c-1.058 0-1.548.8-1.548 1.646 0 .854.49 1.646 1.548 1.646M159.349 165.879c.945 0 1.61.693 1.61 1.583s-.665 1.583-1.61 1.583c-.938 0-1.604-.693-1.604-1.583s.666-1.583 1.604-1.583m0 4.125a2.522 2.522 0 002.55-2.542 2.528 2.528 0 00-2.55-2.55 2.532 2.532 0 00-2.55 2.55 2.525 2.525 0 002.55 2.542M160.897 163.28h-.826v-1.407a.51.51 0 01.357-.148c.273 0 .469.182.469.484zm-2.388-2.22c.399 0 .707.231.707.7v1.52H157.8v-1.513c0-.476.316-.707.708-.707m-.05-.967c-.88 0-1.56.66-1.56 1.548V164.247h4.901v-2.037c0-.842-.567-1.45-1.323-1.45-.217 0-.42.07-.596.181a1.574 1.574 0 00-1.422-.848M160.897 158.496h-.826v-1.407a.51.51 0 01.357-.148c.273 0 .469.182.469.484zm-2.388-2.22c.399 0 .707.231.707.7v1.52H157.8v-1.513c0-.476.316-.707.708-.707m-.05-.967c-.88 0-1.56.66-1.56 1.548V159.463h4.901v-2.037c0-.842-.567-1.45-1.323-1.45-.217 0-.42.07-.596.181a1.574 1.574 0 00-1.422-.848M157.822 150.361h-.925v2.906h4.904v-2.872h-.925v1.905h-1.05v-1.729h-.904v1.73h-1.1zM159.531 147.337v-2.325h-2.634v.91h.616c-.455.336-.713.875-.713 1.569 0 1.394 1.12 2.437 2.548 2.437 1.436 0 2.55-1.065 2.55-2.542 0-1.163-.763-2.144-1.744-2.374v1.008c.448.182.806.72.806 1.366 0 .952-.666 1.583-1.612 1.583-.994 0-1.66-.666-1.66-1.583 0-.707.344-1.275.99-1.408v1.359zM159.075 142.4h-2.178v.96h2.178l2.725 1.603v-1.092l-1.793-.995 1.793-.995v-1.092zM163.054 137.556h-.826v.826h.826zm0 1.295h-.826v.827h.826zm-4.658 1.556h3.404v-.967h-3.326c-.456 0-.729-.252-.729-.819 0-.575.273-.828.729-.828h3.326v-.959h-3.404c-1.037 0-1.596.798-1.596 1.787 0 .987.559 1.786 1.596 1.786M160.876 133.082v1.185h-3.979v.965h3.979v1.177h.924v-3.327zM160.876 129.497v1.185h-3.979v.965h3.979v1.177h.924v-3.327zM156.898 124.243v.96h3.292l-2.508 1.086v.7l2.508 1.085h-3.292v.968h4.902v-1.101l-2.998-1.302 2.998-1.295v-1.1zM162.185 120.617l.966-.657v.937l-.966.616zm0 1.213l.966-.589v.938l-.966.546zm-3.789 1.526h3.404v-.967h-3.327c-.456 0-.728-.25-.728-.819 0-.573.272-.827.728-.827h3.326v-.959h-3.403c-1.036 0-1.596.8-1.596 1.786 0 .987.56 1.786 1.596 1.786M156.898 116.179l2.305 1.75h-2.305v.969h4.902v-.968h-2.165l2.165-1.681v-1.113l-2.388 1.814-2.515-1.883z"/><path fill="#fff" d="M163.109 111.479h-.826v.826h.826zm0 1.296h-.826v.825h.826zm-3.76-1.815c.945 0 1.611.694 1.611 1.583 0 .89-.666 1.583-1.611 1.583-.939 0-1.604-.693-1.604-1.583 0-.889.665-1.583 1.604-1.583m0 4.125a2.521 2.521 0 002.549-2.542 2.527 2.527 0 00-2.549-2.549 2.531 2.531 0 00-2.549 2.549 2.525 2.525 0 002.549 2.542M159.349 105.805c.903 0 1.527.59 1.527 1.437v1.12h-3.053v-1.12c0-.847.623-1.437 1.526-1.437m0-.924c-1.38 0-2.451 1.008-2.451 2.36v2.087h4.902v-2.086c0-1.353-1.071-2.361-2.451-2.361M162.241 102.446v.868l.96-.559v-1.085zm-4.419-1.154h-.925V104.197h4.903v-2.871h-.924v1.904h-1.05v-1.728h-.904v1.728h-1.1zM158.41 100.837v-.967c-.448 0-.665-.28-.665-.826 0-.49.21-.722.49-.722.35 0 .504.393.665.863.252.7.531 1.56 1.57 1.56.938 0 1.428-.776 1.428-1.59 0-.853-.497-1.652-1.583-1.652v.959c.427 0 .645.253.645.693 0 .4-.203.63-.49.63-.358 0-.519-.335-.687-.791-.252-.707-.512-1.632-1.548-1.632-.938 0-1.435.77-1.435 1.682 0 .967.504 1.793 1.61 1.793M146.058 66.2h-80.84a5.637 5.637 0 00-5.637 5.638v139.79a5.636 5.636 0 005.637 5.635h80.84a5.636 5.636 0 005.637-5.636V71.838a5.637 5.637 0 00-5.637-5.638"/><path fill="none" stroke="#344957" stroke-miterlimit="10" d="M146.058 66.2h-80.84a5.637 5.637 0 00-5.637 5.638v139.79a5.636 5.636 0 005.637 5.635h80.84a5.636 5.636 0 005.637-5.636V71.838a5.637 5.637 0 00-5.637-5.638z"/><g clip-path="url(#b)"><g clip-path="url(#c)"><path fill="#8bd255" d="M134.863 179.02h-.009l-58.449-.055a7.361 7.361 0 01.007-14.723h.008l58.45.053a7.363 7.363 0 01-.007 14.725m0-4.577a2.789 2.789 0 002.784-2.78 2.765 2.765 0 00-.813-1.972 2.768 2.768 0 00-1.97-.817l-58.452-.056a2.789 2.789 0 00-2.785 2.782 2.79 2.79 0 002.785 2.79l58.442.053h.01"/></g></g><g clip-path="url(#d)"><g clip-path="url(#e)"><path fill="#c19457" d="M127.743 192.127l-.007-.004-51.269-28.067a7.363 7.363 0 017.065-12.919l.006.004 51.27 28.067a7.363 7.363 0 01-7.065 12.919m2.194-4.017a2.787 2.787 0 004.01-3.226 2.764 2.764 0 00-1.34-1.662l-51.27-28.07a2.79 2.79 0 00-3.778 1.109 2.788 2.788 0 001.108 3.781l51.263 28.064.007.004"/></g></g><g clip-path="url(#f)"><g clip-path="url(#g)"><path fill="#9e1663" d="M115.168 200.23l-.004-.006-31.463-49.26a7.361 7.361 0 012.242-10.167 7.361 7.361 0 0110.164 2.237l.004.007 31.463 49.258a7.36 7.36 0 01-2.243 10.167 7.36 7.36 0 01-10.163-2.236m3.855-2.467a2.79 2.79 0 003.845.846 2.768 2.768 0 001.221-1.748 2.771 2.771 0 00-.374-2.102L92.252 145.5a2.79 2.79 0 00-3.845-.846 2.788 2.788 0 00-.847 3.848l31.46 49.253.003.007"/></g></g><g clip-path="url(#h)"><g clip-path="url(#i)"><path fill="#c4a4d8" d="M99.93 201.231v-.008l-3.286-58.357a7.362 7.362 0 016.937-7.765 7.362 7.362 0 017.764 6.931v.008l3.286 58.357a7.362 7.362 0 01-14.7.834m4.57-.262a2.787 2.787 0 004.856 1.698 2.774 2.774 0 00.705-2.017l-3.287-58.357a2.79 2.79 0 00-2.937-2.624 2.792 2.792 0 00-2.624 2.942l3.286 58.35v.008"/></g></g><g clip-path="url(#j)"><g clip-path="url(#k)"><path fill="#3e98d6" d="M86.58 194.987l.003-.007 24.774-52.94a7.359 7.359 0 019.789-3.548 7.364 7.364 0 013.55 9.782l-.003.008-24.774 52.94a7.361 7.361 0 01-9.79 3.547 7.36 7.36 0 01-3.55-9.782m4.148 1.937a2.791 2.791 0 001.344 3.701 2.774 2.774 0 002.129.095 2.769 2.769 0 001.575-1.44l24.773-52.94a2.79 2.79 0 00-1.343-3.703 2.792 2.792 0 00-3.705 1.345l-24.77 52.935-.003.007"/></g></g><g clip-path="url(#l)"><g clip-path="url(#m)"><path fill="#f24d6f" d="M79.828 187.207l.005-.006 41.152-41.508a7.364 7.364 0 0110.461 10.364l-.006.004-41.15 41.508a7.36 7.36 0 01-10.413.044 7.362 7.362 0 01-.049-10.406m3.253 3.221a2.787 2.787 0 001.992 4.743 2.777 2.777 0 001.968-.825l41.152-41.51a2.789 2.789 0 00-.018-3.937 2.79 2.79 0 00-3.942.019l-41.146 41.503-.006.007"/></g></g><g clip-path="url(#n)"><g clip-path="url(#o)"><path fill="#f79541" d="M76.015 177.218l.007-.004 53.054-24.531a7.362 7.362 0 019.77 3.595 7.36 7.36 0 01-3.586 9.767l-.007.003L82.2 190.58a7.363 7.363 0 01-6.186-13.362m1.924 4.152a2.79 2.79 0 00-1.356 3.697 2.767 2.767 0 001.567 1.444 2.757 2.757 0 002.133-.087l53.052-24.532a2.79 2.79 0 001.358-3.695 2.792 2.792 0 00-3.7-1.36l-53.046 24.53-.008.003"/></g></g><path fill="#344957" d="M70.22 110.379c0 3.588 2.7 6.447 6.5 6.447 2.807 0 5.204-1.793 5.896-4.316H80.86c-.586 1.617-2.239 2.719-4.139 2.719-2.913 0-4.866-2.116-4.866-4.85 0-2.717 1.953-4.83 4.866-4.83 1.9 0 3.553 1.082 4.14 2.699h1.756c-.692-2.523-3.089-4.316-5.896-4.316-3.8 0-6.5 2.877-6.5 6.447M86.103 104.162h-1.652v12.434h1.652zM87.454 116.596h1.759l3.57-10.443 3.569 10.443h1.777l-4.405-12.434h-1.865zM101.152 104.162H99.5v12.434h1.652zM110.797 105.725v-1.562h-6.98v12.433h1.652v-10.871zM126.397 110.379c0 2.629-1.76 4.654-4.317 4.654h-3.551v-9.308h3.551c2.558 0 4.317 2.025 4.317 4.654m1.58 0c0-3.445-2.47-6.217-5.897-6.217H116.876v12.434h5.205c3.427 0 5.896-2.772 5.896-6.217M129.971 104.162h1.651v12.434h-1.651zm-.249 13.641l1.421 2.345h1.865l-1.794-2.345z"/><g><path fill="#344957" d="M133.063 107.732v.23h1.635v-.23c0-1.527 1.03-2.184 2.361-2.184 1.314 0 2.344.657 2.344 2.184v8.863h1.652v-8.863c0-2.594-1.954-3.8-3.996-3.8-2.06 0-3.997 1.206-3.997 3.8"/></g><path fill="#344957" d="M141.896 125.283H69.378v.5h72.518zM141.896 76.285H69.378v.5h72.518z"/><g><path fill="#344957" d="M86.095 86.98l4.564 4.638c1.102 1.1 2.008 2.29 2.008 3.48 0 1.795-1.19 2.754-2.753 2.754-1.599 0-2.86-.924-2.86-2.736h-.959c0 2.416 1.83 3.64 3.82 3.64 1.935 0 3.711-1.26 3.711-3.658 0-1.51-1.066-2.877-2.327-4.156l-3.854-3.906h6.465v-.908h-7.815z"/></g><g><path fill="#344957" d="M103.664 92.346c0 3.48-1.385 5.506-3.694 5.506s-3.695-2.026-3.695-5.506c0-3.482 1.386-5.508 3.695-5.508 2.31 0 3.694 2.026 3.694 5.508m-8.348 0c0 3.836 1.67 6.41 4.654 6.41s4.653-2.574 4.653-6.41c0-3.838-1.669-6.412-4.653-6.412-2.984 0-4.654 2.574-4.654 6.412"/></g><g><path fill="#344957" d="M106.243 86.98l4.565 4.638c1.102 1.1 2.007 2.29 2.007 3.48 0 1.795-1.19 2.754-2.753 2.754-1.599 0-2.86-.924-2.86-2.736h-.959c0 2.416 1.83 3.64 3.82 3.64 1.934 0 3.71-1.26 3.71-3.658 0-1.51-1.065-2.877-2.326-4.156l-3.854-3.906h6.464v-.908h-7.814z"/></g><g><path fill="#344957" d="M124.22 92.346c0 3.48-1.385 5.506-3.693 5.506-2.31 0-3.695-2.026-3.695-5.506 0-3.482 1.386-5.508 3.695-5.508 2.308 0 3.694 2.026 3.694 5.508m-8.348 0c0 3.836 1.669 6.41 4.654 6.41 2.984 0 4.653-2.574 4.653-6.41 0-3.838-1.67-6.412-4.653-6.412-2.985 0-4.654 2.574-4.654 6.412"/></g></g></svg>