<svg xmlns="http://www.w3.org/2000/svg" id="Layer_1" data-name="Layer 1" viewBox="0 0 156.67 156.67"><defs><style>.cls-1{fill:#e6302b}.cls-2{fill:#fff}.cls-2,.cls-3{stroke:#fff;stroke-width:.95px}.cls-2,.cls-3,.cls-4{stroke-miterlimit:10}.cls-3,.cls-4{fill:none}.cls-4{stroke:#f6f6f6;stroke-width:1.42px}</style></defs><title>persely</title><circle cx="78.33" cy="78.33" r="78.33" class="cls-1"/><circle cx="58.87" cy="77.81" r="1.14" class="cls-2"/><path d="M-22.24,526.74s1.32,4.34,5.1,3.25a3.23,3.23,0,0,0,1.76-4.69,2,2,0,0,0-2.52-1,1.57,1.57,0,0,0,0,2.89" class="cls-3" transform="translate(131.3 -441.92)"/><circle cx="76.78" cy="49.94" r="6.22" class="cls-3"/><path d="M-40.93,511.3a6.21,6.21,0,0,0,2.27-4.81,6.22,6.22,0,0,0-6.22-6.22,6.22,6.22,0,0,0-6.22,6.22,6.19,6.19,0,0,0,1.3,3.79A55.63,55.63,0,0,1-40.93,511.3Z" class="cls-3" transform="translate(131.3 -441.92)"/><path d="M-49.8,510.28A6.23,6.23,0,0,1-50.9,508c-1.71,0-2.87.14-2.91,0.45v2a40,40,0,0,1,4.64-.18Z" class="cls-3" transform="translate(131.3 -441.92)"/><path d="M-39.4,509.43a6.25,6.25,0,0,1-1.53,1.87c-0.79-.17-1.65-0.31-2.53-0.44a38,38,0,0,1,6.26,1.65s0.46-1.79.46-1.85A6.18,6.18,0,0,0-39.4,509.43Z" class="cls-3" transform="translate(131.3 -441.92)"/><path d="M-38.67,506.79a6.21,6.21,0,0,1-2.25,4.5,55.63,55.63,0,0,0-8.87-1,6.19,6.19,0,0,1-1.3-3.79,6.2,6.2,0,0,1,.33-2l-1,0a32,32,0,0,0-13.14,2.84,41.63,41.63,0,0,1-5.57-6.8,0.8,0.8,0,0,0-1.4.47,48.1,48.1,0,0,0-1.25,11.67,24.68,24.68,0,0,0-7.52,11.57l-10.34-.68c-0.08.68,4.77,8.94,4.77,8.94s11.53,7.92,14.3,10.13a42.65,42.65,0,0,0,5.56,3.25v8.25a0.76,0.76,0,0,0,1.33.5l5.61-6.41a45.16,45.16,0,0,0,7.67.78A35.91,35.91,0,0,0-42,548l5.77,6.59a0.76,0.76,0,0,0,1.33-.5v-8.75c7.74-4,12.71-11,12.71-18.58C-22.24,518-28.93,510.43-38.67,506.79Z" class="cls-3" transform="translate(131.3 -441.92)"/><path d="M-45.19,508.84l-0.1.88-0.42,0,0.1-.85a2.56,2.56,0,0,1-1.36-.51l0.08-.7a1.91,1.91,0,0,0,.6.42,2.36,2.36,0,0,0,.74.22l0.23-2.07a3.19,3.19,0,0,1-1.06-.92,1.42,1.42,0,0,1-.17-0.89,1.44,1.44,0,0,1,.51-1A1.67,1.67,0,0,1-45,503l0.08-.73,0.42,0-0.08.71a2.26,2.26,0,0,1,1.07.35l-0.08.69a1.85,1.85,0,0,0-1.06-.47l-0.24,2.14a3.47,3.47,0,0,1,1.06.9,1.31,1.31,0,0,1,.21.89,1.33,1.33,0,0,1-.49.92A1.88,1.88,0,0,1-45.19,508.84Zm0-3.37,0.21-1.89a0.92,0.92,0,0,0-.57.24,0.84,0.84,0,0,0-.26.54,1,1,0,0,0,.1.59A1.75,1.75,0,0,0-45.24,505.47Zm0.32,1-0.21,1.83a0.84,0.84,0,0,0,.88-0.75A1.21,1.21,0,0,0-44.92,506.44Z" class="cls-2" transform="translate(131.3 -441.92)"/><path d="M-54.32,494.29l0.05,0.88-0.42,0-0.05-.85a2.56,2.56,0,0,1-1.43-.27l0-.71a1.91,1.91,0,0,0,.67.31,2.36,2.36,0,0,0,.77.09l-0.13-2.08a3.19,3.19,0,0,1-1.21-.73,1.42,1.42,0,0,1-.32-0.84,1.44,1.44,0,0,1,.34-1,1.67,1.67,0,0,1,1-.58l0-.73,0.42,0,0,0.72a2.26,2.26,0,0,1,1.12.16l0,0.69a1.85,1.85,0,0,0-1.12-.28l0.13,2.15a3.47,3.47,0,0,1,1.2.71,1.31,1.31,0,0,1,.36.84,1.33,1.33,0,0,1-.33,1A1.88,1.88,0,0,1-54.32,494.29ZM-54.94,491l-0.11-1.89a0.92,0.92,0,0,0-.52.34,0.84,0.84,0,0,0-.17.58,1,1,0,0,0,.2.56A1.75,1.75,0,0,0-54.94,491Zm0.48,0.9,0.11,1.84a0.84,0.84,0,0,0,.73-0.89A1.21,1.21,0,0,0-54.47,491.89Z" class="cls-2" transform="translate(131.3 -441.92)"/><circle cx="78.33" cy="78.33" r="66.5" class="cls-4"/></svg>