<svg xmlns="http://www.w3.org/2000/svg" xmlns:xlink="http://www.w3.org/1999/xlink" id="Layer_1" x="0" y="0" version="1.1" viewBox="0 0 120 120" xml:space="preserve" style="enable-background:new 0 0 120 120"><style type="text/css">.st0{fill:#fff}</style><g><g id="A_-_70_x2C__Agreement_x2C__deal_x2C__handshake_x2C__Business_x2C__partner_1_"><g><path d="M35.1,64.3c-0.3,0-0.6-0.1-0.8-0.2c-0.4-0.2-0.6-0.6-0.7-1c-0.1-0.4-0.1-0.8,0.2-1.2c0.4-0.7,1.4-1,2.2-0.6 l0,0c0.4,0.2,0.6,0.6,0.7,1c0.1,0.4,0.1,0.8-0.2,1.2C36.2,64,35.7,64.3,35.1,64.3z M35.1,61.9c-0.3,0-0.5,0.1-0.7,0.4 c-0.1,0.2-0.1,0.4-0.1,0.6c0.1,0.2,0.2,0.4,0.4,0.5c0.4,0.2,0.9,0.1,1.1-0.3c0.1-0.2,0.1-0.4,0.1-0.6c-0.1-0.2-0.2-0.4-0.4-0.5 c0,0,0,0,0,0C35.4,62,35.3,61.9,35.1,61.9z" class="st0"/><path d="M52.9,84.2c-0.9,0-1.8-0.5-2.3-1.3c-0.7-1.2-0.3-2.8,0.9-3.5c0.1,0,0.1-0.2,0.1-0.2c0-0.1-0.1-0.1-0.1-0.1 l-3.6,2c-1.2,0.7-2.9,0.2-3.6-1c-0.7-1.2-0.3-2.8,0.9-3.5c0.1,0,0.1-0.2,0.1-0.2c0-0.1-0.2-0.1-0.2-0.1L42.3,78 c-1.2,0.7-2.9,0.2-3.6-1c-0.7-1.2-0.3-2.8,0.9-3.5c0.1,0,0.1-0.2,0.1-0.2c0-0.1-0.2-0.1-0.2-0.1l-3.3,1.9 c-0.4,0.2-0.8,0.3-1.3,0.3c-0.9,0-1.8-0.5-2.3-1.3c-0.7-1.2-0.3-2.8,0.9-3.6l3.9-2.2c0.1,0,0.2-0.1,0.3,0c0,0,0.1,0,0.1,0 c0,0,0.1-0.1,0.1-0.1c0.1-0.1,0.2-0.1,0.3-0.1c0.1,0,0.2,0.1,0.3,0.2l1.7,2.9c0,0,0.1,0.1,0.1,0.1l-0.3,0.3l0.3-0.3c0,0,0,0,0,0 l17.1,9.9c0.1,0.1,0.2,0.2,0.2,0.4s-0.1,0.3-0.2,0.4l-3.4,1.9C53.8,84.1,53.3,84.2,52.9,84.2z M52.4,79.2c0,0.3-0.2,0.7-0.5,0.9 c-0.8,0.5-1.1,1.6-0.6,2.4c0.5,0.8,1.6,1.1,2.4,0.6l2.7-1.6L52.4,79.2z M45.1,75.5c0.3,0,0.7,0.2,0.9,0.5 c0.3,0.5,0.1,1.1-0.3,1.4c-0.8,0.5-1.1,1.6-0.6,2.4c0.5,0.8,1.6,1.1,2.4,0.6l3.5-2c0,0,0,0,0,0L40,72.1c-0.1,0-0.1-0.1-0.2-0.2 c0,0,0,0,0,0c0,0-0.1-0.1-0.1-0.1c0,0-0.1-0.1-0.1-0.1l-1.6-2.6c-0.1,0-0.1,0-0.2,0c0,0-0.1,0-0.1,0L34,71.3 c-0.8,0.5-1.1,1.6-0.6,2.4c0.5,0.8,1.6,1.1,2.4,0.6l3.3-1.9c0.5-0.3,1.1-0.1,1.4,0.4c0.3,0.5,0.1,1.1-0.3,1.4 c-0.8,0.5-1.1,1.6-0.6,2.4c0.5,0.8,1.6,1.1,2.4,0.6l2.7-1.6C44.7,75.6,44.9,75.5,45.1,75.5z M37.7,68.7L37.7,68.7L37.7,68.7z" class="st0"/><path d="M58.7,82.3c-0.4,0-0.8-0.1-1.1-0.2c0,0-0.2-0.1-0.2-0.1c-0.1,0-0.1-0.1-0.2-0.1L39.7,71.8 c-0.1,0-0.1-0.1-0.2-0.1l-2-3.3c-0.1-0.1-0.1-0.3,0-0.4l10-17.4c0.1-0.1,0.2-0.2,0.4-0.2c0.2,0,0.3,0.1,0.4,0.2l-0.3,0.3l0,0 l0.3-0.2l0.1,0.2c0.1,0.1,0.1,0.2,0.2,0.2c0.1,0.1,0.2,0.2,0.2,0.3c0.1,0.1,0.2,0.2,0.3,0.3c2.6,2.5,6.4,2.8,10.1,2.8 c0.1,0,0.2,0,0.2,0.1l22.2,13.3c0.1,0,0.1,0.1,0.2,0.2c0.4,0.9,0.4,1.9-0.1,2.8c-0.5,0.9-1.5,1.5-2.6,1.5c-0.5,0-1-0.1-1.5-0.4 L74,69.7c-0.1,0-0.2,0-0.2,0.1c0,0.1,0,0.2,0.1,0.2c1.4,0.8,1.8,2.7,1,4.1c-0.5,0.9-1.5,1.5-2.6,1.5c-0.5,0-1-0.1-1.5-0.4 l-3.1-1.8c-0.1,0-0.2,0-0.2,0.1c0,0.1,0,0.2,0.1,0.2c1.4,0.9,1.8,2.7,1,4.1c-0.5,0.9-1.5,1.5-2.6,1.5c-0.5,0-1-0.1-1.5-0.4 l-4-2.3c-0.1-0.1-0.2,0-0.2,0.1c0,0.1,0,0.2,0.1,0.2c1.4,0.8,1.8,2.6,1,4C60.8,81.7,59.8,82.3,58.7,82.3z M40.2,71.1l17.5,10.1 c0,0,0.1,0,0.1,0.1c0.1,0,0.1,0.1,0.2,0.1c0.2,0.1,0.5,0.1,0.8,0.1c0.8,0,1.5-0.4,1.9-1.1c0.6-1,0.2-2.3-0.7-2.9 c-0.5-0.3-0.6-0.9-0.3-1.4c0.3-0.5,0.9-0.6,1.4-0.4l4,2.3c1,0.6,2.4,0.2,2.9-0.8c0.6-1,0.2-2.3-0.7-2.9c-0.5-0.3-0.6-0.9-0.3-1.4 c0.3-0.5,0.9-0.6,1.4-0.4l3.1,1.8c1,0.6,2.4,0.2,2.9-0.8c0.6-1,0.2-2.3-0.7-2.9c-0.5-0.3-0.6-0.9-0.3-1.4 c0.3-0.5,0.9-0.6,1.4-0.4l3.7,2.1c1,0.6,2.4,0.2,2.9-0.8c0.3-0.6,0.4-1.3,0.1-1.9l-22-13.2c0,0,0,0-0.1,0c-3.8,0-7.7-0.4-10.5-3 c-0.1-0.1-0.2-0.2-0.3-0.3c0,0-0.1-0.1-0.1-0.1c-0.1-0.1-0.1-0.2-0.2-0.2c0-0.1-0.1-0.1-0.1-0.1L38.4,68L40.2,71.1z" class="st0"/><path d="M83.8,64.9c-0.4,0-0.8-0.2-1.1-0.5c-0.6-0.6-0.6-1.6,0-2.3c0.6-0.6,1.7-0.6,2.3,0c0.6,0.6,0.6,1.6,0,2.3 C84.7,64.8,84.3,64.9,83.8,64.9z M83.8,62.6c-0.2,0-0.4,0.1-0.5,0.2c-0.3,0.3-0.3,0.8,0,1.1c0.3,0.3,0.8,0.3,1.1,0 c0.3-0.3,0.3-0.8,0-1.1C84.2,62.6,84,62.6,83.8,62.6z" class="st0"/><path d="M37.6,69c-0.1,0-0.1,0-0.2-0.1l-8.6-5c-0.1-0.1-0.2-0.1-0.2-0.3s0-0.2,0-0.3l0.7-1.2c0,0,0.1-0.1,0.1-0.1 l10.6-18.3c0-0.1,0-0.2,0.1-0.2l0.7-1.3c0.1-0.2,0.4-0.3,0.6-0.2l8.6,5c0.2,0.1,0.3,0.4,0.2,0.6l-0.3,0.6c0,0-0.1,0.1-0.1,0.1 c-0.3,0.2-0.5,0.5-0.6,0.8l-0.4-0.1l0.4,0.2l-0.1,0.2c0,0,0,0.2-0.1,0.2L38.1,68.6c0,0,0,0.1,0,0.1L38,68.8 C37.9,68.9,37.8,69,37.6,69z M37.7,68.5L37.7,68.5L37.7,68.5z M29.6,63.4l7.9,4.5l10.8-18.7c0-0.1,0-0.1,0-0.2c0,0,0-0.1,0-0.1 c0,0,0-0.1,0-0.1c0.2-0.4,0.4-0.8,0.8-1.1l0.1-0.2L41.4,43l-0.5,0.9c0,0.1-0.1,0.2-0.1,0.3L30.2,62.5c0,0.1-0.1,0.2-0.2,0.2 L29.6,63.4z" class="st0"/><path d="M89.1,63.1c0,0-0.1,0-0.1,0c-0.1,0-0.2-0.1-0.3-0.2l-10-17.3c-0.1-0.1-0.1-0.2,0-0.3c0-0.1,0.1-0.2,0.2-0.3 l6.1-3.5c0.2-0.1,0.5,0,0.6,0.2l10,17.3c0.1,0.2,0,0.5-0.2,0.6l-6.1,3.5C89.3,63.1,89.2,63.1,89.1,63.1z M79.7,45.6l9.6,16.6 l5.3-3.1l-9.6-16.5L79.7,45.6z" class="st0"/><path d="M80,67.7c-0.1,0-0.1,0-0.2-0.1L59.2,55.3l0-0.4l-0.1,0.4l-0.2,0c-3.6,0-7.3-0.3-9.8-2.7L48.6,52 c-0.2-0.2-0.3-0.5-0.4-0.7l-0.1-0.1l0.4-0.3l-0.4,0.1c0,0,0-0.1,0-0.1c-0.1-0.3-0.1-0.5,0-0.7c0,0,0,0,0,0c0,0,0-0.1,0-0.1 c0,0,0-0.1,0-0.2c0,0,0.1-0.2,0.1-0.2c0.1-0.2,0.3-0.4,0.5-0.6c1.4-1.1,4.3-1.2,8-0.4c1.3,0.3,2.6-0.2,3.8-0.7 c1.1-0.4,2-0.8,3.2-0.8c1.5,0,3,0.7,4.8,2.3c0,0,0.1,0.1,0.2,0l1-0.3c0.2-0.1,0.4,0,0.5,0.2L80.4,67c0.1,0.2,0.1,0.4-0.1,0.5 C80.2,67.6,80.1,67.7,80,67.7z M49,51c0.1,0.2,0.2,0.4,0.3,0.5l0.4,0.4c2.3,2.2,5.8,2.5,9.3,2.5h0.2c0,0,0.1,0,0.1,0 c0,0,0.1,0,0.1,0c0,0,0.1,0,0.1,0c0,0,0.1,0.1,0.1,0.1l19.2,11.5l-9.2-16l-0.7,0.2c-0.3,0.1-0.7,0-1-0.2c-1.5-1.4-2.9-2-4.2-2 c-1,0-1.9,0.4-2.9,0.8c-1,0.4-2.1,0.9-3.3,0.9c-0.4,0-0.7,0-1-0.1c-1.6-0.4-3-0.5-4.2-0.5c-1.4,0-2.5,0.3-3.1,0.7 c-0.2,0.1-0.3,0.3-0.3,0.4l-0.4-0.1l0.4,0.2l-0.4-0.1l0.4,0.1c0,0,0,0,0,0.1c0,0.1,0,0.2,0,0.3l-0.4,0.2l0.4-0.1l-0.4,0.2L49,51z" class="st0"/><path d="M82,69.9c-0.1,0-0.2,0-0.2-0.1c-0.1-0.1-0.2-0.2-0.2-0.4c0.1-0.6,0-1.4-1.7-1.8c-0.1,0-0.2-0.1-0.3-0.2 l-7.4-13.3l-2.9-5c-0.1-0.1-0.1-0.2,0-0.3c0-0.1,0.1-0.2,0.2-0.3l8.6-5c0.1-0.1,0.2-0.1,0.3,0c0.1,0,0.2,0.1,0.3,0.2L90,63.6 l-0.4,0.2l0.4-0.2l0.7,1.2c0.1,0.1,0.1,0.2,0,0.3c0,0.1-0.1,0.2-0.2,0.3l-8.4,4.4C82.1,69.8,82.1,69.9,82,69.9z M80.2,66.8 c1.5,0.4,2.1,1.2,2.2,1.9l7.4-3.9L89.3,64l0,0L78,44.5L70.2,49l2.7,4.7L80.2,66.8z" class="st0"/><path d="M30,62.6c-0.1,0-0.1,0-0.2-0.1l-6-3.5c-0.2-0.1-0.3-0.4-0.2-0.6l10-17.3c0.1-0.1,0.1-0.2,0.3-0.2 c0.1,0,0.2,0,0.3,0l6,3.5c0.2,0.1,0.3,0.4,0.2,0.6l-10,17.3c-0.1,0.1-0.1,0.2-0.3,0.2C30.1,62.5,30,62.6,30,62.6z M24.5,58.5 l5.3,3.1L39.4,45L34.1,42L24.5,58.5z" class="st0"/></g></g><path d="M60,119.7C27.1,119.7,0.3,92.9,0.3,60C0.3,27.1,27.1,0.3,60,0.3s59.7,26.8,59.7,59.7 C119.7,92.9,92.9,119.7,60,119.7z M60,1.7C27.9,1.7,1.7,27.9,1.7,60c0,32.1,26.2,58.3,58.3,58.3s58.3-26.2,58.3-58.3 C118.3,27.9,92.1,1.7,60,1.7z" class="st0"/></g></svg>