<svg id="Layer_1" data-name="Layer 1" xmlns="http://www.w3.org/2000/svg" viewBox="0 0 156.67 156.67"><defs><style>.cls-1{fill:#e6302b;}.cls-2,.cls-3,.cls-5{fill:none;}.cls-2{stroke:#fff;stroke-width:0.84px;}.cls-2,.cls-5{stroke-miterlimit:10;}.cls-4{fill:#fff;}.cls-5{stroke:#f6f6f6;stroke-width:1.42px;}</style></defs><title>doboz</title><circle class="cls-1" cx="78.33" cy="78.33" r="78.33"/><path class="cls-2" d="M113.23,499.46l44.33,7.08a1.62,1.62,0,0,1,1.37,1.6V546a1.2,1.2,0,0,1-1.49,1.16l-41.37-10.62a1.66,1.66,0,0,1-1.25-1.51l-2.55-34.69A0.83,0.83,0,0,1,113.23,499.46Z" transform="translate(-67.39 -438.56)"/><path class="cls-2" d="M137.46,486.95l-24.15,11.81a0.39,0.39,0,0,0,.11.73l44.19,7.05A3.28,3.28,0,0,0,160,506l18.11-12.91a0.52,0.52,0,0,0-.23-0.95l-38.42-5.49A3.48,3.48,0,0,0,137.46,486.95Z" transform="translate(-67.39 -438.56)"/><path class="cls-2" d="M178.51,525.75L179.18,494a0.84,0.84,0,0,0-1.32-.7L159.28,506.5a0.84,0.84,0,0,0-.35.68v38.28a0.84,0.84,0,0,0,1.44.58l17-17.5A4.12,4.12,0,0,0,178.51,525.75Z" transform="translate(-67.39 -438.56)"/><line class="cls-3" x1="88.18" y1="50.37" x2="88.08" y2="50.36"/><line class="cls-3" x1="68.71" y1="64.55" x2="68.71" y2="64.55"/><line class="cls-2" x1="90.9" y1="50.76" x2="68.71" y2="64.55"/><polygon class="cls-4" points="85.9 56.51 86.62 56.63 84 57.14 85.65 58.06 84.93 58.48 85.5 58.92 75.5 57.29 76.62 56.97 75.7 56.09 77.67 55.96 75.9 54.88 85.9 56.51"/><path class="cls-2" d="M145.1,524.91c3.14-3.46,1.78-9.52-2.54-10.45a6,6,0,0,0-.66-0.1,6.29,6.29,0,0,0-5.38,2.23,6.29,6.29,0,0,0-4.82-3.27,6,6,0,0,0-.66,0c-4.42,0-7,5.7-4.58,9.73l8.38,10.22Z" transform="translate(-67.39 -438.56)"/><circle class="cls-5" cx="78.33" cy="78.33" r="66.5"/></svg>