<svg xmlns="http://www.w3.org/2000/svg" id="Layer_1" data-name="Layer 1" viewBox="0 0 156.67 156.67"><defs><style>.cls-1{fill:#e6302b}.cls-2{fill:none;stroke:#f6f6f6;stroke-miterlimit:10;stroke-width:1.42px}</style></defs><title>idh</title><circle cx="78.33" cy="78.33" r="78.33" class="cls-1"/><polygon points="105.28 46.6 78.33 46.6 51.39 46.6 38.33 62.81 78.33 110.07 118.33 62.81 105.28 46.6" class="cls-2"/><path d="M-249.64,497.24l4.82-.06-7.39,28-3.67-4.33Z" class="cls-2" transform="translate(309.94 -446.27)"/><path d="M-238.68,497l7.41-.13c4.64,0.23,6.8,2.91,6.57,7.64l-3.82,26.06c-0.23,4.73-2.64,7.19-7.28,7l-6-.1-2-2.33Zm4.5,4-5.08,32.44,3.58-.09c1.48,0.07,2.4-.65,2.5-2.76l3.84-26.48c0.1-2.11-.75-2.91-2.22-3Z" class="cls-2" transform="translate(309.94 -446.27)"/><path d="M-212.18,526.72l-3.93,4-6.75-33.57h4.74l2.18,10.91,5.18-1-2-10,4.81-.09,4,19.84-3.91,4.62-2-10.24-5.18,1Z" class="cls-2" transform="translate(309.94 -446.27)"/><polygon points="103.22 50.97 78.33 50.97 53.45 50.97 43.85 62.46 78.33 103.21 112.82 62.46 103.22 50.97" class="cls-2"/><path d="M-243.79,535.08" class="cls-2" transform="translate(309.94 -446.27)"/><circle cx="78.33" cy="78.33" r="66.5" class="cls-2"/></svg>